M48
; DRILL file {KiCad 7.0.8} date 2024 May 12, Sunday 08:22:57
; FORMAT={-:-/ absolute / metric / decimal}
; #@! TF.CreationDate,2024-05-12T08:22:57+09:00
; #@! TF.GenerationSoftware,Kicad,Pcbnew,7.0.8
; #@! TF.FileFunction,Plated,1,2,PTH
FMAT,2
METRIC
; #@! TA.AperFunction,Plated,PTH,ComponentDrill
T1C0.300
; #@! TA.AperFunction,Plated,PTH,ViaDrill
T2C0.400
; #@! TA.AperFunction,Plated,PTH,ComponentDrill
T3C0.762
; #@! TA.AperFunction,Plated,PTH,ComponentDrill
T4C0.813
; #@! TA.AperFunction,Plated,PTH,ComponentDrill
T5C1.000
; #@! TA.AperFunction,Plated,PTH,ComponentDrill
T6C1.200
; #@! TA.AperFunction,Plated,PTH,ComponentDrill
T7C1.500
; #@! TA.AperFunction,Plated,PTH,ComponentDrill
T8C1.600
; #@! TA.AperFunction,Plated,PTH,ComponentDrill
T9C2.000
%
G90
G05
T2
X-52.97Y115.21
X-52.95Y55.18
X-51.98Y114.54
X-51.83Y55.23
X-50.86Y113.72
X-50.831Y55.219
X-49.93Y113.04
X-41.59Y140.4
X-41.52Y132.14
X-40.22Y140.46
X-40.22Y132.19
X-38.81Y139.36
X-38.72Y132.14
X-36.74Y111.87
X-32.92Y111.85
X-31.73Y111.87
X-31.01Y115.22
X-18.5Y111.84
X-14.28Y46.26
X-14.25Y49.33
X-14.17Y50.5
X-13.91Y111.73
X-12.58Y111.74
X-11.94Y114.78
X1.177Y111.393
X3.76Y46.57
X3.77Y49.27
X4.39Y111.314
X5.78Y49.22
X5.79Y111.314
X5.94Y46.68
X6.68Y116.19
X11.26Y57.49
X20.31Y111.58
X23.07Y111.58
X24.43Y111.59
X25.3Y122.54
X40.01Y112.39
X42.28Y112.36
X43.56Y112.42
X44.27Y121.79
X58.5Y112.41
X59.68Y112.41
X61.14Y112.31
X61.79Y123.58
X76.2Y112.21
X78.49Y112.16
X80.07Y112.26
X80.8Y123.25
X95.29Y111.9
X97.64Y111.94
X98.84Y111.84
X99.55Y121.7
X100.82Y127.02
X101.67Y126.0
X102.04Y110.14
X107.145Y128.045
X111.0Y127.85
X116.35Y116.46
X116.4Y132.53
X116.52Y74.63
T3
X8.332Y53.028
X8.332Y50.774
X8.332Y48.52
X8.332Y46.266
X8.332Y44.012
T4
X-67.567Y145.5
X-67.567Y130.26
X-65.028Y145.5
X-65.028Y130.26
X-62.487Y145.5
X-62.487Y130.26
X-59.947Y145.5
X-59.947Y130.26
X-57.407Y145.5
X-57.407Y130.26
X-54.867Y145.5
X-54.867Y130.26
X-52.328Y145.5
X-52.328Y130.26
X-49.787Y145.5
X-49.787Y130.26
X-47.247Y145.5
X-47.247Y142.96
X-47.247Y140.42
X-47.247Y137.88
X-47.247Y135.34
X-47.247Y132.8
X-47.247Y130.26
X-34.925Y145.17
X-33.095Y142.31
X-31.155Y139.56
X-29.095Y136.59
X-27.305Y145.17
X-25.475Y142.31
X-23.535Y139.56
X-21.665Y145.11
X-21.475Y136.59
X-19.765Y142.3
X-18.165Y139.5
X-16.23Y136.63
X-14.045Y145.11
X-12.145Y142.3
X-10.545Y139.5
X-8.645Y145.06
X-8.61Y136.63
X-6.995Y142.31
X-5.08Y139.51
X-3.205Y136.63
X-1.025Y145.06
X0.625Y142.31
X2.54Y139.51
X4.1Y145.08
X4.415Y136.63
X6.04Y142.26
X7.87Y139.5
X9.595Y136.66
X11.72Y145.08
X13.66Y142.26
X15.49Y139.5
X17.03Y145.11
X17.215Y136.66
X19.065Y142.22
X19.762Y35.91
X20.845Y139.58
X22.302Y35.91
X22.78Y136.65
X24.65Y145.11
X24.842Y35.91
X26.685Y142.22
X27.383Y35.91
X28.465Y139.58
X29.89Y145.16
X29.922Y35.91
X30.4Y136.65
X31.77Y142.28
X33.505Y139.61
X35.24Y136.7
X37.51Y145.16
X39.39Y142.28
X41.125Y139.61
X42.86Y136.7
X42.985Y145.18
X45.075Y142.43
X47.045Y139.62
X49.145Y136.7
X50.605Y145.18
X52.695Y142.43
X54.665Y139.62
X56.765Y136.7
X57.335Y145.14
X59.395Y142.38
X61.495Y139.67
X63.44Y136.76
X64.955Y145.14
X67.015Y142.38
X69.115Y139.67
X70.995Y145.19
X71.06Y136.76
X72.975Y142.38
X74.95Y139.71
X76.805Y136.71
X78.615Y145.19
X80.595Y142.38
X82.57Y139.71
X84.025Y145.31
X84.425Y136.71
X86.0Y142.34
X88.04Y139.69
X90.03Y136.88
X91.645Y145.31
X91.98Y134.4
X93.62Y142.34
X95.66Y139.69
X97.65Y136.88
X99.6Y134.4
T5
X22.342Y57.25
X24.842Y57.25
X27.342Y57.25
X33.572Y51.02
X33.572Y48.52
X33.572Y46.02
X102.35Y141.66
X102.35Y136.66
X116.85Y141.66
X116.85Y139.16
X116.85Y136.66
T6
X21.592Y42.77
X21.592Y38.27
X28.092Y42.77
X28.092Y38.27
T7
X18.517Y53.52
X18.517Y43.52
X31.167Y53.52
X31.167Y43.52
T8
X20.543Y48.52
X29.142Y48.52
T1
G00X2.145Y48.1
M15
G01X1.445Y48.1
M16
G05
G00X59.3Y48.1
M15
G01X58.6Y48.1
M16
G05
T9
G00X109.75Y144.76
M15
G01X108.95Y144.76
M16
G05
G00X109.75Y133.56
M15
G01X108.95Y133.56
M16
G05
T0
M30
