%TF.GenerationSoftware,KiCad,Pcbnew,7.0.8*%
%TF.CreationDate,2024-05-12T08:22:54+09:00*%
%TF.ProjectId,ckb6,636b6236-2e6b-4696-9361-645f70636258,rev?*%
%TF.SameCoordinates,Original*%
%TF.FileFunction,Legend,Top*%
%TF.FilePolarity,Positive*%
%FSLAX46Y46*%
G04 Gerber Fmt 4.6, Leading zero omitted, Abs format (unit mm)*
G04 Created by KiCad (PCBNEW 7.0.8) date 2024-05-12 08:22:54*
%MOMM*%
%LPD*%
G01*
G04 APERTURE LIST*
%ADD10C,0.150000*%
%ADD11C,0.200000*%
%ADD12R,1.397000X1.397000*%
%ADD13C,1.397000*%
%ADD14O,2.200000X1.500000*%
G04 APERTURE END LIST*
D10*
X24509166Y59665180D02*
X24509166Y58950895D01*
X24509166Y58950895D02*
X24461547Y58808038D01*
X24461547Y58808038D02*
X24366309Y58712800D01*
X24366309Y58712800D02*
X24223452Y58665180D01*
X24223452Y58665180D02*
X24128214Y58665180D01*
X25509166Y58665180D02*
X24937738Y58665180D01*
X25223452Y58665180D02*
X25223452Y59665180D01*
X25223452Y59665180D02*
X25128214Y59522323D01*
X25128214Y59522323D02*
X25032976Y59427085D01*
X25032976Y59427085D02*
X24937738Y59379466D01*
X9939279Y53088333D02*
X10701184Y53088333D01*
X10320231Y52707380D02*
X10320231Y53469285D01*
X11034517Y53707380D02*
X11367850Y52707380D01*
X11367850Y52707380D02*
X11701183Y53707380D01*
X10399660Y45993000D02*
X10542517Y45945380D01*
X10542517Y45945380D02*
X10780612Y45945380D01*
X10780612Y45945380D02*
X10875850Y45993000D01*
X10875850Y45993000D02*
X10923469Y46040619D01*
X10923469Y46040619D02*
X10971088Y46135857D01*
X10971088Y46135857D02*
X10971088Y46231095D01*
X10971088Y46231095D02*
X10923469Y46326333D01*
X10923469Y46326333D02*
X10875850Y46373952D01*
X10875850Y46373952D02*
X10780612Y46421571D01*
X10780612Y46421571D02*
X10590136Y46469190D01*
X10590136Y46469190D02*
X10494898Y46516809D01*
X10494898Y46516809D02*
X10447279Y46564428D01*
X10447279Y46564428D02*
X10399660Y46659666D01*
X10399660Y46659666D02*
X10399660Y46754904D01*
X10399660Y46754904D02*
X10447279Y46850142D01*
X10447279Y46850142D02*
X10494898Y46897761D01*
X10494898Y46897761D02*
X10590136Y46945380D01*
X10590136Y46945380D02*
X10828231Y46945380D01*
X10828231Y46945380D02*
X10971088Y46897761D01*
X11304422Y46945380D02*
X11542517Y45945380D01*
X11542517Y45945380D02*
X11732993Y46659666D01*
X11732993Y46659666D02*
X11923469Y45945380D01*
X11923469Y45945380D02*
X12161565Y46945380D01*
X11114041Y51678780D02*
X11780707Y50678780D01*
X11780707Y51678780D02*
X11114041Y50678780D01*
X10717088Y44643761D02*
X10621850Y44691380D01*
X10621850Y44691380D02*
X10478993Y44691380D01*
X10478993Y44691380D02*
X10336136Y44643761D01*
X10336136Y44643761D02*
X10240898Y44548523D01*
X10240898Y44548523D02*
X10193279Y44453285D01*
X10193279Y44453285D02*
X10145660Y44262809D01*
X10145660Y44262809D02*
X10145660Y44119952D01*
X10145660Y44119952D02*
X10193279Y43929476D01*
X10193279Y43929476D02*
X10240898Y43834238D01*
X10240898Y43834238D02*
X10336136Y43739000D01*
X10336136Y43739000D02*
X10478993Y43691380D01*
X10478993Y43691380D02*
X10574231Y43691380D01*
X10574231Y43691380D02*
X10717088Y43739000D01*
X10717088Y43739000D02*
X10764707Y43786619D01*
X10764707Y43786619D02*
X10764707Y44119952D01*
X10764707Y44119952D02*
X10574231Y44119952D01*
X11193279Y43691380D02*
X11193279Y44691380D01*
X11193279Y44691380D02*
X11764707Y43691380D01*
X11764707Y43691380D02*
X11764707Y44691380D01*
X12240898Y43691380D02*
X12240898Y44691380D01*
X12240898Y44691380D02*
X12478993Y44691380D01*
X12478993Y44691380D02*
X12621850Y44643761D01*
X12621850Y44643761D02*
X12717088Y44548523D01*
X12717088Y44548523D02*
X12764707Y44453285D01*
X12764707Y44453285D02*
X12812326Y44262809D01*
X12812326Y44262809D02*
X12812326Y44119952D01*
X12812326Y44119952D02*
X12764707Y43929476D01*
X12764707Y43929476D02*
X12717088Y43834238D01*
X12717088Y43834238D02*
X12621850Y43739000D01*
X12621850Y43739000D02*
X12478993Y43691380D01*
X12478993Y43691380D02*
X12240898Y43691380D01*
X11399755Y48900971D02*
X11399755Y48424780D01*
X11066422Y49424780D02*
X11399755Y48900971D01*
X11399755Y48900971D02*
X11733088Y49424780D01*
%TO.C,D16*%
X74085000Y143130000D02*
X74085000Y141630000D01*
X74085000Y141630000D02*
X79485000Y141630000D01*
X76285000Y142880000D02*
X76285000Y141880000D01*
X76385000Y142380000D02*
X77285000Y142880000D01*
X77285000Y142880000D02*
X77285000Y141880000D01*
X77285000Y141880000D02*
X76385000Y142380000D01*
X79485000Y143130000D02*
X74085000Y143130000D01*
X79485000Y141630000D02*
X79485000Y143130000D01*
%TO.C,D303*%
X36350000Y137450000D02*
X36350000Y135950000D01*
X36350000Y135950000D02*
X41750000Y135950000D01*
X38550000Y137200000D02*
X38550000Y136200000D01*
X38650000Y136700000D02*
X39550000Y137200000D01*
X39550000Y137200000D02*
X39550000Y136200000D01*
X39550000Y136200000D02*
X38650000Y136700000D01*
X41750000Y137450000D02*
X36350000Y137450000D01*
X41750000Y135950000D02*
X41750000Y137450000D01*
%TO.C,D15*%
X60505000Y143130000D02*
X60505000Y141630000D01*
X60505000Y141630000D02*
X65905000Y141630000D01*
X62705000Y142880000D02*
X62705000Y141880000D01*
X62805000Y142380000D02*
X63705000Y142880000D01*
X63705000Y142880000D02*
X63705000Y141880000D01*
X63705000Y141880000D02*
X62805000Y142380000D01*
X65905000Y143130000D02*
X60505000Y143130000D01*
X65905000Y141630000D02*
X65905000Y143130000D01*
%TO.C,D19*%
X-3970000Y140260000D02*
X-3970000Y138760000D01*
X-3970000Y138760000D02*
X1430000Y138760000D01*
X-1770000Y140010000D02*
X-1770000Y139010000D01*
X-1670000Y139510000D02*
X-770000Y140010000D01*
X-770000Y140010000D02*
X-770000Y139010000D01*
X-770000Y139010000D02*
X-1670000Y139510000D01*
X1430000Y140260000D02*
X-3970000Y140260000D01*
X1430000Y138760000D02*
X1430000Y140260000D01*
%TO.C,D28*%
X-18655000Y143050000D02*
X-18655000Y141550000D01*
X-18655000Y141550000D02*
X-13255000Y141550000D01*
X-16455000Y142800000D02*
X-16455000Y141800000D01*
X-16355000Y142300000D02*
X-15455000Y142800000D01*
X-15455000Y142800000D02*
X-15455000Y141800000D01*
X-15455000Y141800000D02*
X-16355000Y142300000D01*
X-13255000Y143050000D02*
X-18655000Y143050000D01*
X-13255000Y141550000D02*
X-13255000Y143050000D01*
%TO.C,D5*%
X18140000Y145860000D02*
X18140000Y144360000D01*
X18140000Y144360000D02*
X23540000Y144360000D01*
X20340000Y145610000D02*
X20340000Y144610000D01*
X20440000Y145110000D02*
X21340000Y145610000D01*
X21340000Y145610000D02*
X21340000Y144610000D01*
X21340000Y144610000D02*
X20440000Y145110000D01*
X23540000Y145860000D02*
X18140000Y145860000D01*
X23540000Y144360000D02*
X23540000Y145860000D01*
%TO.C,D24*%
X62605000Y140420000D02*
X62605000Y138920000D01*
X62605000Y138920000D02*
X68005000Y138920000D01*
X64805000Y140170000D02*
X64805000Y139170000D01*
X64905000Y139670000D02*
X65805000Y140170000D01*
X65805000Y140170000D02*
X65805000Y139170000D01*
X65805000Y139170000D02*
X64905000Y139670000D01*
X68005000Y140420000D02*
X62605000Y140420000D01*
X68005000Y138920000D02*
X68005000Y140420000D01*
%TO.C,D14*%
X46185000Y143180000D02*
X46185000Y141680000D01*
X46185000Y141680000D02*
X51585000Y141680000D01*
X48385000Y142930000D02*
X48385000Y141930000D01*
X48485000Y142430000D02*
X49385000Y142930000D01*
X49385000Y142930000D02*
X49385000Y141930000D01*
X49385000Y141930000D02*
X48485000Y142430000D01*
X51585000Y143180000D02*
X46185000Y143180000D01*
X51585000Y141680000D02*
X51585000Y143180000D01*
%TO.C,D302*%
X-2095000Y137380000D02*
X-2095000Y135880000D01*
X-2095000Y135880000D02*
X3305000Y135880000D01*
X105000Y137130000D02*
X105000Y136130000D01*
X205000Y136630000D02*
X1105000Y137130000D01*
X1105000Y137130000D02*
X1105000Y136130000D01*
X1105000Y136130000D02*
X205000Y136630000D01*
X3305000Y137380000D02*
X-2095000Y137380000D01*
X3305000Y135880000D02*
X3305000Y137380000D01*
%TO.C,D21*%
X21955000Y140330000D02*
X21955000Y138830000D01*
X21955000Y138830000D02*
X27355000Y138830000D01*
X24155000Y140080000D02*
X24155000Y139080000D01*
X24255000Y139580000D02*
X25155000Y140080000D01*
X25155000Y140080000D02*
X25155000Y139080000D01*
X25155000Y139080000D02*
X24255000Y139580000D01*
X27355000Y140330000D02*
X21955000Y140330000D01*
X27355000Y138830000D02*
X27355000Y140330000D01*
%TO.C,D20*%
X8980000Y140250000D02*
X8980000Y138750000D01*
X8980000Y138750000D02*
X14380000Y138750000D01*
X11180000Y140000000D02*
X11180000Y139000000D01*
X11280000Y139500000D02*
X12180000Y140000000D01*
X12180000Y140000000D02*
X12180000Y139000000D01*
X12180000Y139000000D02*
X11280000Y139500000D01*
X14380000Y140250000D02*
X8980000Y140250000D01*
X14380000Y138750000D02*
X14380000Y140250000D01*
%TO.C,D26*%
X-27985000Y137340000D02*
X-27985000Y135840000D01*
X-27985000Y135840000D02*
X-22585000Y135840000D01*
X-25785000Y137090000D02*
X-25785000Y136090000D01*
X-25685000Y136590000D02*
X-24785000Y137090000D01*
X-24785000Y137090000D02*
X-24785000Y136090000D01*
X-24785000Y136090000D02*
X-25685000Y136590000D01*
X-22585000Y137340000D02*
X-27985000Y137340000D01*
X-22585000Y135840000D02*
X-22585000Y137340000D01*
%TO.C,D13*%
X32880000Y143030000D02*
X32880000Y141530000D01*
X32880000Y141530000D02*
X38280000Y141530000D01*
X35080000Y142780000D02*
X35080000Y141780000D01*
X35180000Y142280000D02*
X36080000Y142780000D01*
X36080000Y142780000D02*
X36080000Y141780000D01*
X36080000Y141780000D02*
X35180000Y142280000D01*
X38280000Y143030000D02*
X32880000Y143030000D01*
X38280000Y141530000D02*
X38280000Y143030000D01*
%TO.C,D1*%
X-33815000Y145920000D02*
X-33815000Y144420000D01*
X-33815000Y144420000D02*
X-28415000Y144420000D01*
X-31615000Y145670000D02*
X-31615000Y144670000D01*
X-31515000Y145170000D02*
X-30615000Y145670000D01*
X-30615000Y145670000D02*
X-30615000Y144670000D01*
X-30615000Y144670000D02*
X-31515000Y145170000D01*
X-28415000Y145920000D02*
X-33815000Y145920000D01*
X-28415000Y144420000D02*
X-28415000Y145920000D01*
%TO.C,D102*%
X-31985000Y143060000D02*
X-31985000Y141560000D01*
X-31985000Y141560000D02*
X-26585000Y141560000D01*
X-29785000Y142810000D02*
X-29785000Y141810000D01*
X-29685000Y142310000D02*
X-28785000Y142810000D01*
X-28785000Y142810000D02*
X-28785000Y141810000D01*
X-28785000Y141810000D02*
X-29685000Y142310000D01*
X-26585000Y143060000D02*
X-31985000Y143060000D01*
X-26585000Y141560000D02*
X-26585000Y143060000D01*
%TO.C,D23*%
X48155000Y140370000D02*
X48155000Y138870000D01*
X48155000Y138870000D02*
X53555000Y138870000D01*
X50355000Y140120000D02*
X50355000Y139120000D01*
X50455000Y139620000D02*
X51355000Y140120000D01*
X51355000Y140120000D02*
X51355000Y139120000D01*
X51355000Y139120000D02*
X50455000Y139620000D01*
X53555000Y140370000D02*
X48155000Y140370000D01*
X53555000Y138870000D02*
X53555000Y140370000D01*
%TO.C,D9*%
X72105000Y145940000D02*
X72105000Y144440000D01*
X72105000Y144440000D02*
X77505000Y144440000D01*
X74305000Y145690000D02*
X74305000Y144690000D01*
X74405000Y145190000D02*
X75305000Y145690000D01*
X75305000Y145690000D02*
X75305000Y144690000D01*
X75305000Y144690000D02*
X74405000Y145190000D01*
X77505000Y145940000D02*
X72105000Y145940000D01*
X77505000Y144440000D02*
X77505000Y145940000D01*
D11*
%TO.C,J1*%
X16729500Y51520000D02*
X16729500Y45520000D01*
X16729500Y45520000D02*
X18267500Y45520000D01*
X18267500Y55095000D02*
X18267500Y51520000D01*
X18267500Y55095000D02*
X20117500Y55095000D01*
X18267500Y51520000D02*
X16729500Y51520000D01*
X18267500Y41945000D02*
X18267500Y45520000D01*
X20117500Y55095000D02*
X20117500Y57895000D01*
X20380000Y41945000D02*
X18267500Y41945000D01*
X20380000Y36920000D02*
X20380000Y41945000D01*
X20380000Y36920000D02*
X29305000Y36920000D01*
X29305000Y36920000D02*
X29305000Y41945000D01*
X29567500Y57895000D02*
X20117500Y57895000D01*
X29567500Y55095000D02*
X29567500Y57895000D01*
X29567500Y55095000D02*
X31417500Y55095000D01*
X31417500Y55095000D02*
X31417500Y53245000D01*
X31417500Y41945000D02*
X29305000Y41945000D01*
X31417500Y41945000D02*
X31417500Y43795000D01*
X34217500Y53245000D02*
X31417500Y53245000D01*
X34217500Y43795000D02*
X31417500Y43795000D01*
X34217500Y43795000D02*
X34217500Y53245000D01*
D10*
%TO.C,D29*%
X64550000Y137510000D02*
X64550000Y136010000D01*
X64550000Y136010000D02*
X69950000Y136010000D01*
X66750000Y137260000D02*
X66750000Y136260000D01*
X66850000Y136760000D02*
X67750000Y137260000D01*
X67750000Y137260000D02*
X67750000Y136260000D01*
X67750000Y136260000D02*
X66850000Y136760000D01*
X69950000Y137510000D02*
X64550000Y137510000D01*
X69950000Y136010000D02*
X69950000Y137510000D01*
%TO.C,D101*%
X85135000Y146060000D02*
X85135000Y144560000D01*
X85135000Y144560000D02*
X90535000Y144560000D01*
X87335000Y145810000D02*
X87335000Y144810000D01*
X87435000Y145310000D02*
X88335000Y145810000D01*
X88335000Y145810000D02*
X88335000Y144810000D01*
X88335000Y144810000D02*
X87435000Y145310000D01*
X90535000Y146060000D02*
X85135000Y146060000D01*
X90535000Y144560000D02*
X90535000Y146060000D01*
%TO.C,D22*%
X34615000Y140360000D02*
X34615000Y138860000D01*
X34615000Y138860000D02*
X40015000Y138860000D01*
X36815000Y140110000D02*
X36815000Y139110000D01*
X36915000Y139610000D02*
X37815000Y140110000D01*
X37815000Y140110000D02*
X37815000Y139110000D01*
X37815000Y139110000D02*
X36915000Y139610000D01*
X40015000Y140360000D02*
X34615000Y140360000D01*
X40015000Y138860000D02*
X40015000Y140360000D01*
%TO.C,D301*%
X-30045000Y140310000D02*
X-30045000Y138810000D01*
X-30045000Y138810000D02*
X-24645000Y138810000D01*
X-27845000Y140060000D02*
X-27845000Y139060000D01*
X-27745000Y139560000D02*
X-26845000Y140060000D01*
X-26845000Y140060000D02*
X-26845000Y139060000D01*
X-26845000Y139060000D02*
X-27745000Y139560000D01*
X-24645000Y140310000D02*
X-30045000Y140310000D01*
X-24645000Y138810000D02*
X-24645000Y140310000D01*
%TO.C,D27*%
X93090000Y135150000D02*
X93090000Y133650000D01*
X93090000Y133650000D02*
X98490000Y133650000D01*
X95290000Y134900000D02*
X95290000Y133900000D01*
X95390000Y134400000D02*
X96290000Y134900000D01*
X96290000Y134900000D02*
X96290000Y133900000D01*
X96290000Y133900000D02*
X95390000Y134400000D01*
X98490000Y135150000D02*
X93090000Y135150000D01*
X98490000Y133650000D02*
X98490000Y135150000D01*
%TO.C,D12*%
X20175000Y142970000D02*
X20175000Y141470000D01*
X20175000Y141470000D02*
X25575000Y141470000D01*
X22375000Y142720000D02*
X22375000Y141720000D01*
X22475000Y142220000D02*
X23375000Y142720000D01*
X23375000Y142720000D02*
X23375000Y141720000D01*
X23375000Y141720000D02*
X22475000Y142220000D01*
X25575000Y142970000D02*
X20175000Y142970000D01*
X25575000Y141470000D02*
X25575000Y142970000D01*
%TO.C,D3*%
X-7535000Y145810000D02*
X-7535000Y144310000D01*
X-7535000Y144310000D02*
X-2135000Y144310000D01*
X-5335000Y145560000D02*
X-5335000Y144560000D01*
X-5235000Y145060000D02*
X-4335000Y145560000D01*
X-4335000Y145560000D02*
X-4335000Y144560000D01*
X-4335000Y144560000D02*
X-5235000Y145060000D01*
X-2135000Y145810000D02*
X-7535000Y145810000D01*
X-2135000Y144310000D02*
X-2135000Y145810000D01*
%TO.C,D30*%
X10705000Y137410000D02*
X10705000Y135910000D01*
X10705000Y135910000D02*
X16105000Y135910000D01*
X12905000Y137160000D02*
X12905000Y136160000D01*
X13005000Y136660000D02*
X13905000Y137160000D01*
X13905000Y137160000D02*
X13905000Y136160000D01*
X13905000Y136160000D02*
X13005000Y136660000D01*
X16105000Y137410000D02*
X10705000Y137410000D01*
X16105000Y135910000D02*
X16105000Y137410000D01*
%TO.C,D8*%
X58445000Y145890000D02*
X58445000Y144390000D01*
X58445000Y144390000D02*
X63845000Y144390000D01*
X60645000Y145640000D02*
X60645000Y144640000D01*
X60745000Y145140000D02*
X61645000Y145640000D01*
X61645000Y145640000D02*
X61645000Y144640000D01*
X61645000Y144640000D02*
X60745000Y145140000D01*
X63845000Y145890000D02*
X58445000Y145890000D01*
X63845000Y144390000D02*
X63845000Y145890000D01*
%TO.C,SW33*%
X114906250Y133603750D02*
X114906250Y134397500D01*
X114906250Y143922500D02*
X114906250Y144716250D01*
X114906250Y144716250D02*
X114112500Y144716250D01*
X114112500Y133603750D02*
X114906250Y133603750D01*
X104587500Y133603750D02*
X103793750Y133603750D01*
X104587500Y144716250D02*
X103793750Y144716250D01*
X103793750Y133603750D02*
X103793750Y134397500D01*
X103793750Y144716250D02*
X103793750Y143922500D01*
%TO.C,D201*%
X-15120000Y137380000D02*
X-15120000Y135880000D01*
X-15120000Y135880000D02*
X-9720000Y135880000D01*
X-12920000Y137130000D02*
X-12920000Y136130000D01*
X-12820000Y136630000D02*
X-11920000Y137130000D01*
X-11920000Y137130000D02*
X-11920000Y136130000D01*
X-11920000Y136130000D02*
X-12820000Y136630000D01*
X-9720000Y137380000D02*
X-15120000Y137380000D01*
X-9720000Y135880000D02*
X-9720000Y137380000D01*
%TO.C,D34*%
X89150000Y140440000D02*
X89150000Y138940000D01*
X89150000Y138940000D02*
X94550000Y138940000D01*
X91350000Y140190000D02*
X91350000Y139190000D01*
X91450000Y139690000D02*
X92350000Y140190000D01*
X92350000Y140190000D02*
X92350000Y139190000D01*
X92350000Y139190000D02*
X91450000Y139690000D01*
X94550000Y140440000D02*
X89150000Y140440000D01*
X94550000Y138940000D02*
X94550000Y140440000D01*
%TO.C,D4*%
X5210000Y145830000D02*
X5210000Y144330000D01*
X5210000Y144330000D02*
X10610000Y144330000D01*
X7410000Y145580000D02*
X7410000Y144580000D01*
X7510000Y145080000D02*
X8410000Y145580000D01*
X8410000Y145580000D02*
X8410000Y144580000D01*
X8410000Y144580000D02*
X7510000Y145080000D01*
X10610000Y145830000D02*
X5210000Y145830000D01*
X10610000Y144330000D02*
X10610000Y145830000D01*
%TO.C,D6*%
X31000000Y145910000D02*
X31000000Y144410000D01*
X31000000Y144410000D02*
X36400000Y144410000D01*
X33200000Y145660000D02*
X33200000Y144660000D01*
X33300000Y145160000D02*
X34200000Y145660000D01*
X34200000Y145660000D02*
X34200000Y144660000D01*
X34200000Y144660000D02*
X33300000Y145160000D01*
X36400000Y145910000D02*
X31000000Y145910000D01*
X36400000Y144410000D02*
X36400000Y145910000D01*
%TO.C,D25*%
X76060000Y140460000D02*
X76060000Y138960000D01*
X76060000Y138960000D02*
X81460000Y138960000D01*
X78260000Y140210000D02*
X78260000Y139210000D01*
X78360000Y139710000D02*
X79260000Y140210000D01*
X79260000Y140210000D02*
X79260000Y139210000D01*
X79260000Y139210000D02*
X78360000Y139710000D01*
X81460000Y140460000D02*
X76060000Y140460000D01*
X81460000Y138960000D02*
X81460000Y140460000D01*
%TO.C,D31*%
X50255000Y137450000D02*
X50255000Y135950000D01*
X50255000Y135950000D02*
X55655000Y135950000D01*
X52455000Y137200000D02*
X52455000Y136200000D01*
X52555000Y136700000D02*
X53455000Y137200000D01*
X53455000Y137200000D02*
X53455000Y136200000D01*
X53455000Y136200000D02*
X52555000Y136700000D01*
X55655000Y137450000D02*
X50255000Y137450000D01*
X55655000Y135950000D02*
X55655000Y137450000D01*
%TO.C,D10*%
X-5885000Y143060000D02*
X-5885000Y141560000D01*
X-5885000Y141560000D02*
X-485000Y141560000D01*
X-3685000Y142810000D02*
X-3685000Y141810000D01*
X-3585000Y142310000D02*
X-2685000Y142810000D01*
X-2685000Y142810000D02*
X-2685000Y141810000D01*
X-2685000Y141810000D02*
X-3585000Y142310000D01*
X-485000Y143060000D02*
X-5885000Y143060000D01*
X-485000Y141560000D02*
X-485000Y143060000D01*
%TO.C,D7*%
X44095000Y145930000D02*
X44095000Y144430000D01*
X44095000Y144430000D02*
X49495000Y144430000D01*
X46295000Y145680000D02*
X46295000Y144680000D01*
X46395000Y145180000D02*
X47295000Y145680000D01*
X47295000Y145680000D02*
X47295000Y144680000D01*
X47295000Y144680000D02*
X46395000Y145180000D01*
X49495000Y145930000D02*
X44095000Y145930000D01*
X49495000Y144430000D02*
X49495000Y145930000D01*
%TO.C,D33*%
X91140000Y137630000D02*
X91140000Y136130000D01*
X91140000Y136130000D02*
X96540000Y136130000D01*
X93340000Y137380000D02*
X93340000Y136380000D01*
X93440000Y136880000D02*
X94340000Y137380000D01*
X94340000Y137380000D02*
X94340000Y136380000D01*
X94340000Y136380000D02*
X93440000Y136880000D01*
X96540000Y137630000D02*
X91140000Y137630000D01*
X96540000Y136130000D02*
X96540000Y137630000D01*
%TO.C,D202*%
X77915000Y137460000D02*
X77915000Y135960000D01*
X77915000Y135960000D02*
X83315000Y135960000D01*
X80115000Y137210000D02*
X80115000Y136210000D01*
X80215000Y136710000D02*
X81115000Y137210000D01*
X81115000Y137210000D02*
X81115000Y136210000D01*
X81115000Y136210000D02*
X80215000Y136710000D01*
X83315000Y137460000D02*
X77915000Y137460000D01*
X83315000Y135960000D02*
X83315000Y137460000D01*
%TO.C,D2*%
X-20555000Y145860000D02*
X-20555000Y144360000D01*
X-20555000Y144360000D02*
X-15155000Y144360000D01*
X-18355000Y145610000D02*
X-18355000Y144610000D01*
X-18255000Y145110000D02*
X-17355000Y145610000D01*
X-17355000Y145610000D02*
X-17355000Y144610000D01*
X-17355000Y144610000D02*
X-18255000Y145110000D01*
X-15155000Y145860000D02*
X-20555000Y145860000D01*
X-15155000Y144360000D02*
X-15155000Y145860000D01*
%TO.C,D11*%
X7150000Y143010000D02*
X7150000Y141510000D01*
X7150000Y141510000D02*
X12550000Y141510000D01*
X9350000Y142760000D02*
X9350000Y141760000D01*
X9450000Y142260000D02*
X10350000Y142760000D01*
X10350000Y142760000D02*
X10350000Y141760000D01*
X10350000Y141760000D02*
X9450000Y142260000D01*
X12550000Y143010000D02*
X7150000Y143010000D01*
X12550000Y141510000D02*
X12550000Y143010000D01*
%TO.C,D17*%
X87110000Y143090000D02*
X87110000Y141590000D01*
X87110000Y141590000D02*
X92510000Y141590000D01*
X89310000Y142840000D02*
X89310000Y141840000D01*
X89410000Y142340000D02*
X90310000Y142840000D01*
X90310000Y142840000D02*
X90310000Y141840000D01*
X90310000Y141840000D02*
X89410000Y142340000D01*
X92510000Y143090000D02*
X87110000Y143090000D01*
X92510000Y141590000D02*
X92510000Y143090000D01*
%TO.C,D32*%
X23890000Y137400000D02*
X23890000Y135900000D01*
X23890000Y135900000D02*
X29290000Y135900000D01*
X26090000Y137150000D02*
X26090000Y136150000D01*
X26190000Y136650000D02*
X27090000Y137150000D01*
X27090000Y137150000D02*
X27090000Y136150000D01*
X27090000Y136150000D02*
X26190000Y136650000D01*
X29290000Y137400000D02*
X23890000Y137400000D01*
X29290000Y135900000D02*
X29290000Y137400000D01*
%TO.C,D18*%
X-17055000Y140250000D02*
X-17055000Y138750000D01*
X-17055000Y138750000D02*
X-11655000Y138750000D01*
X-14855000Y140000000D02*
X-14855000Y139000000D01*
X-14755000Y139500000D02*
X-13855000Y140000000D01*
X-13855000Y140000000D02*
X-13855000Y139000000D01*
X-13855000Y139000000D02*
X-14755000Y139500000D01*
X-11655000Y140250000D02*
X-17055000Y140250000D01*
X-11655000Y138750000D02*
X-11655000Y140250000D01*
%TD*%
D12*
%TO.C,D16*%
X72975000Y142380000D03*
D13*
X80595000Y142380000D03*
%TD*%
D12*
%TO.C,D303*%
X35240000Y136700000D03*
D13*
X42860000Y136700000D03*
%TD*%
D12*
%TO.C,D15*%
X59395000Y142380000D03*
D13*
X67015000Y142380000D03*
%TD*%
D12*
%TO.C,D19*%
X-5080000Y139510000D03*
D13*
X2540000Y139510000D03*
%TD*%
D12*
%TO.C,D28*%
X-19765000Y142300000D03*
D13*
X-12145000Y142300000D03*
%TD*%
D12*
%TO.C,D5*%
X17030000Y145110000D03*
D13*
X24650000Y145110000D03*
%TD*%
D12*
%TO.C,D24*%
X61495000Y139670000D03*
D13*
X69115000Y139670000D03*
%TD*%
D12*
%TO.C,D14*%
X45075000Y142430000D03*
D13*
X52695000Y142430000D03*
%TD*%
D12*
%TO.C,D302*%
X-3205000Y136630000D03*
D13*
X4415000Y136630000D03*
%TD*%
D12*
%TO.C,D21*%
X20845000Y139580000D03*
D13*
X28465000Y139580000D03*
%TD*%
D12*
%TO.C,D20*%
X7870000Y139500000D03*
D13*
X15490000Y139500000D03*
%TD*%
D12*
%TO.C,D26*%
X-29095000Y136590000D03*
D13*
X-21475000Y136590000D03*
%TD*%
D12*
%TO.C,D13*%
X31770000Y142280000D03*
D13*
X39390000Y142280000D03*
%TD*%
D12*
%TO.C,D1*%
X-34925000Y145170000D03*
D13*
X-27305000Y145170000D03*
%TD*%
D12*
%TO.C,D102*%
X-33095000Y142310000D03*
D13*
X-25475000Y142310000D03*
%TD*%
D12*
%TO.C,D23*%
X47045000Y139620000D03*
D13*
X54665000Y139620000D03*
%TD*%
D12*
%TO.C,D9*%
X70995000Y145190000D03*
D13*
X78615000Y145190000D03*
%TD*%
D12*
%TO.C,D29*%
X63440000Y136760000D03*
D13*
X71060000Y136760000D03*
%TD*%
D12*
%TO.C,D101*%
X84025000Y145310000D03*
D13*
X91645000Y145310000D03*
%TD*%
D12*
%TO.C,D22*%
X33505000Y139610000D03*
D13*
X41125000Y139610000D03*
%TD*%
D12*
%TO.C,D301*%
X-31155000Y139560000D03*
D13*
X-23535000Y139560000D03*
%TD*%
D12*
%TO.C,D27*%
X91980000Y134400000D03*
D13*
X99600000Y134400000D03*
%TD*%
D12*
%TO.C,D12*%
X19065000Y142220000D03*
D13*
X26685000Y142220000D03*
%TD*%
D14*
%TO.C,SW32*%
X1795000Y48100000D03*
%TD*%
D12*
%TO.C,TB1*%
X19762500Y35910000D03*
D13*
X22302500Y35910000D03*
X24842500Y35910000D03*
X27382500Y35910000D03*
X29922500Y35910000D03*
%TD*%
D12*
%TO.C,D3*%
X-8645000Y145060000D03*
D13*
X-1025000Y145060000D03*
%TD*%
D12*
%TO.C,D30*%
X9595000Y136660000D03*
D13*
X17215000Y136660000D03*
%TD*%
D12*
%TO.C,D8*%
X57335000Y145140000D03*
D13*
X64955000Y145140000D03*
%TD*%
D12*
%TO.C,D201*%
X-16230000Y136630000D03*
D13*
X-8610000Y136630000D03*
%TD*%
D12*
%TO.C,D34*%
X88040000Y139690000D03*
D13*
X95660000Y139690000D03*
%TD*%
D12*
%TO.C,D4*%
X4100000Y145080000D03*
D13*
X11720000Y145080000D03*
%TD*%
D12*
%TO.C,D6*%
X29890000Y145160000D03*
D13*
X37510000Y145160000D03*
%TD*%
D12*
%TO.C,D25*%
X74950000Y139710000D03*
D13*
X82570000Y139710000D03*
%TD*%
D12*
%TO.C,D31*%
X49145000Y136700000D03*
D13*
X56765000Y136700000D03*
%TD*%
D12*
%TO.C,D10*%
X-6995000Y142310000D03*
D13*
X625000Y142310000D03*
%TD*%
D12*
%TO.C,D7*%
X42985000Y145180000D03*
D13*
X50605000Y145180000D03*
%TD*%
D12*
%TO.C,D33*%
X90030000Y136880000D03*
D13*
X97650000Y136880000D03*
%TD*%
D12*
%TO.C,D202*%
X76805000Y136710000D03*
D13*
X84425000Y136710000D03*
%TD*%
D12*
%TO.C,D2*%
X-21665000Y145110000D03*
D13*
X-14045000Y145110000D03*
%TD*%
D14*
%TO.C,SW303*%
X58950000Y48100000D03*
%TD*%
D12*
%TO.C,D11*%
X6040000Y142260000D03*
D13*
X13660000Y142260000D03*
%TD*%
D12*
%TO.C,D17*%
X86000000Y142340000D03*
D13*
X93620000Y142340000D03*
%TD*%
D12*
%TO.C,D32*%
X22780000Y136650000D03*
D13*
X30400000Y136650000D03*
%TD*%
D12*
%TO.C,D18*%
X-18165000Y139500000D03*
D13*
X-10545000Y139500000D03*
%TD*%
M02*
