M48
; DRILL file {KiCad 7.0.8} date 2024 May 12, Sunday 08:22:57
; FORMAT={-:-/ absolute / metric / decimal}
; #@! TF.CreationDate,2024-05-12T08:22:57+09:00
; #@! TF.GenerationSoftware,Kicad,Pcbnew,7.0.8
; #@! TF.FileFunction,NonPlated,1,2,NPTH
FMAT,2
METRIC
; #@! TA.AperFunction,NonPlated,NPTH,ComponentDrill
T1C1.900
; #@! TA.AperFunction,NonPlated,NPTH,ComponentDrill
T2C3.000
; #@! TA.AperFunction,NonPlated,NPTH,ComponentDrill
T3C4.100
; #@! TA.AperFunction,NonPlated,NPTH,ComponentDrill
T4C5.000
%
G90
G05
T1
X-65.98Y119.3
X-65.98Y100.25
X-65.98Y81.2
X-65.98Y62.15
X-55.82Y119.3
X-55.82Y100.25
X-55.82Y81.2
X-55.82Y62.15
X-46.93Y119.3
X-46.93Y100.25
X-46.93Y81.2
X-46.93Y62.15
X-36.77Y119.3
X-36.77Y100.25
X-36.77Y81.2
X-36.77Y62.15
X-27.88Y119.3
X-27.88Y100.25
X-27.88Y81.2
X-27.88Y62.15
X-17.72Y119.3
X-17.72Y100.25
X-17.72Y81.2
X-17.72Y62.15
X-9.255Y43.1
X-8.835Y62.16
X-8.83Y119.3
X-8.83Y100.25
X-8.83Y81.2
X1.325Y62.16
X1.33Y119.3
X1.33Y100.25
X1.33Y81.2
X1.745Y43.1
X10.22Y119.3
X10.22Y100.25
X10.22Y81.2
X20.38Y119.3
X20.38Y100.25
X20.38Y81.2
X29.27Y119.3
X29.27Y100.25
X29.27Y81.2
X39.43Y119.3
X39.43Y100.25
X39.43Y81.2
X47.9Y43.1
X48.32Y119.3
X48.32Y100.25
X48.32Y81.2
X48.32Y62.15
X58.48Y119.3
X58.48Y100.25
X58.48Y81.2
X58.48Y62.15
X58.9Y43.1
X67.37Y119.3
X67.37Y100.25
X67.37Y81.2
X67.37Y62.15
X77.53Y119.3
X77.53Y100.25
X77.53Y81.2
X77.53Y62.15
X86.42Y119.3
X86.42Y100.25
X86.42Y81.2
X86.42Y62.15
X96.58Y119.3
X96.58Y100.25
X96.58Y81.2
X96.58Y62.15
X105.47Y119.3
X105.47Y100.25
X105.47Y81.2
X105.47Y62.15
X115.63Y119.3
X115.63Y100.25
X115.63Y81.2
X115.63Y62.15
T2
X-64.71Y121.84
X-64.71Y102.79
X-64.71Y83.74
X-64.71Y64.69
X-58.36Y124.38
X-58.36Y105.33
X-58.36Y86.28
X-58.36Y67.23
X-45.66Y121.84
X-45.66Y102.79
X-45.66Y83.74
X-45.66Y64.69
X-39.31Y124.38
X-39.31Y105.33
X-39.31Y86.28
X-39.31Y67.23
X-26.61Y121.84
X-26.61Y102.79
X-26.61Y83.74
X-26.61Y64.69
X-20.26Y124.38
X-20.26Y105.33
X-20.26Y86.28
X-20.26Y67.23
X-8.755Y39.4
X-7.565Y64.7
X-7.56Y121.84
X-7.56Y102.79
X-7.56Y83.74
X-3.755Y37.2
X-1.215Y67.24
X-1.21Y124.38
X-1.21Y105.33
X-1.21Y86.28
X11.49Y121.84
X11.49Y102.79
X11.49Y83.74
X17.84Y124.38
X17.84Y105.33
X17.84Y86.28
X30.54Y121.84
X30.54Y102.79
X30.54Y83.74
X36.89Y124.38
X36.89Y105.33
X36.89Y86.28
X48.4Y39.4
X49.59Y121.84
X49.59Y102.79
X49.59Y83.74
X49.59Y64.69
X53.4Y37.2
X55.94Y124.38
X55.94Y105.33
X55.94Y86.28
X55.94Y67.23
X68.64Y121.84
X68.64Y102.79
X68.64Y83.74
X68.64Y64.69
X74.99Y124.38
X74.99Y105.33
X74.99Y86.28
X74.99Y67.23
X87.69Y121.84
X87.69Y102.79
X87.69Y83.74
X87.69Y64.69
X94.04Y124.38
X94.04Y105.33
X94.04Y86.28
X94.04Y67.23
X106.74Y121.84
X106.74Y102.79
X106.74Y83.74
X106.74Y64.69
X113.09Y124.38
X113.09Y105.33
X113.09Y86.28
X113.09Y67.23
T3
X-60.9Y119.3
X-60.9Y100.25
X-60.9Y81.2
X-60.9Y62.15
X-41.85Y119.3
X-41.85Y100.25
X-41.85Y81.2
X-41.85Y62.15
X-22.8Y119.3
X-22.8Y100.25
X-22.8Y81.2
X-22.8Y62.15
X-3.755Y62.16
X-3.75Y119.3
X-3.75Y100.25
X-3.75Y81.2
X15.3Y119.3
X15.3Y100.25
X15.3Y81.2
X34.35Y119.3
X34.35Y100.25
X34.35Y81.2
X53.4Y119.3
X53.4Y100.25
X53.4Y81.2
X53.4Y62.15
X72.45Y119.3
X72.45Y100.25
X72.45Y81.2
X72.45Y62.15
X91.5Y119.3
X91.5Y100.25
X91.5Y81.2
X91.5Y62.15
X110.55Y119.3
X110.55Y100.25
X110.55Y81.2
X110.55Y62.15
T4
X-3.755Y43.1
X53.4Y43.1
T0
M30
