%TF.GenerationSoftware,KiCad,Pcbnew,7.0.8*%
%TF.CreationDate,2024-05-12T08:22:54+09:00*%
%TF.ProjectId,ckb6,636b6236-2e6b-4696-9361-645f70636258,rev?*%
%TF.SameCoordinates,Original*%
%TF.FileFunction,Legend,Bot*%
%TF.FilePolarity,Positive*%
%FSLAX46Y46*%
G04 Gerber Fmt 4.6, Leading zero omitted, Abs format (unit mm)*
G04 Created by KiCad (PCBNEW 7.0.8) date 2024-05-12 08:22:54*
%MOMM*%
%LPD*%
G01*
G04 APERTURE LIST*
%ADD10C,0.150000*%
%ADD11C,0.400000*%
%ADD12C,0.500000*%
%ADD13C,1.000000*%
%ADD14C,3.500000*%
%ADD15C,3.000000*%
%ADD16C,0.800000*%
%ADD17C,0.300000*%
%ADD18C,0.120000*%
G04 APERTURE END LIST*
D10*
X115134649Y38207800D02*
X115229887Y38160180D01*
X115229887Y38160180D02*
X115420363Y38160180D01*
X115420363Y38160180D02*
X115515601Y38207800D01*
X115515601Y38207800D02*
X115563220Y38255419D01*
X115563220Y38255419D02*
X115610839Y38350657D01*
X115610839Y38350657D02*
X115610839Y38636371D01*
X115610839Y38636371D02*
X115563220Y38731609D01*
X115563220Y38731609D02*
X115515601Y38779228D01*
X115515601Y38779228D02*
X115420363Y38826847D01*
X115420363Y38826847D02*
X115229887Y38826847D01*
X115229887Y38826847D02*
X115134649Y38779228D01*
X114706077Y38160180D02*
X114706077Y39160180D01*
X114610839Y38541133D02*
X114325125Y38160180D01*
X114325125Y38826847D02*
X114706077Y38445895D01*
X113896553Y38160180D02*
X113896553Y39160180D01*
X113896553Y38779228D02*
X113801315Y38826847D01*
X113801315Y38826847D02*
X113610839Y38826847D01*
X113610839Y38826847D02*
X113515601Y38779228D01*
X113515601Y38779228D02*
X113467982Y38731609D01*
X113467982Y38731609D02*
X113420363Y38636371D01*
X113420363Y38636371D02*
X113420363Y38350657D01*
X113420363Y38350657D02*
X113467982Y38255419D01*
X113467982Y38255419D02*
X113515601Y38207800D01*
X113515601Y38207800D02*
X113610839Y38160180D01*
X113610839Y38160180D02*
X113801315Y38160180D01*
X113801315Y38160180D02*
X113896553Y38207800D01*
X112563220Y39160180D02*
X112753696Y39160180D01*
X112753696Y39160180D02*
X112848934Y39112561D01*
X112848934Y39112561D02*
X112896553Y39064942D01*
X112896553Y39064942D02*
X112991791Y38922085D01*
X112991791Y38922085D02*
X113039410Y38731609D01*
X113039410Y38731609D02*
X113039410Y38350657D01*
X113039410Y38350657D02*
X112991791Y38255419D01*
X112991791Y38255419D02*
X112944172Y38207800D01*
X112944172Y38207800D02*
X112848934Y38160180D01*
X112848934Y38160180D02*
X112658458Y38160180D01*
X112658458Y38160180D02*
X112563220Y38207800D01*
X112563220Y38207800D02*
X112515601Y38255419D01*
X112515601Y38255419D02*
X112467982Y38350657D01*
X112467982Y38350657D02*
X112467982Y38588752D01*
X112467982Y38588752D02*
X112515601Y38683990D01*
X112515601Y38683990D02*
X112563220Y38731609D01*
X112563220Y38731609D02*
X112658458Y38779228D01*
X112658458Y38779228D02*
X112848934Y38779228D01*
X112848934Y38779228D02*
X112944172Y38731609D01*
X112944172Y38731609D02*
X112991791Y38683990D01*
X112991791Y38683990D02*
X113039410Y38588752D01*
X110848934Y38160180D02*
X110848934Y39160180D01*
X110848934Y38207800D02*
X110944172Y38160180D01*
X110944172Y38160180D02*
X111134648Y38160180D01*
X111134648Y38160180D02*
X111229886Y38207800D01*
X111229886Y38207800D02*
X111277505Y38255419D01*
X111277505Y38255419D02*
X111325124Y38350657D01*
X111325124Y38350657D02*
X111325124Y38636371D01*
X111325124Y38636371D02*
X111277505Y38731609D01*
X111277505Y38731609D02*
X111229886Y38779228D01*
X111229886Y38779228D02*
X111134648Y38826847D01*
X111134648Y38826847D02*
X110944172Y38826847D01*
X110944172Y38826847D02*
X110848934Y38779228D01*
X109991791Y38207800D02*
X110087029Y38160180D01*
X110087029Y38160180D02*
X110277505Y38160180D01*
X110277505Y38160180D02*
X110372743Y38207800D01*
X110372743Y38207800D02*
X110420362Y38303038D01*
X110420362Y38303038D02*
X110420362Y38683990D01*
X110420362Y38683990D02*
X110372743Y38779228D01*
X110372743Y38779228D02*
X110277505Y38826847D01*
X110277505Y38826847D02*
X110087029Y38826847D01*
X110087029Y38826847D02*
X109991791Y38779228D01*
X109991791Y38779228D02*
X109944172Y38683990D01*
X109944172Y38683990D02*
X109944172Y38588752D01*
X109944172Y38588752D02*
X110420362Y38493514D01*
X109563219Y38207800D02*
X109467981Y38160180D01*
X109467981Y38160180D02*
X109277505Y38160180D01*
X109277505Y38160180D02*
X109182267Y38207800D01*
X109182267Y38207800D02*
X109134648Y38303038D01*
X109134648Y38303038D02*
X109134648Y38350657D01*
X109134648Y38350657D02*
X109182267Y38445895D01*
X109182267Y38445895D02*
X109277505Y38493514D01*
X109277505Y38493514D02*
X109420362Y38493514D01*
X109420362Y38493514D02*
X109515600Y38541133D01*
X109515600Y38541133D02*
X109563219Y38636371D01*
X109563219Y38636371D02*
X109563219Y38683990D01*
X109563219Y38683990D02*
X109515600Y38779228D01*
X109515600Y38779228D02*
X109420362Y38826847D01*
X109420362Y38826847D02*
X109277505Y38826847D01*
X109277505Y38826847D02*
X109182267Y38779228D01*
X108706076Y38160180D02*
X108706076Y38826847D01*
X108706076Y39160180D02*
X108753695Y39112561D01*
X108753695Y39112561D02*
X108706076Y39064942D01*
X108706076Y39064942D02*
X108658457Y39112561D01*
X108658457Y39112561D02*
X108706076Y39160180D01*
X108706076Y39160180D02*
X108706076Y39064942D01*
X107801315Y38826847D02*
X107801315Y38017323D01*
X107801315Y38017323D02*
X107848934Y37922085D01*
X107848934Y37922085D02*
X107896553Y37874466D01*
X107896553Y37874466D02*
X107991791Y37826847D01*
X107991791Y37826847D02*
X108134648Y37826847D01*
X108134648Y37826847D02*
X108229886Y37874466D01*
X107801315Y38207800D02*
X107896553Y38160180D01*
X107896553Y38160180D02*
X108087029Y38160180D01*
X108087029Y38160180D02*
X108182267Y38207800D01*
X108182267Y38207800D02*
X108229886Y38255419D01*
X108229886Y38255419D02*
X108277505Y38350657D01*
X108277505Y38350657D02*
X108277505Y38636371D01*
X108277505Y38636371D02*
X108229886Y38731609D01*
X108229886Y38731609D02*
X108182267Y38779228D01*
X108182267Y38779228D02*
X108087029Y38826847D01*
X108087029Y38826847D02*
X107896553Y38826847D01*
X107896553Y38826847D02*
X107801315Y38779228D01*
X107325124Y38826847D02*
X107325124Y38160180D01*
X107325124Y38731609D02*
X107277505Y38779228D01*
X107277505Y38779228D02*
X107182267Y38826847D01*
X107182267Y38826847D02*
X107039410Y38826847D01*
X107039410Y38826847D02*
X106944172Y38779228D01*
X106944172Y38779228D02*
X106896553Y38683990D01*
X106896553Y38683990D02*
X106896553Y38160180D01*
X106039410Y38207800D02*
X106134648Y38160180D01*
X106134648Y38160180D02*
X106325124Y38160180D01*
X106325124Y38160180D02*
X106420362Y38207800D01*
X106420362Y38207800D02*
X106467981Y38303038D01*
X106467981Y38303038D02*
X106467981Y38683990D01*
X106467981Y38683990D02*
X106420362Y38779228D01*
X106420362Y38779228D02*
X106325124Y38826847D01*
X106325124Y38826847D02*
X106134648Y38826847D01*
X106134648Y38826847D02*
X106039410Y38779228D01*
X106039410Y38779228D02*
X105991791Y38683990D01*
X105991791Y38683990D02*
X105991791Y38588752D01*
X105991791Y38588752D02*
X106467981Y38493514D01*
X105134648Y38160180D02*
X105134648Y39160180D01*
X105134648Y38207800D02*
X105229886Y38160180D01*
X105229886Y38160180D02*
X105420362Y38160180D01*
X105420362Y38160180D02*
X105515600Y38207800D01*
X105515600Y38207800D02*
X105563219Y38255419D01*
X105563219Y38255419D02*
X105610838Y38350657D01*
X105610838Y38350657D02*
X105610838Y38636371D01*
X105610838Y38636371D02*
X105563219Y38731609D01*
X105563219Y38731609D02*
X105515600Y38779228D01*
X105515600Y38779228D02*
X105420362Y38826847D01*
X105420362Y38826847D02*
X105229886Y38826847D01*
X105229886Y38826847D02*
X105134648Y38779228D01*
X103896552Y38160180D02*
X103896552Y39160180D01*
X103896552Y38779228D02*
X103801314Y38826847D01*
X103801314Y38826847D02*
X103610838Y38826847D01*
X103610838Y38826847D02*
X103515600Y38779228D01*
X103515600Y38779228D02*
X103467981Y38731609D01*
X103467981Y38731609D02*
X103420362Y38636371D01*
X103420362Y38636371D02*
X103420362Y38350657D01*
X103420362Y38350657D02*
X103467981Y38255419D01*
X103467981Y38255419D02*
X103515600Y38207800D01*
X103515600Y38207800D02*
X103610838Y38160180D01*
X103610838Y38160180D02*
X103801314Y38160180D01*
X103801314Y38160180D02*
X103896552Y38207800D01*
X103087028Y38826847D02*
X102848933Y38160180D01*
X102610838Y38826847D02*
X102848933Y38160180D01*
X102848933Y38160180D02*
X102944171Y37922085D01*
X102944171Y37922085D02*
X102991790Y37874466D01*
X102991790Y37874466D02*
X103087028Y37826847D01*
X101467980Y38160180D02*
X101467980Y38826847D01*
X101467980Y38731609D02*
X101420361Y38779228D01*
X101420361Y38779228D02*
X101325123Y38826847D01*
X101325123Y38826847D02*
X101182266Y38826847D01*
X101182266Y38826847D02*
X101087028Y38779228D01*
X101087028Y38779228D02*
X101039409Y38683990D01*
X101039409Y38683990D02*
X101039409Y38160180D01*
X101039409Y38683990D02*
X100991790Y38779228D01*
X100991790Y38779228D02*
X100896552Y38826847D01*
X100896552Y38826847D02*
X100753695Y38826847D01*
X100753695Y38826847D02*
X100658456Y38779228D01*
X100658456Y38779228D02*
X100610837Y38683990D01*
X100610837Y38683990D02*
X100610837Y38160180D01*
X100134647Y38255419D02*
X100087028Y38207800D01*
X100087028Y38207800D02*
X100134647Y38160180D01*
X100134647Y38160180D02*
X100182266Y38207800D01*
X100182266Y38207800D02*
X100134647Y38255419D01*
X100134647Y38255419D02*
X100134647Y38160180D01*
X99658457Y38160180D02*
X99658457Y39160180D01*
X99563219Y38541133D02*
X99277505Y38160180D01*
X99277505Y38826847D02*
X99658457Y38445895D01*
X98848933Y38160180D02*
X98848933Y38826847D01*
X98848933Y39160180D02*
X98896552Y39112561D01*
X98896552Y39112561D02*
X98848933Y39064942D01*
X98848933Y39064942D02*
X98801314Y39112561D01*
X98801314Y39112561D02*
X98848933Y39160180D01*
X98848933Y39160180D02*
X98848933Y39064942D01*
X115658458Y37216847D02*
X115420363Y36550180D01*
X115420363Y36550180D02*
X115182268Y37216847D01*
X114420363Y36597800D02*
X114515601Y36550180D01*
X114515601Y36550180D02*
X114706077Y36550180D01*
X114706077Y36550180D02*
X114801315Y36597800D01*
X114801315Y36597800D02*
X114848934Y36693038D01*
X114848934Y36693038D02*
X114848934Y37073990D01*
X114848934Y37073990D02*
X114801315Y37169228D01*
X114801315Y37169228D02*
X114706077Y37216847D01*
X114706077Y37216847D02*
X114515601Y37216847D01*
X114515601Y37216847D02*
X114420363Y37169228D01*
X114420363Y37169228D02*
X114372744Y37073990D01*
X114372744Y37073990D02*
X114372744Y36978752D01*
X114372744Y36978752D02*
X114848934Y36883514D01*
X113944172Y36550180D02*
X113944172Y37216847D01*
X113944172Y37026371D02*
X113896553Y37121609D01*
X113896553Y37121609D02*
X113848934Y37169228D01*
X113848934Y37169228D02*
X113753696Y37216847D01*
X113753696Y37216847D02*
X113658458Y37216847D01*
X112801315Y36550180D02*
X113372743Y36550180D01*
X113087029Y36550180D02*
X113087029Y37550180D01*
X113087029Y37550180D02*
X113182267Y37407323D01*
X113182267Y37407323D02*
X113277505Y37312085D01*
X113277505Y37312085D02*
X113372743Y37264466D01*
X112372743Y36645419D02*
X112325124Y36597800D01*
X112325124Y36597800D02*
X112372743Y36550180D01*
X112372743Y36550180D02*
X112420362Y36597800D01*
X112420362Y36597800D02*
X112372743Y36645419D01*
X112372743Y36645419D02*
X112372743Y36550180D01*
X111706077Y37550180D02*
X111610839Y37550180D01*
X111610839Y37550180D02*
X111515601Y37502561D01*
X111515601Y37502561D02*
X111467982Y37454942D01*
X111467982Y37454942D02*
X111420363Y37359704D01*
X111420363Y37359704D02*
X111372744Y37169228D01*
X111372744Y37169228D02*
X111372744Y36931133D01*
X111372744Y36931133D02*
X111420363Y36740657D01*
X111420363Y36740657D02*
X111467982Y36645419D01*
X111467982Y36645419D02*
X111515601Y36597800D01*
X111515601Y36597800D02*
X111610839Y36550180D01*
X111610839Y36550180D02*
X111706077Y36550180D01*
X111706077Y36550180D02*
X111801315Y36597800D01*
X111801315Y36597800D02*
X111848934Y36645419D01*
X111848934Y36645419D02*
X111896553Y36740657D01*
X111896553Y36740657D02*
X111944172Y36931133D01*
X111944172Y36931133D02*
X111944172Y37169228D01*
X111944172Y37169228D02*
X111896553Y37359704D01*
X111896553Y37359704D02*
X111848934Y37454942D01*
X111848934Y37454942D02*
X111801315Y37502561D01*
X111801315Y37502561D02*
X111706077Y37550180D01*
X109753696Y36550180D02*
X109753696Y37550180D01*
X109753696Y36597800D02*
X109848934Y36550180D01*
X109848934Y36550180D02*
X110039410Y36550180D01*
X110039410Y36550180D02*
X110134648Y36597800D01*
X110134648Y36597800D02*
X110182267Y36645419D01*
X110182267Y36645419D02*
X110229886Y36740657D01*
X110229886Y36740657D02*
X110229886Y37026371D01*
X110229886Y37026371D02*
X110182267Y37121609D01*
X110182267Y37121609D02*
X110134648Y37169228D01*
X110134648Y37169228D02*
X110039410Y37216847D01*
X110039410Y37216847D02*
X109848934Y37216847D01*
X109848934Y37216847D02*
X109753696Y37169228D01*
X108848934Y36550180D02*
X108848934Y37073990D01*
X108848934Y37073990D02*
X108896553Y37169228D01*
X108896553Y37169228D02*
X108991791Y37216847D01*
X108991791Y37216847D02*
X109182267Y37216847D01*
X109182267Y37216847D02*
X109277505Y37169228D01*
X108848934Y36597800D02*
X108944172Y36550180D01*
X108944172Y36550180D02*
X109182267Y36550180D01*
X109182267Y36550180D02*
X109277505Y36597800D01*
X109277505Y36597800D02*
X109325124Y36693038D01*
X109325124Y36693038D02*
X109325124Y36788276D01*
X109325124Y36788276D02*
X109277505Y36883514D01*
X109277505Y36883514D02*
X109182267Y36931133D01*
X109182267Y36931133D02*
X108944172Y36931133D01*
X108944172Y36931133D02*
X108848934Y36978752D01*
X108515600Y37216847D02*
X108134648Y37216847D01*
X108372743Y37550180D02*
X108372743Y36693038D01*
X108372743Y36693038D02*
X108325124Y36597800D01*
X108325124Y36597800D02*
X108229886Y36550180D01*
X108229886Y36550180D02*
X108134648Y36550180D01*
X107372743Y36550180D02*
X107372743Y37073990D01*
X107372743Y37073990D02*
X107420362Y37169228D01*
X107420362Y37169228D02*
X107515600Y37216847D01*
X107515600Y37216847D02*
X107706076Y37216847D01*
X107706076Y37216847D02*
X107801314Y37169228D01*
X107372743Y36597800D02*
X107467981Y36550180D01*
X107467981Y36550180D02*
X107706076Y36550180D01*
X107706076Y36550180D02*
X107801314Y36597800D01*
X107801314Y36597800D02*
X107848933Y36693038D01*
X107848933Y36693038D02*
X107848933Y36788276D01*
X107848933Y36788276D02*
X107801314Y36883514D01*
X107801314Y36883514D02*
X107706076Y36931133D01*
X107706076Y36931133D02*
X107467981Y36931133D01*
X107467981Y36931133D02*
X107372743Y36978752D01*
X106944171Y37454942D02*
X106896552Y37502561D01*
X106896552Y37502561D02*
X106801314Y37550180D01*
X106801314Y37550180D02*
X106563219Y37550180D01*
X106563219Y37550180D02*
X106467981Y37502561D01*
X106467981Y37502561D02*
X106420362Y37454942D01*
X106420362Y37454942D02*
X106372743Y37359704D01*
X106372743Y37359704D02*
X106372743Y37264466D01*
X106372743Y37264466D02*
X106420362Y37121609D01*
X106420362Y37121609D02*
X106991790Y36550180D01*
X106991790Y36550180D02*
X106372743Y36550180D01*
X105753695Y37550180D02*
X105658457Y37550180D01*
X105658457Y37550180D02*
X105563219Y37502561D01*
X105563219Y37502561D02*
X105515600Y37454942D01*
X105515600Y37454942D02*
X105467981Y37359704D01*
X105467981Y37359704D02*
X105420362Y37169228D01*
X105420362Y37169228D02*
X105420362Y36931133D01*
X105420362Y36931133D02*
X105467981Y36740657D01*
X105467981Y36740657D02*
X105515600Y36645419D01*
X105515600Y36645419D02*
X105563219Y36597800D01*
X105563219Y36597800D02*
X105658457Y36550180D01*
X105658457Y36550180D02*
X105753695Y36550180D01*
X105753695Y36550180D02*
X105848933Y36597800D01*
X105848933Y36597800D02*
X105896552Y36645419D01*
X105896552Y36645419D02*
X105944171Y36740657D01*
X105944171Y36740657D02*
X105991790Y36931133D01*
X105991790Y36931133D02*
X105991790Y37169228D01*
X105991790Y37169228D02*
X105944171Y37359704D01*
X105944171Y37359704D02*
X105896552Y37454942D01*
X105896552Y37454942D02*
X105848933Y37502561D01*
X105848933Y37502561D02*
X105753695Y37550180D01*
X105039409Y37454942D02*
X104991790Y37502561D01*
X104991790Y37502561D02*
X104896552Y37550180D01*
X104896552Y37550180D02*
X104658457Y37550180D01*
X104658457Y37550180D02*
X104563219Y37502561D01*
X104563219Y37502561D02*
X104515600Y37454942D01*
X104515600Y37454942D02*
X104467981Y37359704D01*
X104467981Y37359704D02*
X104467981Y37264466D01*
X104467981Y37264466D02*
X104515600Y37121609D01*
X104515600Y37121609D02*
X105087028Y36550180D01*
X105087028Y36550180D02*
X104467981Y36550180D01*
X103610838Y37216847D02*
X103610838Y36550180D01*
X103848933Y37597800D02*
X104087028Y36883514D01*
X104087028Y36883514D02*
X103467981Y36883514D01*
X102896552Y37550180D02*
X102801314Y37550180D01*
X102801314Y37550180D02*
X102706076Y37502561D01*
X102706076Y37502561D02*
X102658457Y37454942D01*
X102658457Y37454942D02*
X102610838Y37359704D01*
X102610838Y37359704D02*
X102563219Y37169228D01*
X102563219Y37169228D02*
X102563219Y36931133D01*
X102563219Y36931133D02*
X102610838Y36740657D01*
X102610838Y36740657D02*
X102658457Y36645419D01*
X102658457Y36645419D02*
X102706076Y36597800D01*
X102706076Y36597800D02*
X102801314Y36550180D01*
X102801314Y36550180D02*
X102896552Y36550180D01*
X102896552Y36550180D02*
X102991790Y36597800D01*
X102991790Y36597800D02*
X103039409Y36645419D01*
X103039409Y36645419D02*
X103087028Y36740657D01*
X103087028Y36740657D02*
X103134647Y36931133D01*
X103134647Y36931133D02*
X103134647Y37169228D01*
X103134647Y37169228D02*
X103087028Y37359704D01*
X103087028Y37359704D02*
X103039409Y37454942D01*
X103039409Y37454942D02*
X102991790Y37502561D01*
X102991790Y37502561D02*
X102896552Y37550180D01*
X101658457Y37550180D02*
X102134647Y37550180D01*
X102134647Y37550180D02*
X102182266Y37073990D01*
X102182266Y37073990D02*
X102134647Y37121609D01*
X102134647Y37121609D02*
X102039409Y37169228D01*
X102039409Y37169228D02*
X101801314Y37169228D01*
X101801314Y37169228D02*
X101706076Y37121609D01*
X101706076Y37121609D02*
X101658457Y37073990D01*
X101658457Y37073990D02*
X101610838Y36978752D01*
X101610838Y36978752D02*
X101610838Y36740657D01*
X101610838Y36740657D02*
X101658457Y36645419D01*
X101658457Y36645419D02*
X101706076Y36597800D01*
X101706076Y36597800D02*
X101801314Y36550180D01*
X101801314Y36550180D02*
X102039409Y36550180D01*
X102039409Y36550180D02*
X102134647Y36597800D01*
X102134647Y36597800D02*
X102182266Y36645419D01*
X100658457Y36550180D02*
X101229885Y36550180D01*
X100944171Y36550180D02*
X100944171Y37550180D01*
X100944171Y37550180D02*
X101039409Y37407323D01*
X101039409Y37407323D02*
X101134647Y37312085D01*
X101134647Y37312085D02*
X101229885Y37264466D01*
X100277504Y37454942D02*
X100229885Y37502561D01*
X100229885Y37502561D02*
X100134647Y37550180D01*
X100134647Y37550180D02*
X99896552Y37550180D01*
X99896552Y37550180D02*
X99801314Y37502561D01*
X99801314Y37502561D02*
X99753695Y37454942D01*
X99753695Y37454942D02*
X99706076Y37359704D01*
X99706076Y37359704D02*
X99706076Y37264466D01*
X99706076Y37264466D02*
X99753695Y37121609D01*
X99753695Y37121609D02*
X100325123Y36550180D01*
X100325123Y36550180D02*
X99706076Y36550180D01*
X-57942680Y138001904D02*
X-57133157Y138001904D01*
X-57133157Y138001904D02*
X-57037919Y137954285D01*
X-57037919Y137954285D02*
X-56990300Y137906666D01*
X-56990300Y137906666D02*
X-56942680Y137811428D01*
X-56942680Y137811428D02*
X-56942680Y137620952D01*
X-56942680Y137620952D02*
X-56990300Y137525714D01*
X-56990300Y137525714D02*
X-57037919Y137478095D01*
X-57037919Y137478095D02*
X-57133157Y137430476D01*
X-57133157Y137430476D02*
X-57942680Y137430476D01*
X-56942680Y136430476D02*
X-56942680Y137001904D01*
X-56942680Y136716190D02*
X-57942680Y136716190D01*
X-57942680Y136716190D02*
X-57799823Y136811428D01*
X-57799823Y136811428D02*
X-57704585Y136906666D01*
X-57704585Y136906666D02*
X-57656966Y137001904D01*
X-68112680Y148230476D02*
X-68112680Y148706666D01*
X-68112680Y148706666D02*
X-67636490Y148754285D01*
X-67636490Y148754285D02*
X-67684109Y148706666D01*
X-67684109Y148706666D02*
X-67731728Y148611428D01*
X-67731728Y148611428D02*
X-67731728Y148373333D01*
X-67731728Y148373333D02*
X-67684109Y148278095D01*
X-67684109Y148278095D02*
X-67636490Y148230476D01*
X-67636490Y148230476D02*
X-67541252Y148182857D01*
X-67541252Y148182857D02*
X-67303157Y148182857D01*
X-67303157Y148182857D02*
X-67207919Y148230476D01*
X-67207919Y148230476D02*
X-67160300Y148278095D01*
X-67160300Y148278095D02*
X-67112680Y148373333D01*
X-67112680Y148373333D02*
X-67112680Y148611428D01*
X-67112680Y148611428D02*
X-67160300Y148706666D01*
X-67160300Y148706666D02*
X-67207919Y148754285D01*
X-68112680Y147897142D02*
X-67112680Y147563809D01*
X-67112680Y147563809D02*
X-68112680Y147230476D01*
X-68065061Y128434285D02*
X-68112680Y128529523D01*
X-68112680Y128529523D02*
X-68112680Y128672380D01*
X-68112680Y128672380D02*
X-68065061Y128815237D01*
X-68065061Y128815237D02*
X-67969823Y128910475D01*
X-67969823Y128910475D02*
X-67874585Y128958094D01*
X-67874585Y128958094D02*
X-67684109Y129005713D01*
X-67684109Y129005713D02*
X-67541252Y129005713D01*
X-67541252Y129005713D02*
X-67350776Y128958094D01*
X-67350776Y128958094D02*
X-67255538Y128910475D01*
X-67255538Y128910475D02*
X-67160300Y128815237D01*
X-67160300Y128815237D02*
X-67112680Y128672380D01*
X-67112680Y128672380D02*
X-67112680Y128577142D01*
X-67112680Y128577142D02*
X-67160300Y128434285D01*
X-67160300Y128434285D02*
X-67207919Y128386666D01*
X-67207919Y128386666D02*
X-67541252Y128386666D01*
X-67541252Y128386666D02*
X-67541252Y128577142D01*
X-67112680Y127958094D02*
X-68112680Y127958094D01*
X-68112680Y127958094D02*
X-68112680Y127577142D01*
X-68112680Y127577142D02*
X-68065061Y127481904D01*
X-68065061Y127481904D02*
X-68017442Y127434285D01*
X-68017442Y127434285D02*
X-67922204Y127386666D01*
X-67922204Y127386666D02*
X-67779347Y127386666D01*
X-67779347Y127386666D02*
X-67684109Y127434285D01*
X-67684109Y127434285D02*
X-67636490Y127481904D01*
X-67636490Y127481904D02*
X-67588871Y127577142D01*
X-67588871Y127577142D02*
X-67588871Y127958094D01*
X-68112680Y126767618D02*
X-68112680Y126672380D01*
X-68112680Y126672380D02*
X-68065061Y126577142D01*
X-68065061Y126577142D02*
X-68017442Y126529523D01*
X-68017442Y126529523D02*
X-67922204Y126481904D01*
X-67922204Y126481904D02*
X-67731728Y126434285D01*
X-67731728Y126434285D02*
X-67493633Y126434285D01*
X-67493633Y126434285D02*
X-67303157Y126481904D01*
X-67303157Y126481904D02*
X-67207919Y126529523D01*
X-67207919Y126529523D02*
X-67160300Y126577142D01*
X-67160300Y126577142D02*
X-67112680Y126672380D01*
X-67112680Y126672380D02*
X-67112680Y126767618D01*
X-67112680Y126767618D02*
X-67160300Y126862856D01*
X-67160300Y126862856D02*
X-67207919Y126910475D01*
X-67207919Y126910475D02*
X-67303157Y126958094D01*
X-67303157Y126958094D02*
X-67493633Y127005713D01*
X-67493633Y127005713D02*
X-67731728Y127005713D01*
X-67731728Y127005713D02*
X-67922204Y126958094D01*
X-67922204Y126958094D02*
X-68017442Y126910475D01*
X-68017442Y126910475D02*
X-68065061Y126862856D01*
X-68065061Y126862856D02*
X-68112680Y126767618D01*
X-43517023Y143457561D02*
X-43421785Y143505180D01*
X-43421785Y143505180D02*
X-43278928Y143505180D01*
X-43278928Y143505180D02*
X-43136071Y143457561D01*
X-43136071Y143457561D02*
X-43040833Y143362323D01*
X-43040833Y143362323D02*
X-42993214Y143267085D01*
X-42993214Y143267085D02*
X-42945595Y143076609D01*
X-42945595Y143076609D02*
X-42945595Y142933752D01*
X-42945595Y142933752D02*
X-42993214Y142743276D01*
X-42993214Y142743276D02*
X-43040833Y142648038D01*
X-43040833Y142648038D02*
X-43136071Y142552800D01*
X-43136071Y142552800D02*
X-43278928Y142505180D01*
X-43278928Y142505180D02*
X-43374166Y142505180D01*
X-43374166Y142505180D02*
X-43517023Y142552800D01*
X-43517023Y142552800D02*
X-43564642Y142600419D01*
X-43564642Y142600419D02*
X-43564642Y142933752D01*
X-43564642Y142933752D02*
X-43374166Y142933752D01*
X-43993214Y142505180D02*
X-43993214Y143505180D01*
X-43993214Y143505180D02*
X-44374166Y143505180D01*
X-44374166Y143505180D02*
X-44469404Y143457561D01*
X-44469404Y143457561D02*
X-44517023Y143409942D01*
X-44517023Y143409942D02*
X-44564642Y143314704D01*
X-44564642Y143314704D02*
X-44564642Y143171847D01*
X-44564642Y143171847D02*
X-44517023Y143076609D01*
X-44517023Y143076609D02*
X-44469404Y143028990D01*
X-44469404Y143028990D02*
X-44374166Y142981371D01*
X-44374166Y142981371D02*
X-43993214Y142981371D01*
X-45517023Y142505180D02*
X-44945595Y142505180D01*
X-45231309Y142505180D02*
X-45231309Y143505180D01*
X-45231309Y143505180D02*
X-45136071Y143362323D01*
X-45136071Y143362323D02*
X-45040833Y143267085D01*
X-45040833Y143267085D02*
X-44945595Y143219466D01*
X-45850357Y143505180D02*
X-46469404Y143505180D01*
X-46469404Y143505180D02*
X-46136071Y143124228D01*
X-46136071Y143124228D02*
X-46278928Y143124228D01*
X-46278928Y143124228D02*
X-46374166Y143076609D01*
X-46374166Y143076609D02*
X-46421785Y143028990D01*
X-46421785Y143028990D02*
X-46469404Y142933752D01*
X-46469404Y142933752D02*
X-46469404Y142695657D01*
X-46469404Y142695657D02*
X-46421785Y142600419D01*
X-46421785Y142600419D02*
X-46374166Y142552800D01*
X-46374166Y142552800D02*
X-46278928Y142505180D01*
X-46278928Y142505180D02*
X-45993214Y142505180D01*
X-45993214Y142505180D02*
X-45897976Y142552800D01*
X-45897976Y142552800D02*
X-45850357Y142600419D01*
X-52825061Y149230476D02*
X-52872680Y149325714D01*
X-52872680Y149325714D02*
X-52872680Y149468571D01*
X-52872680Y149468571D02*
X-52825061Y149611428D01*
X-52825061Y149611428D02*
X-52729823Y149706666D01*
X-52729823Y149706666D02*
X-52634585Y149754285D01*
X-52634585Y149754285D02*
X-52444109Y149801904D01*
X-52444109Y149801904D02*
X-52301252Y149801904D01*
X-52301252Y149801904D02*
X-52110776Y149754285D01*
X-52110776Y149754285D02*
X-52015538Y149706666D01*
X-52015538Y149706666D02*
X-51920300Y149611428D01*
X-51920300Y149611428D02*
X-51872680Y149468571D01*
X-51872680Y149468571D02*
X-51872680Y149373333D01*
X-51872680Y149373333D02*
X-51920300Y149230476D01*
X-51920300Y149230476D02*
X-51967919Y149182857D01*
X-51967919Y149182857D02*
X-52301252Y149182857D01*
X-52301252Y149182857D02*
X-52301252Y149373333D01*
X-51872680Y148754285D02*
X-52872680Y148754285D01*
X-52872680Y148754285D02*
X-52872680Y148373333D01*
X-52872680Y148373333D02*
X-52825061Y148278095D01*
X-52825061Y148278095D02*
X-52777442Y148230476D01*
X-52777442Y148230476D02*
X-52682204Y148182857D01*
X-52682204Y148182857D02*
X-52539347Y148182857D01*
X-52539347Y148182857D02*
X-52444109Y148230476D01*
X-52444109Y148230476D02*
X-52396490Y148278095D01*
X-52396490Y148278095D02*
X-52348871Y148373333D01*
X-52348871Y148373333D02*
X-52348871Y148754285D01*
X-52777442Y147801904D02*
X-52825061Y147754285D01*
X-52825061Y147754285D02*
X-52872680Y147659047D01*
X-52872680Y147659047D02*
X-52872680Y147420952D01*
X-52872680Y147420952D02*
X-52825061Y147325714D01*
X-52825061Y147325714D02*
X-52777442Y147278095D01*
X-52777442Y147278095D02*
X-52682204Y147230476D01*
X-52682204Y147230476D02*
X-52586966Y147230476D01*
X-52586966Y147230476D02*
X-52444109Y147278095D01*
X-52444109Y147278095D02*
X-51872680Y147849523D01*
X-51872680Y147849523D02*
X-51872680Y147230476D01*
X-52872680Y146373333D02*
X-52872680Y146563809D01*
X-52872680Y146563809D02*
X-52825061Y146659047D01*
X-52825061Y146659047D02*
X-52777442Y146706666D01*
X-52777442Y146706666D02*
X-52634585Y146801904D01*
X-52634585Y146801904D02*
X-52444109Y146849523D01*
X-52444109Y146849523D02*
X-52063157Y146849523D01*
X-52063157Y146849523D02*
X-51967919Y146801904D01*
X-51967919Y146801904D02*
X-51920300Y146754285D01*
X-51920300Y146754285D02*
X-51872680Y146659047D01*
X-51872680Y146659047D02*
X-51872680Y146468571D01*
X-51872680Y146468571D02*
X-51920300Y146373333D01*
X-51920300Y146373333D02*
X-51967919Y146325714D01*
X-51967919Y146325714D02*
X-52063157Y146278095D01*
X-52063157Y146278095D02*
X-52301252Y146278095D01*
X-52301252Y146278095D02*
X-52396490Y146325714D01*
X-52396490Y146325714D02*
X-52444109Y146373333D01*
X-52444109Y146373333D02*
X-52491728Y146468571D01*
X-52491728Y146468571D02*
X-52491728Y146659047D01*
X-52491728Y146659047D02*
X-52444109Y146754285D01*
X-52444109Y146754285D02*
X-52396490Y146801904D01*
X-52396490Y146801904D02*
X-52301252Y146849523D01*
X-50285061Y128434285D02*
X-50332680Y128529523D01*
X-50332680Y128529523D02*
X-50332680Y128672380D01*
X-50332680Y128672380D02*
X-50285061Y128815237D01*
X-50285061Y128815237D02*
X-50189823Y128910475D01*
X-50189823Y128910475D02*
X-50094585Y128958094D01*
X-50094585Y128958094D02*
X-49904109Y129005713D01*
X-49904109Y129005713D02*
X-49761252Y129005713D01*
X-49761252Y129005713D02*
X-49570776Y128958094D01*
X-49570776Y128958094D02*
X-49475538Y128910475D01*
X-49475538Y128910475D02*
X-49380300Y128815237D01*
X-49380300Y128815237D02*
X-49332680Y128672380D01*
X-49332680Y128672380D02*
X-49332680Y128577142D01*
X-49332680Y128577142D02*
X-49380300Y128434285D01*
X-49380300Y128434285D02*
X-49427919Y128386666D01*
X-49427919Y128386666D02*
X-49761252Y128386666D01*
X-49761252Y128386666D02*
X-49761252Y128577142D01*
X-49332680Y127958094D02*
X-50332680Y127958094D01*
X-50332680Y127958094D02*
X-50332680Y127577142D01*
X-50332680Y127577142D02*
X-50285061Y127481904D01*
X-50285061Y127481904D02*
X-50237442Y127434285D01*
X-50237442Y127434285D02*
X-50142204Y127386666D01*
X-50142204Y127386666D02*
X-49999347Y127386666D01*
X-49999347Y127386666D02*
X-49904109Y127434285D01*
X-49904109Y127434285D02*
X-49856490Y127481904D01*
X-49856490Y127481904D02*
X-49808871Y127577142D01*
X-49808871Y127577142D02*
X-49808871Y127958094D01*
X-50332680Y127053332D02*
X-50332680Y126386666D01*
X-50332680Y126386666D02*
X-49332680Y126815237D01*
X-57905061Y149230476D02*
X-57952680Y149325714D01*
X-57952680Y149325714D02*
X-57952680Y149468571D01*
X-57952680Y149468571D02*
X-57905061Y149611428D01*
X-57905061Y149611428D02*
X-57809823Y149706666D01*
X-57809823Y149706666D02*
X-57714585Y149754285D01*
X-57714585Y149754285D02*
X-57524109Y149801904D01*
X-57524109Y149801904D02*
X-57381252Y149801904D01*
X-57381252Y149801904D02*
X-57190776Y149754285D01*
X-57190776Y149754285D02*
X-57095538Y149706666D01*
X-57095538Y149706666D02*
X-57000300Y149611428D01*
X-57000300Y149611428D02*
X-56952680Y149468571D01*
X-56952680Y149468571D02*
X-56952680Y149373333D01*
X-56952680Y149373333D02*
X-57000300Y149230476D01*
X-57000300Y149230476D02*
X-57047919Y149182857D01*
X-57047919Y149182857D02*
X-57381252Y149182857D01*
X-57381252Y149182857D02*
X-57381252Y149373333D01*
X-56952680Y148754285D02*
X-57952680Y148754285D01*
X-57952680Y148754285D02*
X-57952680Y148373333D01*
X-57952680Y148373333D02*
X-57905061Y148278095D01*
X-57905061Y148278095D02*
X-57857442Y148230476D01*
X-57857442Y148230476D02*
X-57762204Y148182857D01*
X-57762204Y148182857D02*
X-57619347Y148182857D01*
X-57619347Y148182857D02*
X-57524109Y148230476D01*
X-57524109Y148230476D02*
X-57476490Y148278095D01*
X-57476490Y148278095D02*
X-57428871Y148373333D01*
X-57428871Y148373333D02*
X-57428871Y148754285D01*
X-57857442Y147801904D02*
X-57905061Y147754285D01*
X-57905061Y147754285D02*
X-57952680Y147659047D01*
X-57952680Y147659047D02*
X-57952680Y147420952D01*
X-57952680Y147420952D02*
X-57905061Y147325714D01*
X-57905061Y147325714D02*
X-57857442Y147278095D01*
X-57857442Y147278095D02*
X-57762204Y147230476D01*
X-57762204Y147230476D02*
X-57666966Y147230476D01*
X-57666966Y147230476D02*
X-57524109Y147278095D01*
X-57524109Y147278095D02*
X-56952680Y147849523D01*
X-56952680Y147849523D02*
X-56952680Y147230476D01*
X-57524109Y146659047D02*
X-57571728Y146754285D01*
X-57571728Y146754285D02*
X-57619347Y146801904D01*
X-57619347Y146801904D02*
X-57714585Y146849523D01*
X-57714585Y146849523D02*
X-57762204Y146849523D01*
X-57762204Y146849523D02*
X-57857442Y146801904D01*
X-57857442Y146801904D02*
X-57905061Y146754285D01*
X-57905061Y146754285D02*
X-57952680Y146659047D01*
X-57952680Y146659047D02*
X-57952680Y146468571D01*
X-57952680Y146468571D02*
X-57905061Y146373333D01*
X-57905061Y146373333D02*
X-57857442Y146325714D01*
X-57857442Y146325714D02*
X-57762204Y146278095D01*
X-57762204Y146278095D02*
X-57714585Y146278095D01*
X-57714585Y146278095D02*
X-57619347Y146325714D01*
X-57619347Y146325714D02*
X-57571728Y146373333D01*
X-57571728Y146373333D02*
X-57524109Y146468571D01*
X-57524109Y146468571D02*
X-57524109Y146659047D01*
X-57524109Y146659047D02*
X-57476490Y146754285D01*
X-57476490Y146754285D02*
X-57428871Y146801904D01*
X-57428871Y146801904D02*
X-57333633Y146849523D01*
X-57333633Y146849523D02*
X-57143157Y146849523D01*
X-57143157Y146849523D02*
X-57047919Y146801904D01*
X-57047919Y146801904D02*
X-57000300Y146754285D01*
X-57000300Y146754285D02*
X-56952680Y146659047D01*
X-56952680Y146659047D02*
X-56952680Y146468571D01*
X-56952680Y146468571D02*
X-57000300Y146373333D01*
X-57000300Y146373333D02*
X-57047919Y146325714D01*
X-57047919Y146325714D02*
X-57143157Y146278095D01*
X-57143157Y146278095D02*
X-57333633Y146278095D01*
X-57333633Y146278095D02*
X-57428871Y146325714D01*
X-57428871Y146325714D02*
X-57476490Y146373333D01*
X-57476490Y146373333D02*
X-57524109Y146468571D01*
X-43517023Y140917561D02*
X-43421785Y140965180D01*
X-43421785Y140965180D02*
X-43278928Y140965180D01*
X-43278928Y140965180D02*
X-43136071Y140917561D01*
X-43136071Y140917561D02*
X-43040833Y140822323D01*
X-43040833Y140822323D02*
X-42993214Y140727085D01*
X-42993214Y140727085D02*
X-42945595Y140536609D01*
X-42945595Y140536609D02*
X-42945595Y140393752D01*
X-42945595Y140393752D02*
X-42993214Y140203276D01*
X-42993214Y140203276D02*
X-43040833Y140108038D01*
X-43040833Y140108038D02*
X-43136071Y140012800D01*
X-43136071Y140012800D02*
X-43278928Y139965180D01*
X-43278928Y139965180D02*
X-43374166Y139965180D01*
X-43374166Y139965180D02*
X-43517023Y140012800D01*
X-43517023Y140012800D02*
X-43564642Y140060419D01*
X-43564642Y140060419D02*
X-43564642Y140393752D01*
X-43564642Y140393752D02*
X-43374166Y140393752D01*
X-43993214Y139965180D02*
X-43993214Y140965180D01*
X-43993214Y140965180D02*
X-44374166Y140965180D01*
X-44374166Y140965180D02*
X-44469404Y140917561D01*
X-44469404Y140917561D02*
X-44517023Y140869942D01*
X-44517023Y140869942D02*
X-44564642Y140774704D01*
X-44564642Y140774704D02*
X-44564642Y140631847D01*
X-44564642Y140631847D02*
X-44517023Y140536609D01*
X-44517023Y140536609D02*
X-44469404Y140488990D01*
X-44469404Y140488990D02*
X-44374166Y140441371D01*
X-44374166Y140441371D02*
X-43993214Y140441371D01*
X-45517023Y139965180D02*
X-44945595Y139965180D01*
X-45231309Y139965180D02*
X-45231309Y140965180D01*
X-45231309Y140965180D02*
X-45136071Y140822323D01*
X-45136071Y140822323D02*
X-45040833Y140727085D01*
X-45040833Y140727085D02*
X-44945595Y140679466D01*
X-45897976Y140869942D02*
X-45945595Y140917561D01*
X-45945595Y140917561D02*
X-46040833Y140965180D01*
X-46040833Y140965180D02*
X-46278928Y140965180D01*
X-46278928Y140965180D02*
X-46374166Y140917561D01*
X-46374166Y140917561D02*
X-46421785Y140869942D01*
X-46421785Y140869942D02*
X-46469404Y140774704D01*
X-46469404Y140774704D02*
X-46469404Y140679466D01*
X-46469404Y140679466D02*
X-46421785Y140536609D01*
X-46421785Y140536609D02*
X-45850357Y139965180D01*
X-45850357Y139965180D02*
X-46469404Y139965180D01*
X-50285061Y149230476D02*
X-50332680Y149325714D01*
X-50332680Y149325714D02*
X-50332680Y149468571D01*
X-50332680Y149468571D02*
X-50285061Y149611428D01*
X-50285061Y149611428D02*
X-50189823Y149706666D01*
X-50189823Y149706666D02*
X-50094585Y149754285D01*
X-50094585Y149754285D02*
X-49904109Y149801904D01*
X-49904109Y149801904D02*
X-49761252Y149801904D01*
X-49761252Y149801904D02*
X-49570776Y149754285D01*
X-49570776Y149754285D02*
X-49475538Y149706666D01*
X-49475538Y149706666D02*
X-49380300Y149611428D01*
X-49380300Y149611428D02*
X-49332680Y149468571D01*
X-49332680Y149468571D02*
X-49332680Y149373333D01*
X-49332680Y149373333D02*
X-49380300Y149230476D01*
X-49380300Y149230476D02*
X-49427919Y149182857D01*
X-49427919Y149182857D02*
X-49761252Y149182857D01*
X-49761252Y149182857D02*
X-49761252Y149373333D01*
X-49332680Y148754285D02*
X-50332680Y148754285D01*
X-50332680Y148754285D02*
X-50332680Y148373333D01*
X-50332680Y148373333D02*
X-50285061Y148278095D01*
X-50285061Y148278095D02*
X-50237442Y148230476D01*
X-50237442Y148230476D02*
X-50142204Y148182857D01*
X-50142204Y148182857D02*
X-49999347Y148182857D01*
X-49999347Y148182857D02*
X-49904109Y148230476D01*
X-49904109Y148230476D02*
X-49856490Y148278095D01*
X-49856490Y148278095D02*
X-49808871Y148373333D01*
X-49808871Y148373333D02*
X-49808871Y148754285D01*
X-49332680Y147230476D02*
X-49332680Y147801904D01*
X-49332680Y147516190D02*
X-50332680Y147516190D01*
X-50332680Y147516190D02*
X-50189823Y147611428D01*
X-50189823Y147611428D02*
X-50094585Y147706666D01*
X-50094585Y147706666D02*
X-50046966Y147801904D01*
X-50332680Y146325714D02*
X-50332680Y146801904D01*
X-50332680Y146801904D02*
X-49856490Y146849523D01*
X-49856490Y146849523D02*
X-49904109Y146801904D01*
X-49904109Y146801904D02*
X-49951728Y146706666D01*
X-49951728Y146706666D02*
X-49951728Y146468571D01*
X-49951728Y146468571D02*
X-49904109Y146373333D01*
X-49904109Y146373333D02*
X-49856490Y146325714D01*
X-49856490Y146325714D02*
X-49761252Y146278095D01*
X-49761252Y146278095D02*
X-49523157Y146278095D01*
X-49523157Y146278095D02*
X-49427919Y146325714D01*
X-49427919Y146325714D02*
X-49380300Y146373333D01*
X-49380300Y146373333D02*
X-49332680Y146468571D01*
X-49332680Y146468571D02*
X-49332680Y146706666D01*
X-49332680Y146706666D02*
X-49380300Y146801904D01*
X-49380300Y146801904D02*
X-49427919Y146849523D01*
X-63032680Y149278094D02*
X-63032680Y148659047D01*
X-63032680Y148659047D02*
X-62651728Y148992380D01*
X-62651728Y148992380D02*
X-62651728Y148849523D01*
X-62651728Y148849523D02*
X-62604109Y148754285D01*
X-62604109Y148754285D02*
X-62556490Y148706666D01*
X-62556490Y148706666D02*
X-62461252Y148659047D01*
X-62461252Y148659047D02*
X-62223157Y148659047D01*
X-62223157Y148659047D02*
X-62127919Y148706666D01*
X-62127919Y148706666D02*
X-62080300Y148754285D01*
X-62080300Y148754285D02*
X-62032680Y148849523D01*
X-62032680Y148849523D02*
X-62032680Y149135237D01*
X-62032680Y149135237D02*
X-62080300Y149230475D01*
X-62080300Y149230475D02*
X-62127919Y149278094D01*
X-63032680Y148373332D02*
X-62032680Y148039999D01*
X-62032680Y148039999D02*
X-63032680Y147706666D01*
X-63032680Y147468570D02*
X-63032680Y146849523D01*
X-63032680Y146849523D02*
X-62651728Y147182856D01*
X-62651728Y147182856D02*
X-62651728Y147039999D01*
X-62651728Y147039999D02*
X-62604109Y146944761D01*
X-62604109Y146944761D02*
X-62556490Y146897142D01*
X-62556490Y146897142D02*
X-62461252Y146849523D01*
X-62461252Y146849523D02*
X-62223157Y146849523D01*
X-62223157Y146849523D02*
X-62127919Y146897142D01*
X-62127919Y146897142D02*
X-62080300Y146944761D01*
X-62080300Y146944761D02*
X-62032680Y147039999D01*
X-62032680Y147039999D02*
X-62032680Y147325713D01*
X-62032680Y147325713D02*
X-62080300Y147420951D01*
X-62080300Y147420951D02*
X-62127919Y147468570D01*
X-60445061Y128434285D02*
X-60492680Y128529523D01*
X-60492680Y128529523D02*
X-60492680Y128672380D01*
X-60492680Y128672380D02*
X-60445061Y128815237D01*
X-60445061Y128815237D02*
X-60349823Y128910475D01*
X-60349823Y128910475D02*
X-60254585Y128958094D01*
X-60254585Y128958094D02*
X-60064109Y129005713D01*
X-60064109Y129005713D02*
X-59921252Y129005713D01*
X-59921252Y129005713D02*
X-59730776Y128958094D01*
X-59730776Y128958094D02*
X-59635538Y128910475D01*
X-59635538Y128910475D02*
X-59540300Y128815237D01*
X-59540300Y128815237D02*
X-59492680Y128672380D01*
X-59492680Y128672380D02*
X-59492680Y128577142D01*
X-59492680Y128577142D02*
X-59540300Y128434285D01*
X-59540300Y128434285D02*
X-59587919Y128386666D01*
X-59587919Y128386666D02*
X-59921252Y128386666D01*
X-59921252Y128386666D02*
X-59921252Y128577142D01*
X-59492680Y127958094D02*
X-60492680Y127958094D01*
X-60492680Y127958094D02*
X-60492680Y127577142D01*
X-60492680Y127577142D02*
X-60445061Y127481904D01*
X-60445061Y127481904D02*
X-60397442Y127434285D01*
X-60397442Y127434285D02*
X-60302204Y127386666D01*
X-60302204Y127386666D02*
X-60159347Y127386666D01*
X-60159347Y127386666D02*
X-60064109Y127434285D01*
X-60064109Y127434285D02*
X-60016490Y127481904D01*
X-60016490Y127481904D02*
X-59968871Y127577142D01*
X-59968871Y127577142D02*
X-59968871Y127958094D01*
X-60492680Y127053332D02*
X-60492680Y126434285D01*
X-60492680Y126434285D02*
X-60111728Y126767618D01*
X-60111728Y126767618D02*
X-60111728Y126624761D01*
X-60111728Y126624761D02*
X-60064109Y126529523D01*
X-60064109Y126529523D02*
X-60016490Y126481904D01*
X-60016490Y126481904D02*
X-59921252Y126434285D01*
X-59921252Y126434285D02*
X-59683157Y126434285D01*
X-59683157Y126434285D02*
X-59587919Y126481904D01*
X-59587919Y126481904D02*
X-59540300Y126529523D01*
X-59540300Y126529523D02*
X-59492680Y126624761D01*
X-59492680Y126624761D02*
X-59492680Y126910475D01*
X-59492680Y126910475D02*
X-59540300Y127005713D01*
X-59540300Y127005713D02*
X-59587919Y127053332D01*
X-55365061Y128434285D02*
X-55412680Y128529523D01*
X-55412680Y128529523D02*
X-55412680Y128672380D01*
X-55412680Y128672380D02*
X-55365061Y128815237D01*
X-55365061Y128815237D02*
X-55269823Y128910475D01*
X-55269823Y128910475D02*
X-55174585Y128958094D01*
X-55174585Y128958094D02*
X-54984109Y129005713D01*
X-54984109Y129005713D02*
X-54841252Y129005713D01*
X-54841252Y129005713D02*
X-54650776Y128958094D01*
X-54650776Y128958094D02*
X-54555538Y128910475D01*
X-54555538Y128910475D02*
X-54460300Y128815237D01*
X-54460300Y128815237D02*
X-54412680Y128672380D01*
X-54412680Y128672380D02*
X-54412680Y128577142D01*
X-54412680Y128577142D02*
X-54460300Y128434285D01*
X-54460300Y128434285D02*
X-54507919Y128386666D01*
X-54507919Y128386666D02*
X-54841252Y128386666D01*
X-54841252Y128386666D02*
X-54841252Y128577142D01*
X-54412680Y127958094D02*
X-55412680Y127958094D01*
X-55412680Y127958094D02*
X-55412680Y127577142D01*
X-55412680Y127577142D02*
X-55365061Y127481904D01*
X-55365061Y127481904D02*
X-55317442Y127434285D01*
X-55317442Y127434285D02*
X-55222204Y127386666D01*
X-55222204Y127386666D02*
X-55079347Y127386666D01*
X-55079347Y127386666D02*
X-54984109Y127434285D01*
X-54984109Y127434285D02*
X-54936490Y127481904D01*
X-54936490Y127481904D02*
X-54888871Y127577142D01*
X-54888871Y127577142D02*
X-54888871Y127958094D01*
X-55412680Y126481904D02*
X-55412680Y126958094D01*
X-55412680Y126958094D02*
X-54936490Y127005713D01*
X-54936490Y127005713D02*
X-54984109Y126958094D01*
X-54984109Y126958094D02*
X-55031728Y126862856D01*
X-55031728Y126862856D02*
X-55031728Y126624761D01*
X-55031728Y126624761D02*
X-54984109Y126529523D01*
X-54984109Y126529523D02*
X-54936490Y126481904D01*
X-54936490Y126481904D02*
X-54841252Y126434285D01*
X-54841252Y126434285D02*
X-54603157Y126434285D01*
X-54603157Y126434285D02*
X-54507919Y126481904D01*
X-54507919Y126481904D02*
X-54460300Y126529523D01*
X-54460300Y126529523D02*
X-54412680Y126624761D01*
X-54412680Y126624761D02*
X-54412680Y126862856D01*
X-54412680Y126862856D02*
X-54460300Y126958094D01*
X-54460300Y126958094D02*
X-54507919Y127005713D01*
X-52825061Y128434285D02*
X-52872680Y128529523D01*
X-52872680Y128529523D02*
X-52872680Y128672380D01*
X-52872680Y128672380D02*
X-52825061Y128815237D01*
X-52825061Y128815237D02*
X-52729823Y128910475D01*
X-52729823Y128910475D02*
X-52634585Y128958094D01*
X-52634585Y128958094D02*
X-52444109Y129005713D01*
X-52444109Y129005713D02*
X-52301252Y129005713D01*
X-52301252Y129005713D02*
X-52110776Y128958094D01*
X-52110776Y128958094D02*
X-52015538Y128910475D01*
X-52015538Y128910475D02*
X-51920300Y128815237D01*
X-51920300Y128815237D02*
X-51872680Y128672380D01*
X-51872680Y128672380D02*
X-51872680Y128577142D01*
X-51872680Y128577142D02*
X-51920300Y128434285D01*
X-51920300Y128434285D02*
X-51967919Y128386666D01*
X-51967919Y128386666D02*
X-52301252Y128386666D01*
X-52301252Y128386666D02*
X-52301252Y128577142D01*
X-51872680Y127958094D02*
X-52872680Y127958094D01*
X-52872680Y127958094D02*
X-52872680Y127577142D01*
X-52872680Y127577142D02*
X-52825061Y127481904D01*
X-52825061Y127481904D02*
X-52777442Y127434285D01*
X-52777442Y127434285D02*
X-52682204Y127386666D01*
X-52682204Y127386666D02*
X-52539347Y127386666D01*
X-52539347Y127386666D02*
X-52444109Y127434285D01*
X-52444109Y127434285D02*
X-52396490Y127481904D01*
X-52396490Y127481904D02*
X-52348871Y127577142D01*
X-52348871Y127577142D02*
X-52348871Y127958094D01*
X-52872680Y126529523D02*
X-52872680Y126719999D01*
X-52872680Y126719999D02*
X-52825061Y126815237D01*
X-52825061Y126815237D02*
X-52777442Y126862856D01*
X-52777442Y126862856D02*
X-52634585Y126958094D01*
X-52634585Y126958094D02*
X-52444109Y127005713D01*
X-52444109Y127005713D02*
X-52063157Y127005713D01*
X-52063157Y127005713D02*
X-51967919Y126958094D01*
X-51967919Y126958094D02*
X-51920300Y126910475D01*
X-51920300Y126910475D02*
X-51872680Y126815237D01*
X-51872680Y126815237D02*
X-51872680Y126624761D01*
X-51872680Y126624761D02*
X-51920300Y126529523D01*
X-51920300Y126529523D02*
X-51967919Y126481904D01*
X-51967919Y126481904D02*
X-52063157Y126434285D01*
X-52063157Y126434285D02*
X-52301252Y126434285D01*
X-52301252Y126434285D02*
X-52396490Y126481904D01*
X-52396490Y126481904D02*
X-52444109Y126529523D01*
X-52444109Y126529523D02*
X-52491728Y126624761D01*
X-52491728Y126624761D02*
X-52491728Y126815237D01*
X-52491728Y126815237D02*
X-52444109Y126910475D01*
X-52444109Y126910475D02*
X-52396490Y126958094D01*
X-52396490Y126958094D02*
X-52301252Y127005713D01*
X-65525061Y148801904D02*
X-65572680Y148897142D01*
X-65572680Y148897142D02*
X-65572680Y149039999D01*
X-65572680Y149039999D02*
X-65525061Y149182856D01*
X-65525061Y149182856D02*
X-65429823Y149278094D01*
X-65429823Y149278094D02*
X-65334585Y149325713D01*
X-65334585Y149325713D02*
X-65144109Y149373332D01*
X-65144109Y149373332D02*
X-65001252Y149373332D01*
X-65001252Y149373332D02*
X-64810776Y149325713D01*
X-64810776Y149325713D02*
X-64715538Y149278094D01*
X-64715538Y149278094D02*
X-64620300Y149182856D01*
X-64620300Y149182856D02*
X-64572680Y149039999D01*
X-64572680Y149039999D02*
X-64572680Y148944761D01*
X-64572680Y148944761D02*
X-64620300Y148801904D01*
X-64620300Y148801904D02*
X-64667919Y148754285D01*
X-64667919Y148754285D02*
X-65001252Y148754285D01*
X-65001252Y148754285D02*
X-65001252Y148944761D01*
X-64572680Y148325713D02*
X-65572680Y148325713D01*
X-65572680Y148325713D02*
X-64572680Y147754285D01*
X-64572680Y147754285D02*
X-65572680Y147754285D01*
X-64572680Y147278094D02*
X-65572680Y147278094D01*
X-65572680Y147278094D02*
X-65572680Y147039999D01*
X-65572680Y147039999D02*
X-65525061Y146897142D01*
X-65525061Y146897142D02*
X-65429823Y146801904D01*
X-65429823Y146801904D02*
X-65334585Y146754285D01*
X-65334585Y146754285D02*
X-65144109Y146706666D01*
X-65144109Y146706666D02*
X-65001252Y146706666D01*
X-65001252Y146706666D02*
X-64810776Y146754285D01*
X-64810776Y146754285D02*
X-64715538Y146801904D01*
X-64715538Y146801904D02*
X-64620300Y146897142D01*
X-64620300Y146897142D02*
X-64572680Y147039999D01*
X-64572680Y147039999D02*
X-64572680Y147278094D01*
X-60445061Y149230476D02*
X-60492680Y149325714D01*
X-60492680Y149325714D02*
X-60492680Y149468571D01*
X-60492680Y149468571D02*
X-60445061Y149611428D01*
X-60445061Y149611428D02*
X-60349823Y149706666D01*
X-60349823Y149706666D02*
X-60254585Y149754285D01*
X-60254585Y149754285D02*
X-60064109Y149801904D01*
X-60064109Y149801904D02*
X-59921252Y149801904D01*
X-59921252Y149801904D02*
X-59730776Y149754285D01*
X-59730776Y149754285D02*
X-59635538Y149706666D01*
X-59635538Y149706666D02*
X-59540300Y149611428D01*
X-59540300Y149611428D02*
X-59492680Y149468571D01*
X-59492680Y149468571D02*
X-59492680Y149373333D01*
X-59492680Y149373333D02*
X-59540300Y149230476D01*
X-59540300Y149230476D02*
X-59587919Y149182857D01*
X-59587919Y149182857D02*
X-59921252Y149182857D01*
X-59921252Y149182857D02*
X-59921252Y149373333D01*
X-59492680Y148754285D02*
X-60492680Y148754285D01*
X-60492680Y148754285D02*
X-60492680Y148373333D01*
X-60492680Y148373333D02*
X-60445061Y148278095D01*
X-60445061Y148278095D02*
X-60397442Y148230476D01*
X-60397442Y148230476D02*
X-60302204Y148182857D01*
X-60302204Y148182857D02*
X-60159347Y148182857D01*
X-60159347Y148182857D02*
X-60064109Y148230476D01*
X-60064109Y148230476D02*
X-60016490Y148278095D01*
X-60016490Y148278095D02*
X-59968871Y148373333D01*
X-59968871Y148373333D02*
X-59968871Y148754285D01*
X-60397442Y147801904D02*
X-60445061Y147754285D01*
X-60445061Y147754285D02*
X-60492680Y147659047D01*
X-60492680Y147659047D02*
X-60492680Y147420952D01*
X-60492680Y147420952D02*
X-60445061Y147325714D01*
X-60445061Y147325714D02*
X-60397442Y147278095D01*
X-60397442Y147278095D02*
X-60302204Y147230476D01*
X-60302204Y147230476D02*
X-60206966Y147230476D01*
X-60206966Y147230476D02*
X-60064109Y147278095D01*
X-60064109Y147278095D02*
X-59492680Y147849523D01*
X-59492680Y147849523D02*
X-59492680Y147230476D01*
X-59492680Y146754285D02*
X-59492680Y146563809D01*
X-59492680Y146563809D02*
X-59540300Y146468571D01*
X-59540300Y146468571D02*
X-59587919Y146420952D01*
X-59587919Y146420952D02*
X-59730776Y146325714D01*
X-59730776Y146325714D02*
X-59921252Y146278095D01*
X-59921252Y146278095D02*
X-60302204Y146278095D01*
X-60302204Y146278095D02*
X-60397442Y146325714D01*
X-60397442Y146325714D02*
X-60445061Y146373333D01*
X-60445061Y146373333D02*
X-60492680Y146468571D01*
X-60492680Y146468571D02*
X-60492680Y146659047D01*
X-60492680Y146659047D02*
X-60445061Y146754285D01*
X-60445061Y146754285D02*
X-60397442Y146801904D01*
X-60397442Y146801904D02*
X-60302204Y146849523D01*
X-60302204Y146849523D02*
X-60064109Y146849523D01*
X-60064109Y146849523D02*
X-59968871Y146801904D01*
X-59968871Y146801904D02*
X-59921252Y146754285D01*
X-59921252Y146754285D02*
X-59873633Y146659047D01*
X-59873633Y146659047D02*
X-59873633Y146468571D01*
X-59873633Y146468571D02*
X-59921252Y146373333D01*
X-59921252Y146373333D02*
X-59968871Y146325714D01*
X-59968871Y146325714D02*
X-60064109Y146278095D01*
X-43517023Y135837561D02*
X-43421785Y135885180D01*
X-43421785Y135885180D02*
X-43278928Y135885180D01*
X-43278928Y135885180D02*
X-43136071Y135837561D01*
X-43136071Y135837561D02*
X-43040833Y135742323D01*
X-43040833Y135742323D02*
X-42993214Y135647085D01*
X-42993214Y135647085D02*
X-42945595Y135456609D01*
X-42945595Y135456609D02*
X-42945595Y135313752D01*
X-42945595Y135313752D02*
X-42993214Y135123276D01*
X-42993214Y135123276D02*
X-43040833Y135028038D01*
X-43040833Y135028038D02*
X-43136071Y134932800D01*
X-43136071Y134932800D02*
X-43278928Y134885180D01*
X-43278928Y134885180D02*
X-43374166Y134885180D01*
X-43374166Y134885180D02*
X-43517023Y134932800D01*
X-43517023Y134932800D02*
X-43564642Y134980419D01*
X-43564642Y134980419D02*
X-43564642Y135313752D01*
X-43564642Y135313752D02*
X-43374166Y135313752D01*
X-43993214Y134885180D02*
X-43993214Y135885180D01*
X-43993214Y135885180D02*
X-44374166Y135885180D01*
X-44374166Y135885180D02*
X-44469404Y135837561D01*
X-44469404Y135837561D02*
X-44517023Y135789942D01*
X-44517023Y135789942D02*
X-44564642Y135694704D01*
X-44564642Y135694704D02*
X-44564642Y135551847D01*
X-44564642Y135551847D02*
X-44517023Y135456609D01*
X-44517023Y135456609D02*
X-44469404Y135408990D01*
X-44469404Y135408990D02*
X-44374166Y135361371D01*
X-44374166Y135361371D02*
X-43993214Y135361371D01*
X-45517023Y134885180D02*
X-44945595Y134885180D01*
X-45231309Y134885180D02*
X-45231309Y135885180D01*
X-45231309Y135885180D02*
X-45136071Y135742323D01*
X-45136071Y135742323D02*
X-45040833Y135647085D01*
X-45040833Y135647085D02*
X-44945595Y135599466D01*
X-46136071Y135885180D02*
X-46231309Y135885180D01*
X-46231309Y135885180D02*
X-46326547Y135837561D01*
X-46326547Y135837561D02*
X-46374166Y135789942D01*
X-46374166Y135789942D02*
X-46421785Y135694704D01*
X-46421785Y135694704D02*
X-46469404Y135504228D01*
X-46469404Y135504228D02*
X-46469404Y135266133D01*
X-46469404Y135266133D02*
X-46421785Y135075657D01*
X-46421785Y135075657D02*
X-46374166Y134980419D01*
X-46374166Y134980419D02*
X-46326547Y134932800D01*
X-46326547Y134932800D02*
X-46231309Y134885180D01*
X-46231309Y134885180D02*
X-46136071Y134885180D01*
X-46136071Y134885180D02*
X-46040833Y134932800D01*
X-46040833Y134932800D02*
X-45993214Y134980419D01*
X-45993214Y134980419D02*
X-45945595Y135075657D01*
X-45945595Y135075657D02*
X-45897976Y135266133D01*
X-45897976Y135266133D02*
X-45897976Y135504228D01*
X-45897976Y135504228D02*
X-45945595Y135694704D01*
X-45945595Y135694704D02*
X-45993214Y135789942D01*
X-45993214Y135789942D02*
X-46040833Y135837561D01*
X-46040833Y135837561D02*
X-46136071Y135885180D01*
X-62985061Y128434285D02*
X-63032680Y128529523D01*
X-63032680Y128529523D02*
X-63032680Y128672380D01*
X-63032680Y128672380D02*
X-62985061Y128815237D01*
X-62985061Y128815237D02*
X-62889823Y128910475D01*
X-62889823Y128910475D02*
X-62794585Y128958094D01*
X-62794585Y128958094D02*
X-62604109Y129005713D01*
X-62604109Y129005713D02*
X-62461252Y129005713D01*
X-62461252Y129005713D02*
X-62270776Y128958094D01*
X-62270776Y128958094D02*
X-62175538Y128910475D01*
X-62175538Y128910475D02*
X-62080300Y128815237D01*
X-62080300Y128815237D02*
X-62032680Y128672380D01*
X-62032680Y128672380D02*
X-62032680Y128577142D01*
X-62032680Y128577142D02*
X-62080300Y128434285D01*
X-62080300Y128434285D02*
X-62127919Y128386666D01*
X-62127919Y128386666D02*
X-62461252Y128386666D01*
X-62461252Y128386666D02*
X-62461252Y128577142D01*
X-62032680Y127958094D02*
X-63032680Y127958094D01*
X-63032680Y127958094D02*
X-63032680Y127577142D01*
X-63032680Y127577142D02*
X-62985061Y127481904D01*
X-62985061Y127481904D02*
X-62937442Y127434285D01*
X-62937442Y127434285D02*
X-62842204Y127386666D01*
X-62842204Y127386666D02*
X-62699347Y127386666D01*
X-62699347Y127386666D02*
X-62604109Y127434285D01*
X-62604109Y127434285D02*
X-62556490Y127481904D01*
X-62556490Y127481904D02*
X-62508871Y127577142D01*
X-62508871Y127577142D02*
X-62508871Y127958094D01*
X-62937442Y127005713D02*
X-62985061Y126958094D01*
X-62985061Y126958094D02*
X-63032680Y126862856D01*
X-63032680Y126862856D02*
X-63032680Y126624761D01*
X-63032680Y126624761D02*
X-62985061Y126529523D01*
X-62985061Y126529523D02*
X-62937442Y126481904D01*
X-62937442Y126481904D02*
X-62842204Y126434285D01*
X-62842204Y126434285D02*
X-62746966Y126434285D01*
X-62746966Y126434285D02*
X-62604109Y126481904D01*
X-62604109Y126481904D02*
X-62032680Y127053332D01*
X-62032680Y127053332D02*
X-62032680Y126434285D01*
X-43993214Y133297561D02*
X-43897976Y133345180D01*
X-43897976Y133345180D02*
X-43755119Y133345180D01*
X-43755119Y133345180D02*
X-43612262Y133297561D01*
X-43612262Y133297561D02*
X-43517024Y133202323D01*
X-43517024Y133202323D02*
X-43469405Y133107085D01*
X-43469405Y133107085D02*
X-43421786Y132916609D01*
X-43421786Y132916609D02*
X-43421786Y132773752D01*
X-43421786Y132773752D02*
X-43469405Y132583276D01*
X-43469405Y132583276D02*
X-43517024Y132488038D01*
X-43517024Y132488038D02*
X-43612262Y132392800D01*
X-43612262Y132392800D02*
X-43755119Y132345180D01*
X-43755119Y132345180D02*
X-43850357Y132345180D01*
X-43850357Y132345180D02*
X-43993214Y132392800D01*
X-43993214Y132392800D02*
X-44040833Y132440419D01*
X-44040833Y132440419D02*
X-44040833Y132773752D01*
X-44040833Y132773752D02*
X-43850357Y132773752D01*
X-44469405Y132345180D02*
X-44469405Y133345180D01*
X-44469405Y133345180D02*
X-44850357Y133345180D01*
X-44850357Y133345180D02*
X-44945595Y133297561D01*
X-44945595Y133297561D02*
X-44993214Y133249942D01*
X-44993214Y133249942D02*
X-45040833Y133154704D01*
X-45040833Y133154704D02*
X-45040833Y133011847D01*
X-45040833Y133011847D02*
X-44993214Y132916609D01*
X-44993214Y132916609D02*
X-44945595Y132868990D01*
X-44945595Y132868990D02*
X-44850357Y132821371D01*
X-44850357Y132821371D02*
X-44469405Y132821371D01*
X-45517024Y132345180D02*
X-45707500Y132345180D01*
X-45707500Y132345180D02*
X-45802738Y132392800D01*
X-45802738Y132392800D02*
X-45850357Y132440419D01*
X-45850357Y132440419D02*
X-45945595Y132583276D01*
X-45945595Y132583276D02*
X-45993214Y132773752D01*
X-45993214Y132773752D02*
X-45993214Y133154704D01*
X-45993214Y133154704D02*
X-45945595Y133249942D01*
X-45945595Y133249942D02*
X-45897976Y133297561D01*
X-45897976Y133297561D02*
X-45802738Y133345180D01*
X-45802738Y133345180D02*
X-45612262Y133345180D01*
X-45612262Y133345180D02*
X-45517024Y133297561D01*
X-45517024Y133297561D02*
X-45469405Y133249942D01*
X-45469405Y133249942D02*
X-45421786Y133154704D01*
X-45421786Y133154704D02*
X-45421786Y132916609D01*
X-45421786Y132916609D02*
X-45469405Y132821371D01*
X-45469405Y132821371D02*
X-45517024Y132773752D01*
X-45517024Y132773752D02*
X-45612262Y132726133D01*
X-45612262Y132726133D02*
X-45802738Y132726133D01*
X-45802738Y132726133D02*
X-45897976Y132773752D01*
X-45897976Y132773752D02*
X-45945595Y132821371D01*
X-45945595Y132821371D02*
X-45993214Y132916609D01*
X-55365061Y149230476D02*
X-55412680Y149325714D01*
X-55412680Y149325714D02*
X-55412680Y149468571D01*
X-55412680Y149468571D02*
X-55365061Y149611428D01*
X-55365061Y149611428D02*
X-55269823Y149706666D01*
X-55269823Y149706666D02*
X-55174585Y149754285D01*
X-55174585Y149754285D02*
X-54984109Y149801904D01*
X-54984109Y149801904D02*
X-54841252Y149801904D01*
X-54841252Y149801904D02*
X-54650776Y149754285D01*
X-54650776Y149754285D02*
X-54555538Y149706666D01*
X-54555538Y149706666D02*
X-54460300Y149611428D01*
X-54460300Y149611428D02*
X-54412680Y149468571D01*
X-54412680Y149468571D02*
X-54412680Y149373333D01*
X-54412680Y149373333D02*
X-54460300Y149230476D01*
X-54460300Y149230476D02*
X-54507919Y149182857D01*
X-54507919Y149182857D02*
X-54841252Y149182857D01*
X-54841252Y149182857D02*
X-54841252Y149373333D01*
X-54412680Y148754285D02*
X-55412680Y148754285D01*
X-55412680Y148754285D02*
X-55412680Y148373333D01*
X-55412680Y148373333D02*
X-55365061Y148278095D01*
X-55365061Y148278095D02*
X-55317442Y148230476D01*
X-55317442Y148230476D02*
X-55222204Y148182857D01*
X-55222204Y148182857D02*
X-55079347Y148182857D01*
X-55079347Y148182857D02*
X-54984109Y148230476D01*
X-54984109Y148230476D02*
X-54936490Y148278095D01*
X-54936490Y148278095D02*
X-54888871Y148373333D01*
X-54888871Y148373333D02*
X-54888871Y148754285D01*
X-55317442Y147801904D02*
X-55365061Y147754285D01*
X-55365061Y147754285D02*
X-55412680Y147659047D01*
X-55412680Y147659047D02*
X-55412680Y147420952D01*
X-55412680Y147420952D02*
X-55365061Y147325714D01*
X-55365061Y147325714D02*
X-55317442Y147278095D01*
X-55317442Y147278095D02*
X-55222204Y147230476D01*
X-55222204Y147230476D02*
X-55126966Y147230476D01*
X-55126966Y147230476D02*
X-54984109Y147278095D01*
X-54984109Y147278095D02*
X-54412680Y147849523D01*
X-54412680Y147849523D02*
X-54412680Y147230476D01*
X-55412680Y146897142D02*
X-55412680Y146230476D01*
X-55412680Y146230476D02*
X-54412680Y146659047D01*
X-57905061Y128434285D02*
X-57952680Y128529523D01*
X-57952680Y128529523D02*
X-57952680Y128672380D01*
X-57952680Y128672380D02*
X-57905061Y128815237D01*
X-57905061Y128815237D02*
X-57809823Y128910475D01*
X-57809823Y128910475D02*
X-57714585Y128958094D01*
X-57714585Y128958094D02*
X-57524109Y129005713D01*
X-57524109Y129005713D02*
X-57381252Y129005713D01*
X-57381252Y129005713D02*
X-57190776Y128958094D01*
X-57190776Y128958094D02*
X-57095538Y128910475D01*
X-57095538Y128910475D02*
X-57000300Y128815237D01*
X-57000300Y128815237D02*
X-56952680Y128672380D01*
X-56952680Y128672380D02*
X-56952680Y128577142D01*
X-56952680Y128577142D02*
X-57000300Y128434285D01*
X-57000300Y128434285D02*
X-57047919Y128386666D01*
X-57047919Y128386666D02*
X-57381252Y128386666D01*
X-57381252Y128386666D02*
X-57381252Y128577142D01*
X-56952680Y127958094D02*
X-57952680Y127958094D01*
X-57952680Y127958094D02*
X-57952680Y127577142D01*
X-57952680Y127577142D02*
X-57905061Y127481904D01*
X-57905061Y127481904D02*
X-57857442Y127434285D01*
X-57857442Y127434285D02*
X-57762204Y127386666D01*
X-57762204Y127386666D02*
X-57619347Y127386666D01*
X-57619347Y127386666D02*
X-57524109Y127434285D01*
X-57524109Y127434285D02*
X-57476490Y127481904D01*
X-57476490Y127481904D02*
X-57428871Y127577142D01*
X-57428871Y127577142D02*
X-57428871Y127958094D01*
X-57619347Y126529523D02*
X-56952680Y126529523D01*
X-58000300Y126767618D02*
X-57286014Y127005713D01*
X-57286014Y127005713D02*
X-57286014Y126386666D01*
X-43517023Y138377561D02*
X-43421785Y138425180D01*
X-43421785Y138425180D02*
X-43278928Y138425180D01*
X-43278928Y138425180D02*
X-43136071Y138377561D01*
X-43136071Y138377561D02*
X-43040833Y138282323D01*
X-43040833Y138282323D02*
X-42993214Y138187085D01*
X-42993214Y138187085D02*
X-42945595Y137996609D01*
X-42945595Y137996609D02*
X-42945595Y137853752D01*
X-42945595Y137853752D02*
X-42993214Y137663276D01*
X-42993214Y137663276D02*
X-43040833Y137568038D01*
X-43040833Y137568038D02*
X-43136071Y137472800D01*
X-43136071Y137472800D02*
X-43278928Y137425180D01*
X-43278928Y137425180D02*
X-43374166Y137425180D01*
X-43374166Y137425180D02*
X-43517023Y137472800D01*
X-43517023Y137472800D02*
X-43564642Y137520419D01*
X-43564642Y137520419D02*
X-43564642Y137853752D01*
X-43564642Y137853752D02*
X-43374166Y137853752D01*
X-43993214Y137425180D02*
X-43993214Y138425180D01*
X-43993214Y138425180D02*
X-44374166Y138425180D01*
X-44374166Y138425180D02*
X-44469404Y138377561D01*
X-44469404Y138377561D02*
X-44517023Y138329942D01*
X-44517023Y138329942D02*
X-44564642Y138234704D01*
X-44564642Y138234704D02*
X-44564642Y138091847D01*
X-44564642Y138091847D02*
X-44517023Y137996609D01*
X-44517023Y137996609D02*
X-44469404Y137948990D01*
X-44469404Y137948990D02*
X-44374166Y137901371D01*
X-44374166Y137901371D02*
X-43993214Y137901371D01*
X-45517023Y137425180D02*
X-44945595Y137425180D01*
X-45231309Y137425180D02*
X-45231309Y138425180D01*
X-45231309Y138425180D02*
X-45136071Y138282323D01*
X-45136071Y138282323D02*
X-45040833Y138187085D01*
X-45040833Y138187085D02*
X-44945595Y138139466D01*
X-46469404Y137425180D02*
X-45897976Y137425180D01*
X-46183690Y137425180D02*
X-46183690Y138425180D01*
X-46183690Y138425180D02*
X-46088452Y138282323D01*
X-46088452Y138282323D02*
X-45993214Y138187085D01*
X-45993214Y138187085D02*
X-45897976Y138139466D01*
X-65525061Y128434285D02*
X-65572680Y128529523D01*
X-65572680Y128529523D02*
X-65572680Y128672380D01*
X-65572680Y128672380D02*
X-65525061Y128815237D01*
X-65525061Y128815237D02*
X-65429823Y128910475D01*
X-65429823Y128910475D02*
X-65334585Y128958094D01*
X-65334585Y128958094D02*
X-65144109Y129005713D01*
X-65144109Y129005713D02*
X-65001252Y129005713D01*
X-65001252Y129005713D02*
X-64810776Y128958094D01*
X-64810776Y128958094D02*
X-64715538Y128910475D01*
X-64715538Y128910475D02*
X-64620300Y128815237D01*
X-64620300Y128815237D02*
X-64572680Y128672380D01*
X-64572680Y128672380D02*
X-64572680Y128577142D01*
X-64572680Y128577142D02*
X-64620300Y128434285D01*
X-64620300Y128434285D02*
X-64667919Y128386666D01*
X-64667919Y128386666D02*
X-65001252Y128386666D01*
X-65001252Y128386666D02*
X-65001252Y128577142D01*
X-64572680Y127958094D02*
X-65572680Y127958094D01*
X-65572680Y127958094D02*
X-65572680Y127577142D01*
X-65572680Y127577142D02*
X-65525061Y127481904D01*
X-65525061Y127481904D02*
X-65477442Y127434285D01*
X-65477442Y127434285D02*
X-65382204Y127386666D01*
X-65382204Y127386666D02*
X-65239347Y127386666D01*
X-65239347Y127386666D02*
X-65144109Y127434285D01*
X-65144109Y127434285D02*
X-65096490Y127481904D01*
X-65096490Y127481904D02*
X-65048871Y127577142D01*
X-65048871Y127577142D02*
X-65048871Y127958094D01*
X-64572680Y126434285D02*
X-64572680Y127005713D01*
X-64572680Y126719999D02*
X-65572680Y126719999D01*
X-65572680Y126719999D02*
X-65429823Y126815237D01*
X-65429823Y126815237D02*
X-65334585Y126910475D01*
X-65334585Y126910475D02*
X-65286966Y127005713D01*
X-47745061Y128434285D02*
X-47792680Y128529523D01*
X-47792680Y128529523D02*
X-47792680Y128672380D01*
X-47792680Y128672380D02*
X-47745061Y128815237D01*
X-47745061Y128815237D02*
X-47649823Y128910475D01*
X-47649823Y128910475D02*
X-47554585Y128958094D01*
X-47554585Y128958094D02*
X-47364109Y129005713D01*
X-47364109Y129005713D02*
X-47221252Y129005713D01*
X-47221252Y129005713D02*
X-47030776Y128958094D01*
X-47030776Y128958094D02*
X-46935538Y128910475D01*
X-46935538Y128910475D02*
X-46840300Y128815237D01*
X-46840300Y128815237D02*
X-46792680Y128672380D01*
X-46792680Y128672380D02*
X-46792680Y128577142D01*
X-46792680Y128577142D02*
X-46840300Y128434285D01*
X-46840300Y128434285D02*
X-46887919Y128386666D01*
X-46887919Y128386666D02*
X-47221252Y128386666D01*
X-47221252Y128386666D02*
X-47221252Y128577142D01*
X-46792680Y127958094D02*
X-47792680Y127958094D01*
X-47792680Y127958094D02*
X-47792680Y127577142D01*
X-47792680Y127577142D02*
X-47745061Y127481904D01*
X-47745061Y127481904D02*
X-47697442Y127434285D01*
X-47697442Y127434285D02*
X-47602204Y127386666D01*
X-47602204Y127386666D02*
X-47459347Y127386666D01*
X-47459347Y127386666D02*
X-47364109Y127434285D01*
X-47364109Y127434285D02*
X-47316490Y127481904D01*
X-47316490Y127481904D02*
X-47268871Y127577142D01*
X-47268871Y127577142D02*
X-47268871Y127958094D01*
X-47364109Y126815237D02*
X-47411728Y126910475D01*
X-47411728Y126910475D02*
X-47459347Y126958094D01*
X-47459347Y126958094D02*
X-47554585Y127005713D01*
X-47554585Y127005713D02*
X-47602204Y127005713D01*
X-47602204Y127005713D02*
X-47697442Y126958094D01*
X-47697442Y126958094D02*
X-47745061Y126910475D01*
X-47745061Y126910475D02*
X-47792680Y126815237D01*
X-47792680Y126815237D02*
X-47792680Y126624761D01*
X-47792680Y126624761D02*
X-47745061Y126529523D01*
X-47745061Y126529523D02*
X-47697442Y126481904D01*
X-47697442Y126481904D02*
X-47602204Y126434285D01*
X-47602204Y126434285D02*
X-47554585Y126434285D01*
X-47554585Y126434285D02*
X-47459347Y126481904D01*
X-47459347Y126481904D02*
X-47411728Y126529523D01*
X-47411728Y126529523D02*
X-47364109Y126624761D01*
X-47364109Y126624761D02*
X-47364109Y126815237D01*
X-47364109Y126815237D02*
X-47316490Y126910475D01*
X-47316490Y126910475D02*
X-47268871Y126958094D01*
X-47268871Y126958094D02*
X-47173633Y127005713D01*
X-47173633Y127005713D02*
X-46983157Y127005713D01*
X-46983157Y127005713D02*
X-46887919Y126958094D01*
X-46887919Y126958094D02*
X-46840300Y126910475D01*
X-46840300Y126910475D02*
X-46792680Y126815237D01*
X-46792680Y126815237D02*
X-46792680Y126624761D01*
X-46792680Y126624761D02*
X-46840300Y126529523D01*
X-46840300Y126529523D02*
X-46887919Y126481904D01*
X-46887919Y126481904D02*
X-46983157Y126434285D01*
X-46983157Y126434285D02*
X-47173633Y126434285D01*
X-47173633Y126434285D02*
X-47268871Y126481904D01*
X-47268871Y126481904D02*
X-47316490Y126529523D01*
X-47316490Y126529523D02*
X-47364109Y126624761D01*
X-47745061Y149230476D02*
X-47792680Y149325714D01*
X-47792680Y149325714D02*
X-47792680Y149468571D01*
X-47792680Y149468571D02*
X-47745061Y149611428D01*
X-47745061Y149611428D02*
X-47649823Y149706666D01*
X-47649823Y149706666D02*
X-47554585Y149754285D01*
X-47554585Y149754285D02*
X-47364109Y149801904D01*
X-47364109Y149801904D02*
X-47221252Y149801904D01*
X-47221252Y149801904D02*
X-47030776Y149754285D01*
X-47030776Y149754285D02*
X-46935538Y149706666D01*
X-46935538Y149706666D02*
X-46840300Y149611428D01*
X-46840300Y149611428D02*
X-46792680Y149468571D01*
X-46792680Y149468571D02*
X-46792680Y149373333D01*
X-46792680Y149373333D02*
X-46840300Y149230476D01*
X-46840300Y149230476D02*
X-46887919Y149182857D01*
X-46887919Y149182857D02*
X-47221252Y149182857D01*
X-47221252Y149182857D02*
X-47221252Y149373333D01*
X-46792680Y148754285D02*
X-47792680Y148754285D01*
X-47792680Y148754285D02*
X-47792680Y148373333D01*
X-47792680Y148373333D02*
X-47745061Y148278095D01*
X-47745061Y148278095D02*
X-47697442Y148230476D01*
X-47697442Y148230476D02*
X-47602204Y148182857D01*
X-47602204Y148182857D02*
X-47459347Y148182857D01*
X-47459347Y148182857D02*
X-47364109Y148230476D01*
X-47364109Y148230476D02*
X-47316490Y148278095D01*
X-47316490Y148278095D02*
X-47268871Y148373333D01*
X-47268871Y148373333D02*
X-47268871Y148754285D01*
X-46792680Y147230476D02*
X-46792680Y147801904D01*
X-46792680Y147516190D02*
X-47792680Y147516190D01*
X-47792680Y147516190D02*
X-47649823Y147611428D01*
X-47649823Y147611428D02*
X-47554585Y147706666D01*
X-47554585Y147706666D02*
X-47506966Y147801904D01*
X-47459347Y146373333D02*
X-46792680Y146373333D01*
X-47840300Y146611428D02*
X-47126014Y146849523D01*
X-47126014Y146849523D02*
X-47126014Y146230476D01*
%TO.C,D16*%
X74085000Y143130000D02*
X74085000Y141630000D01*
X74085000Y141630000D02*
X79485000Y141630000D01*
X76285000Y142880000D02*
X76285000Y141880000D01*
X76385000Y142380000D02*
X77285000Y142880000D01*
X77285000Y142880000D02*
X77285000Y141880000D01*
X77285000Y141880000D02*
X76385000Y142380000D01*
X79485000Y143130000D02*
X74085000Y143130000D01*
X79485000Y141630000D02*
X79485000Y143130000D01*
%TO.C,SW301*%
X-56500000Y84200000D02*
X-56500000Y87800000D01*
X-56500000Y87800000D02*
X-64700001Y87800000D01*
X-56520000Y85200000D02*
X-56520000Y87450000D01*
D11*
X-56650000Y87600000D02*
X-57900000Y87600000D01*
D12*
X-56700000Y84450000D02*
X-58000000Y84500000D01*
D13*
X-57000000Y87200000D02*
X-57000000Y84700000D01*
D14*
X-58300000Y86000000D02*
X-65000000Y86000000D01*
D10*
X-61300000Y84200000D02*
X-56500000Y84200000D01*
D15*
X-65070000Y86300000D02*
X-65070000Y84060000D01*
D16*
X-66200000Y82800000D02*
X-66200000Y84599999D01*
D12*
X-66350000Y82500000D02*
X-63900000Y82500000D01*
D10*
X-66550000Y82300000D02*
X-63520000Y82300000D01*
X-66550000Y86750000D02*
X-66550000Y82300000D01*
D17*
X-66700000Y85250000D02*
X-66700000Y85900000D01*
D10*
X-66800000Y85150000D02*
X-66600000Y85150000D01*
X-66800000Y85900000D02*
X-66800000Y85150000D01*
X-61300000Y84200000D02*
G75*
G03*
X-63516318Y82321471I-65000J-2170000D01*
G01*
D13*
X-61700000Y84600000D02*
G75*
G03*
X-63916318Y82721471I-65000J-2170000D01*
G01*
D10*
X-64700001Y87800000D02*
G75*
G03*
X-66800000Y85899999I-99999J-2000000D01*
G01*
%TO.C,SW1*%
X-56500000Y122300000D02*
X-56500000Y125900000D01*
X-56500000Y125900000D02*
X-64700001Y125900000D01*
X-56520000Y123300000D02*
X-56520000Y125550000D01*
D11*
X-56650000Y125700000D02*
X-57900000Y125700000D01*
D12*
X-56700000Y122550000D02*
X-58000000Y122600000D01*
D13*
X-57000000Y125300000D02*
X-57000000Y122800000D01*
D14*
X-58300000Y124100000D02*
X-65000000Y124100000D01*
D10*
X-61300000Y122300000D02*
X-56500000Y122300000D01*
D15*
X-65070000Y124400000D02*
X-65070000Y122160000D01*
D16*
X-66200000Y120900000D02*
X-66200000Y122699999D01*
D12*
X-66350000Y120600000D02*
X-63900000Y120600000D01*
D10*
X-66550000Y120400000D02*
X-63520000Y120400000D01*
X-66550000Y124850000D02*
X-66550000Y120400000D01*
D17*
X-66700000Y123350000D02*
X-66700000Y124000000D01*
D10*
X-66800000Y123250000D02*
X-66600000Y123250000D01*
X-66800000Y124000000D02*
X-66800000Y123250000D01*
X-61300000Y122300000D02*
G75*
G03*
X-63516318Y120421471I-65000J-2170000D01*
G01*
D13*
X-61700000Y122700000D02*
G75*
G03*
X-63916318Y120821471I-65000J-2170000D01*
G01*
D10*
X-64700001Y125900000D02*
G75*
G03*
X-66800000Y123999999I-99999J-2000000D01*
G01*
%TO.C,D303*%
X36350000Y137450000D02*
X36350000Y135950000D01*
X36350000Y135950000D02*
X41750000Y135950000D01*
X38550000Y137200000D02*
X38550000Y136200000D01*
X38650000Y136700000D02*
X39550000Y137200000D01*
X39550000Y137200000D02*
X39550000Y136200000D01*
X39550000Y136200000D02*
X38650000Y136700000D01*
X41750000Y137450000D02*
X36350000Y137450000D01*
X41750000Y135950000D02*
X41750000Y137450000D01*
%TO.C,SW27*%
X114950000Y84200000D02*
X114950000Y87800000D01*
X114950000Y87800000D02*
X106749999Y87800000D01*
X114930000Y85200000D02*
X114930000Y87450000D01*
D11*
X114800000Y87600000D02*
X113550000Y87600000D01*
D12*
X114750000Y84450000D02*
X113450000Y84500000D01*
D13*
X114450000Y87200000D02*
X114450000Y84700000D01*
D14*
X113150000Y86000000D02*
X106450000Y86000000D01*
D10*
X110150000Y84200000D02*
X114950000Y84200000D01*
D15*
X106380000Y86300000D02*
X106380000Y84060000D01*
D16*
X105250000Y82800000D02*
X105250000Y84599999D01*
D12*
X105100000Y82500000D02*
X107550000Y82500000D01*
D10*
X104900000Y82300000D02*
X107930000Y82300000D01*
X104900000Y86750000D02*
X104900000Y82300000D01*
D17*
X104750000Y85250000D02*
X104750000Y85900000D01*
D10*
X104650000Y85150000D02*
X104850000Y85150000D01*
X104650000Y85900000D02*
X104650000Y85150000D01*
X110150000Y84200000D02*
G75*
G03*
X107933682Y82321471I-65000J-2170000D01*
G01*
D13*
X109750000Y84600000D02*
G75*
G03*
X107533682Y82721471I-65000J-2170000D01*
G01*
D10*
X106749999Y87800000D02*
G75*
G03*
X104650000Y85899999I-99999J-2000000D01*
G01*
%TO.C,SW30*%
X645000Y65160000D02*
X645000Y68760000D01*
X645000Y68760000D02*
X-7555001Y68760000D01*
X625000Y66160000D02*
X625000Y68410000D01*
D11*
X495000Y68560000D02*
X-755000Y68560000D01*
D12*
X445000Y65410000D02*
X-855000Y65460000D01*
D13*
X145000Y68160000D02*
X145000Y65660000D01*
D14*
X-1155000Y66960000D02*
X-7855000Y66960000D01*
D10*
X-4155000Y65160000D02*
X645000Y65160000D01*
D15*
X-7925000Y67260000D02*
X-7925000Y65020000D01*
D16*
X-9055000Y63760000D02*
X-9055000Y65559999D01*
D12*
X-9205000Y63460000D02*
X-6755000Y63460000D01*
D10*
X-9405000Y63260000D02*
X-6375000Y63260000D01*
X-9405000Y67710000D02*
X-9405000Y63260000D01*
D17*
X-9555000Y66210000D02*
X-9555000Y66860000D01*
D10*
X-9655000Y66110000D02*
X-9455000Y66110000D01*
X-9655000Y66860000D02*
X-9655000Y66110000D01*
X-4155000Y65160000D02*
G75*
G03*
X-6371318Y63281471I-65000J-2170000D01*
G01*
D13*
X-4555000Y65560000D02*
G75*
G03*
X-6771318Y63681471I-65000J-2170000D01*
G01*
D10*
X-7555001Y68760000D02*
G75*
G03*
X-9655000Y66859999I-99999J-2000000D01*
G01*
%TO.C,D15*%
X60505000Y143130000D02*
X60505000Y141630000D01*
X60505000Y141630000D02*
X65905000Y141630000D01*
X62705000Y142880000D02*
X62705000Y141880000D01*
X62805000Y142380000D02*
X63705000Y142880000D01*
X63705000Y142880000D02*
X63705000Y141880000D01*
X63705000Y141880000D02*
X62805000Y142380000D01*
X65905000Y143130000D02*
X60505000Y143130000D01*
X65905000Y141630000D02*
X65905000Y143130000D01*
%TO.C,SW17*%
X114950000Y103250000D02*
X114950000Y106850000D01*
X114950000Y106850000D02*
X106749999Y106850000D01*
X114930000Y104250000D02*
X114930000Y106500000D01*
D11*
X114800000Y106650000D02*
X113550000Y106650000D01*
D12*
X114750000Y103500000D02*
X113450000Y103550000D01*
D13*
X114450000Y106250000D02*
X114450000Y103750000D01*
D14*
X113150000Y105050000D02*
X106450000Y105050000D01*
D10*
X110150000Y103250000D02*
X114950000Y103250000D01*
D15*
X106380000Y105350000D02*
X106380000Y103110000D01*
D16*
X105250000Y101850000D02*
X105250000Y103649999D01*
D12*
X105100000Y101550000D02*
X107550000Y101550000D01*
D10*
X104900000Y101350000D02*
X107930000Y101350000D01*
X104900000Y105800000D02*
X104900000Y101350000D01*
D17*
X104750000Y104300000D02*
X104750000Y104950000D01*
D10*
X104650000Y104200000D02*
X104850000Y104200000D01*
X104650000Y104950000D02*
X104650000Y104200000D01*
X110150000Y103250000D02*
G75*
G03*
X107933682Y101371471I-65000J-2170000D01*
G01*
D13*
X109750000Y103650000D02*
G75*
G03*
X107533682Y101771471I-65000J-2170000D01*
G01*
D10*
X106749999Y106850000D02*
G75*
G03*
X104650000Y104949999I-99999J-2000000D01*
G01*
%TO.C,SW10*%
X-18400000Y103250000D02*
X-18400000Y106850000D01*
X-18400000Y106850000D02*
X-26600001Y106850000D01*
X-18420000Y104250000D02*
X-18420000Y106500000D01*
D11*
X-18550000Y106650000D02*
X-19800000Y106650000D01*
D12*
X-18600000Y103500000D02*
X-19900000Y103550000D01*
D13*
X-18900000Y106250000D02*
X-18900000Y103750000D01*
D14*
X-20200000Y105050000D02*
X-26900000Y105050000D01*
D10*
X-23200000Y103250000D02*
X-18400000Y103250000D01*
D15*
X-26970000Y105350000D02*
X-26970000Y103110000D01*
D16*
X-28100000Y101850000D02*
X-28100000Y103649999D01*
D12*
X-28250000Y101550000D02*
X-25800000Y101550000D01*
D10*
X-28450000Y101350000D02*
X-25420000Y101350000D01*
X-28450000Y105800000D02*
X-28450000Y101350000D01*
D17*
X-28600000Y104300000D02*
X-28600000Y104950000D01*
D10*
X-28700000Y104200000D02*
X-28500000Y104200000D01*
X-28700000Y104950000D02*
X-28700000Y104200000D01*
X-23200000Y103250000D02*
G75*
G03*
X-25416318Y101371471I-65000J-2170000D01*
G01*
D13*
X-23600000Y103650000D02*
G75*
G03*
X-25816318Y101771471I-65000J-2170000D01*
G01*
D10*
X-26600001Y106850000D02*
G75*
G03*
X-28700000Y104949999I-99999J-2000000D01*
G01*
%TO.C,SW15*%
X76850000Y103250000D02*
X76850000Y106850000D01*
X76850000Y106850000D02*
X68649999Y106850000D01*
X76830000Y104250000D02*
X76830000Y106500000D01*
D11*
X76700000Y106650000D02*
X75450000Y106650000D01*
D12*
X76650000Y103500000D02*
X75350000Y103550000D01*
D13*
X76350000Y106250000D02*
X76350000Y103750000D01*
D14*
X75050000Y105050000D02*
X68350000Y105050000D01*
D10*
X72050000Y103250000D02*
X76850000Y103250000D01*
D15*
X68280000Y105350000D02*
X68280000Y103110000D01*
D16*
X67150000Y101850000D02*
X67150000Y103649999D01*
D12*
X67000000Y101550000D02*
X69450000Y101550000D01*
D10*
X66800000Y101350000D02*
X69830000Y101350000D01*
X66800000Y105800000D02*
X66800000Y101350000D01*
D17*
X66650000Y104300000D02*
X66650000Y104950000D01*
D10*
X66550000Y104200000D02*
X66750000Y104200000D01*
X66550000Y104950000D02*
X66550000Y104200000D01*
X72050000Y103250000D02*
G75*
G03*
X69833682Y101371471I-65000J-2170000D01*
G01*
D13*
X71650000Y103650000D02*
G75*
G03*
X69433682Y101771471I-65000J-2170000D01*
G01*
D10*
X68649999Y106850000D02*
G75*
G03*
X66550000Y104949999I-99999J-2000000D01*
G01*
%TO.C,D19*%
X-3970000Y140260000D02*
X-3970000Y138760000D01*
X-3970000Y138760000D02*
X1430000Y138760000D01*
X-1770000Y140010000D02*
X-1770000Y139010000D01*
X-1670000Y139510000D02*
X-770000Y140010000D01*
X-770000Y140010000D02*
X-770000Y139010000D01*
X-770000Y139010000D02*
X-1670000Y139510000D01*
X1430000Y140260000D02*
X-3970000Y140260000D01*
X1430000Y138760000D02*
X1430000Y140260000D01*
%TO.C,D28*%
X-18655000Y143050000D02*
X-18655000Y141550000D01*
X-18655000Y141550000D02*
X-13255000Y141550000D01*
X-16455000Y142800000D02*
X-16455000Y141800000D01*
X-16355000Y142300000D02*
X-15455000Y142800000D01*
X-15455000Y142800000D02*
X-15455000Y141800000D01*
X-15455000Y141800000D02*
X-16355000Y142300000D01*
X-13255000Y143050000D02*
X-18655000Y143050000D01*
X-13255000Y141550000D02*
X-13255000Y143050000D01*
%TO.C,SW28*%
X-37450000Y103250000D02*
X-37450000Y106850000D01*
X-37450000Y106850000D02*
X-45650001Y106850000D01*
X-37470000Y104250000D02*
X-37470000Y106500000D01*
D11*
X-37600000Y106650000D02*
X-38850000Y106650000D01*
D12*
X-37650000Y103500000D02*
X-38950000Y103550000D01*
D13*
X-37950000Y106250000D02*
X-37950000Y103750000D01*
D14*
X-39250000Y105050000D02*
X-45950000Y105050000D01*
D10*
X-42250000Y103250000D02*
X-37450000Y103250000D01*
D15*
X-46020000Y105350000D02*
X-46020000Y103110000D01*
D16*
X-47150000Y101850000D02*
X-47150000Y103649999D01*
D12*
X-47300000Y101550000D02*
X-44850000Y101550000D01*
D10*
X-47500000Y101350000D02*
X-44470000Y101350000D01*
X-47500000Y105800000D02*
X-47500000Y101350000D01*
D17*
X-47650000Y104300000D02*
X-47650000Y104950000D01*
D10*
X-47750000Y104200000D02*
X-47550000Y104200000D01*
X-47750000Y104950000D02*
X-47750000Y104200000D01*
X-42250000Y103250000D02*
G75*
G03*
X-44466318Y101371471I-65000J-2170000D01*
G01*
D13*
X-42650000Y103650000D02*
G75*
G03*
X-44866318Y101771471I-65000J-2170000D01*
G01*
D10*
X-45650001Y106850000D02*
G75*
G03*
X-47750000Y104949999I-99999J-2000000D01*
G01*
%TO.C,D5*%
X18140000Y145860000D02*
X18140000Y144360000D01*
X18140000Y144360000D02*
X23540000Y144360000D01*
X20340000Y145610000D02*
X20340000Y144610000D01*
X20440000Y145110000D02*
X21340000Y145610000D01*
X21340000Y145610000D02*
X21340000Y144610000D01*
X21340000Y144610000D02*
X20440000Y145110000D01*
X23540000Y145860000D02*
X18140000Y145860000D01*
X23540000Y144360000D02*
X23540000Y145860000D01*
%TO.C,SW19*%
X-18400000Y84200000D02*
X-18400000Y87800000D01*
X-18400000Y87800000D02*
X-26600001Y87800000D01*
X-18420000Y85200000D02*
X-18420000Y87450000D01*
D11*
X-18550000Y87600000D02*
X-19800000Y87600000D01*
D12*
X-18600000Y84450000D02*
X-19900000Y84500000D01*
D13*
X-18900000Y87200000D02*
X-18900000Y84700000D01*
D14*
X-20200000Y86000000D02*
X-26900000Y86000000D01*
D10*
X-23200000Y84200000D02*
X-18400000Y84200000D01*
D15*
X-26970000Y86300000D02*
X-26970000Y84060000D01*
D16*
X-28100000Y82800000D02*
X-28100000Y84599999D01*
D12*
X-28250000Y82500000D02*
X-25800000Y82500000D01*
D10*
X-28450000Y82300000D02*
X-25420000Y82300000D01*
X-28450000Y86750000D02*
X-28450000Y82300000D01*
D17*
X-28600000Y85250000D02*
X-28600000Y85900000D01*
D10*
X-28700000Y85150000D02*
X-28500000Y85150000D01*
X-28700000Y85900000D02*
X-28700000Y85150000D01*
X-23200000Y84200000D02*
G75*
G03*
X-25416318Y82321471I-65000J-2170000D01*
G01*
D13*
X-23600000Y84600000D02*
G75*
G03*
X-25816318Y82721471I-65000J-2170000D01*
G01*
D10*
X-26600001Y87800000D02*
G75*
G03*
X-28700000Y85899999I-99999J-2000000D01*
G01*
%TO.C,D24*%
X62605000Y140420000D02*
X62605000Y138920000D01*
X62605000Y138920000D02*
X68005000Y138920000D01*
X64805000Y140170000D02*
X64805000Y139170000D01*
X64905000Y139670000D02*
X65805000Y140170000D01*
X65805000Y140170000D02*
X65805000Y139170000D01*
X65805000Y139170000D02*
X64905000Y139670000D01*
X68005000Y140420000D02*
X62605000Y140420000D01*
X68005000Y138920000D02*
X68005000Y140420000D01*
%TO.C,D14*%
X46185000Y143180000D02*
X46185000Y141680000D01*
X46185000Y141680000D02*
X51585000Y141680000D01*
X48385000Y142930000D02*
X48385000Y141930000D01*
X48485000Y142430000D02*
X49385000Y142930000D01*
X49385000Y142930000D02*
X49385000Y141930000D01*
X49385000Y141930000D02*
X48485000Y142430000D01*
X51585000Y143180000D02*
X46185000Y143180000D01*
X51585000Y141680000D02*
X51585000Y143180000D01*
%TO.C,D302*%
X-2095000Y137380000D02*
X-2095000Y135880000D01*
X-2095000Y135880000D02*
X3305000Y135880000D01*
X105000Y137130000D02*
X105000Y136130000D01*
X205000Y136630000D02*
X1105000Y137130000D01*
X1105000Y137130000D02*
X1105000Y136130000D01*
X1105000Y136130000D02*
X205000Y136630000D01*
X3305000Y137380000D02*
X-2095000Y137380000D01*
X3305000Y135880000D02*
X3305000Y137380000D01*
%TO.C,SW13*%
X38750000Y103250000D02*
X38750000Y106850000D01*
X38750000Y106850000D02*
X30549999Y106850000D01*
X38730000Y104250000D02*
X38730000Y106500000D01*
D11*
X38600000Y106650000D02*
X37350000Y106650000D01*
D12*
X38550000Y103500000D02*
X37250000Y103550000D01*
D13*
X38250000Y106250000D02*
X38250000Y103750000D01*
D14*
X36950000Y105050000D02*
X30250000Y105050000D01*
D10*
X33950000Y103250000D02*
X38750000Y103250000D01*
D15*
X30180000Y105350000D02*
X30180000Y103110000D01*
D16*
X29050000Y101850000D02*
X29050000Y103649999D01*
D12*
X28900000Y101550000D02*
X31350000Y101550000D01*
D10*
X28700000Y101350000D02*
X31730000Y101350000D01*
X28700000Y105800000D02*
X28700000Y101350000D01*
D17*
X28550000Y104300000D02*
X28550000Y104950000D01*
D10*
X28450000Y104200000D02*
X28650000Y104200000D01*
X28450000Y104950000D02*
X28450000Y104200000D01*
X33950000Y103250000D02*
G75*
G03*
X31733682Y101371471I-65000J-2170000D01*
G01*
D13*
X33550000Y103650000D02*
G75*
G03*
X31333682Y101771471I-65000J-2170000D01*
G01*
D10*
X30549999Y106850000D02*
G75*
G03*
X28450000Y104949999I-99999J-2000000D01*
G01*
%TO.C,SW9*%
X95900000Y122300000D02*
X95900000Y125900000D01*
X95900000Y125900000D02*
X87699999Y125900000D01*
X95880000Y123300000D02*
X95880000Y125550000D01*
D11*
X95750000Y125700000D02*
X94500000Y125700000D01*
D12*
X95700000Y122550000D02*
X94400000Y122600000D01*
D13*
X95400000Y125300000D02*
X95400000Y122800000D01*
D14*
X94100000Y124100000D02*
X87400000Y124100000D01*
D10*
X91100000Y122300000D02*
X95900000Y122300000D01*
D15*
X87330000Y124400000D02*
X87330000Y122160000D01*
D16*
X86200000Y120900000D02*
X86200000Y122699999D01*
D12*
X86050000Y120600000D02*
X88500000Y120600000D01*
D10*
X85850000Y120400000D02*
X88880000Y120400000D01*
X85850000Y124850000D02*
X85850000Y120400000D01*
D17*
X85700000Y123350000D02*
X85700000Y124000000D01*
D10*
X85600000Y123250000D02*
X85800000Y123250000D01*
X85600000Y124000000D02*
X85600000Y123250000D01*
X91100000Y122300000D02*
G75*
G03*
X88883682Y120421471I-65000J-2170000D01*
G01*
D13*
X90700000Y122700000D02*
G75*
G03*
X88483682Y120821471I-65000J-2170000D01*
G01*
D10*
X87699999Y125900000D02*
G75*
G03*
X85600000Y123999999I-99999J-2000000D01*
G01*
%TO.C,D21*%
X21955000Y140330000D02*
X21955000Y138830000D01*
X21955000Y138830000D02*
X27355000Y138830000D01*
X24155000Y140080000D02*
X24155000Y139080000D01*
X24255000Y139580000D02*
X25155000Y140080000D01*
X25155000Y140080000D02*
X25155000Y139080000D01*
X25155000Y139080000D02*
X24255000Y139580000D01*
X27355000Y140330000D02*
X21955000Y140330000D01*
X27355000Y138830000D02*
X27355000Y140330000D01*
%TO.C,SW31*%
X57800000Y65150000D02*
X57800000Y68750000D01*
X57800000Y68750000D02*
X49599999Y68750000D01*
X57780000Y66150000D02*
X57780000Y68400000D01*
D11*
X57650000Y68550000D02*
X56400000Y68550000D01*
D12*
X57600000Y65400000D02*
X56300000Y65450000D01*
D13*
X57300000Y68150000D02*
X57300000Y65650000D01*
D14*
X56000000Y66950000D02*
X49300000Y66950000D01*
D10*
X53000000Y65150000D02*
X57800000Y65150000D01*
D15*
X49230000Y67250000D02*
X49230000Y65010000D01*
D16*
X48100000Y63750000D02*
X48100000Y65549999D01*
D12*
X47950000Y63450000D02*
X50400000Y63450000D01*
D10*
X47750000Y63250000D02*
X50780000Y63250000D01*
X47750000Y67700000D02*
X47750000Y63250000D01*
D17*
X47600000Y66200000D02*
X47600000Y66850000D01*
D10*
X47500000Y66100000D02*
X47700000Y66100000D01*
X47500000Y66850000D02*
X47500000Y66100000D01*
X53000000Y65150000D02*
G75*
G03*
X50783682Y63271471I-65000J-2170000D01*
G01*
D13*
X52600000Y65550000D02*
G75*
G03*
X50383682Y63671471I-65000J-2170000D01*
G01*
D10*
X49599999Y68750000D02*
G75*
G03*
X47500000Y66849999I-99999J-2000000D01*
G01*
%TO.C,D20*%
X8980000Y140250000D02*
X8980000Y138750000D01*
X8980000Y138750000D02*
X14380000Y138750000D01*
X11180000Y140000000D02*
X11180000Y139000000D01*
X11280000Y139500000D02*
X12180000Y140000000D01*
X12180000Y140000000D02*
X12180000Y139000000D01*
X12180000Y139000000D02*
X11280000Y139500000D01*
X14380000Y140250000D02*
X8980000Y140250000D01*
X14380000Y138750000D02*
X14380000Y140250000D01*
%TO.C,SW202*%
X95900000Y65150000D02*
X95900000Y68750000D01*
X95900000Y68750000D02*
X87699999Y68750000D01*
X95880000Y66150000D02*
X95880000Y68400000D01*
D11*
X95750000Y68550000D02*
X94500000Y68550000D01*
D12*
X95700000Y65400000D02*
X94400000Y65450000D01*
D13*
X95400000Y68150000D02*
X95400000Y65650000D01*
D14*
X94100000Y66950000D02*
X87400000Y66950000D01*
D10*
X91100000Y65150000D02*
X95900000Y65150000D01*
D15*
X87330000Y67250000D02*
X87330000Y65010000D01*
D16*
X86200000Y63750000D02*
X86200000Y65549999D01*
D12*
X86050000Y63450000D02*
X88500000Y63450000D01*
D10*
X85850000Y63250000D02*
X88880000Y63250000D01*
X85850000Y67700000D02*
X85850000Y63250000D01*
D17*
X85700000Y66200000D02*
X85700000Y66850000D01*
D10*
X85600000Y66100000D02*
X85800000Y66100000D01*
X85600000Y66850000D02*
X85600000Y66100000D01*
X91100000Y65150000D02*
G75*
G03*
X88883682Y63271471I-65000J-2170000D01*
G01*
D13*
X90700000Y65550000D02*
G75*
G03*
X88483682Y63671471I-65000J-2170000D01*
G01*
D10*
X87699999Y68750000D02*
G75*
G03*
X85600000Y66849999I-99999J-2000000D01*
G01*
%TO.C,D26*%
X-27985000Y137340000D02*
X-27985000Y135840000D01*
X-27985000Y135840000D02*
X-22585000Y135840000D01*
X-25785000Y137090000D02*
X-25785000Y136090000D01*
X-25685000Y136590000D02*
X-24785000Y137090000D01*
X-24785000Y137090000D02*
X-24785000Y136090000D01*
X-24785000Y136090000D02*
X-25685000Y136590000D01*
X-22585000Y137340000D02*
X-27985000Y137340000D01*
X-22585000Y135840000D02*
X-22585000Y137340000D01*
%TO.C,D13*%
X32880000Y143030000D02*
X32880000Y141530000D01*
X32880000Y141530000D02*
X38280000Y141530000D01*
X35080000Y142780000D02*
X35080000Y141780000D01*
X35180000Y142280000D02*
X36080000Y142780000D01*
X36080000Y142780000D02*
X36080000Y141780000D01*
X36080000Y141780000D02*
X35180000Y142280000D01*
X38280000Y143030000D02*
X32880000Y143030000D01*
X38280000Y141530000D02*
X38280000Y143030000D01*
%TO.C,D1*%
X-33815000Y145920000D02*
X-33815000Y144420000D01*
X-33815000Y144420000D02*
X-28415000Y144420000D01*
X-31615000Y145670000D02*
X-31615000Y144670000D01*
X-31515000Y145170000D02*
X-30615000Y145670000D01*
X-30615000Y145670000D02*
X-30615000Y144670000D01*
X-30615000Y144670000D02*
X-31515000Y145170000D01*
X-28415000Y145920000D02*
X-33815000Y145920000D01*
X-28415000Y144420000D02*
X-28415000Y145920000D01*
%TO.C,SW29*%
X76850000Y65150000D02*
X76850000Y68750000D01*
X76850000Y68750000D02*
X68649999Y68750000D01*
X76830000Y66150000D02*
X76830000Y68400000D01*
D11*
X76700000Y68550000D02*
X75450000Y68550000D01*
D12*
X76650000Y65400000D02*
X75350000Y65450000D01*
D13*
X76350000Y68150000D02*
X76350000Y65650000D01*
D14*
X75050000Y66950000D02*
X68350000Y66950000D01*
D10*
X72050000Y65150000D02*
X76850000Y65150000D01*
D15*
X68280000Y67250000D02*
X68280000Y65010000D01*
D16*
X67150000Y63750000D02*
X67150000Y65549999D01*
D12*
X67000000Y63450000D02*
X69450000Y63450000D01*
D10*
X66800000Y63250000D02*
X69830000Y63250000D01*
X66800000Y67700000D02*
X66800000Y63250000D01*
D17*
X66650000Y66200000D02*
X66650000Y66850000D01*
D10*
X66550000Y66100000D02*
X66750000Y66100000D01*
X66550000Y66850000D02*
X66550000Y66100000D01*
X72050000Y65150000D02*
G75*
G03*
X69833682Y63271471I-65000J-2170000D01*
G01*
D13*
X71650000Y65550000D02*
G75*
G03*
X69433682Y63671471I-65000J-2170000D01*
G01*
D10*
X68649999Y68750000D02*
G75*
G03*
X66550000Y66849999I-99999J-2000000D01*
G01*
%TO.C,SW3*%
X-18400000Y122300000D02*
X-18400000Y125900000D01*
X-18400000Y125900000D02*
X-26600001Y125900000D01*
X-18420000Y123300000D02*
X-18420000Y125550000D01*
D11*
X-18550000Y125700000D02*
X-19800000Y125700000D01*
D12*
X-18600000Y122550000D02*
X-19900000Y122600000D01*
D13*
X-18900000Y125300000D02*
X-18900000Y122800000D01*
D14*
X-20200000Y124100000D02*
X-26900000Y124100000D01*
D10*
X-23200000Y122300000D02*
X-18400000Y122300000D01*
D15*
X-26970000Y124400000D02*
X-26970000Y122160000D01*
D16*
X-28100000Y120900000D02*
X-28100000Y122699999D01*
D12*
X-28250000Y120600000D02*
X-25800000Y120600000D01*
D10*
X-28450000Y120400000D02*
X-25420000Y120400000D01*
X-28450000Y124850000D02*
X-28450000Y120400000D01*
D17*
X-28600000Y123350000D02*
X-28600000Y124000000D01*
D10*
X-28700000Y123250000D02*
X-28500000Y123250000D01*
X-28700000Y124000000D02*
X-28700000Y123250000D01*
X-23200000Y122300000D02*
G75*
G03*
X-25416318Y120421471I-65000J-2170000D01*
G01*
D13*
X-23600000Y122700000D02*
G75*
G03*
X-25816318Y120821471I-65000J-2170000D01*
G01*
D10*
X-26600001Y125900000D02*
G75*
G03*
X-28700000Y123999999I-99999J-2000000D01*
G01*
%TO.C,SW22*%
X38750000Y84200000D02*
X38750000Y87800000D01*
X38750000Y87800000D02*
X30549999Y87800000D01*
X38730000Y85200000D02*
X38730000Y87450000D01*
D11*
X38600000Y87600000D02*
X37350000Y87600000D01*
D12*
X38550000Y84450000D02*
X37250000Y84500000D01*
D13*
X38250000Y87200000D02*
X38250000Y84700000D01*
D14*
X36950000Y86000000D02*
X30250000Y86000000D01*
D10*
X33950000Y84200000D02*
X38750000Y84200000D01*
D15*
X30180000Y86300000D02*
X30180000Y84060000D01*
D16*
X29050000Y82800000D02*
X29050000Y84599999D01*
D12*
X28900000Y82500000D02*
X31350000Y82500000D01*
D10*
X28700000Y82300000D02*
X31730000Y82300000D01*
X28700000Y86750000D02*
X28700000Y82300000D01*
D17*
X28550000Y85250000D02*
X28550000Y85900000D01*
D10*
X28450000Y85150000D02*
X28650000Y85150000D01*
X28450000Y85900000D02*
X28450000Y85150000D01*
X33950000Y84200000D02*
G75*
G03*
X31733682Y82321471I-65000J-2170000D01*
G01*
D13*
X33550000Y84600000D02*
G75*
G03*
X31333682Y82721471I-65000J-2170000D01*
G01*
D10*
X30549999Y87800000D02*
G75*
G03*
X28450000Y85899999I-99999J-2000000D01*
G01*
%TO.C,D102*%
X-31985000Y143060000D02*
X-31985000Y141560000D01*
X-31985000Y141560000D02*
X-26585000Y141560000D01*
X-29785000Y142810000D02*
X-29785000Y141810000D01*
X-29685000Y142310000D02*
X-28785000Y142810000D01*
X-28785000Y142810000D02*
X-28785000Y141810000D01*
X-28785000Y141810000D02*
X-29685000Y142310000D01*
X-26585000Y143060000D02*
X-31985000Y143060000D01*
X-26585000Y141560000D02*
X-26585000Y143060000D01*
%TO.C,D23*%
X48155000Y140370000D02*
X48155000Y138870000D01*
X48155000Y138870000D02*
X53555000Y138870000D01*
X50355000Y140120000D02*
X50355000Y139120000D01*
X50455000Y139620000D02*
X51355000Y140120000D01*
X51355000Y140120000D02*
X51355000Y139120000D01*
X51355000Y139120000D02*
X50455000Y139620000D01*
X53555000Y140370000D02*
X48155000Y140370000D01*
X53555000Y138870000D02*
X53555000Y140370000D01*
%TO.C,D9*%
X72105000Y145940000D02*
X72105000Y144440000D01*
X72105000Y144440000D02*
X77505000Y144440000D01*
X74305000Y145690000D02*
X74305000Y144690000D01*
X74405000Y145190000D02*
X75305000Y145690000D01*
X75305000Y145690000D02*
X75305000Y144690000D01*
X75305000Y144690000D02*
X74405000Y145190000D01*
X77505000Y145940000D02*
X72105000Y145940000D01*
X77505000Y144440000D02*
X77505000Y145940000D01*
%TO.C,SW12*%
X19700000Y103250000D02*
X19700000Y106850000D01*
X19700000Y106850000D02*
X11499999Y106850000D01*
X19680000Y104250000D02*
X19680000Y106500000D01*
D11*
X19550000Y106650000D02*
X18300000Y106650000D01*
D12*
X19500000Y103500000D02*
X18200000Y103550000D01*
D13*
X19200000Y106250000D02*
X19200000Y103750000D01*
D14*
X17900000Y105050000D02*
X11200000Y105050000D01*
D10*
X14900000Y103250000D02*
X19700000Y103250000D01*
D15*
X11130000Y105350000D02*
X11130000Y103110000D01*
D16*
X10000000Y101850000D02*
X10000000Y103649999D01*
D12*
X9850000Y101550000D02*
X12300000Y101550000D01*
D10*
X9650000Y101350000D02*
X12680000Y101350000D01*
X9650000Y105800000D02*
X9650000Y101350000D01*
D17*
X9500000Y104300000D02*
X9500000Y104950000D01*
D10*
X9400000Y104200000D02*
X9600000Y104200000D01*
X9400000Y104950000D02*
X9400000Y104200000D01*
X14900000Y103250000D02*
G75*
G03*
X12683682Y101371471I-65000J-2170000D01*
G01*
D13*
X14500000Y103650000D02*
G75*
G03*
X12283682Y101771471I-65000J-2170000D01*
G01*
D10*
X11499999Y106850000D02*
G75*
G03*
X9400000Y104949999I-99999J-2000000D01*
G01*
%TO.C,D29*%
X64550000Y137510000D02*
X64550000Y136010000D01*
X64550000Y136010000D02*
X69950000Y136010000D01*
X66750000Y137260000D02*
X66750000Y136260000D01*
X66850000Y136760000D02*
X67750000Y137260000D01*
X67750000Y137260000D02*
X67750000Y136260000D01*
X67750000Y136260000D02*
X66850000Y136760000D01*
X69950000Y137510000D02*
X64550000Y137510000D01*
X69950000Y136010000D02*
X69950000Y137510000D01*
%TO.C,SW102*%
X-56500000Y103250000D02*
X-56500000Y106850000D01*
X-56500000Y106850000D02*
X-64700001Y106850000D01*
X-56520000Y104250000D02*
X-56520000Y106500000D01*
D11*
X-56650000Y106650000D02*
X-57900000Y106650000D01*
D12*
X-56700000Y103500000D02*
X-58000000Y103550000D01*
D13*
X-57000000Y106250000D02*
X-57000000Y103750000D01*
D14*
X-58300000Y105050000D02*
X-65000000Y105050000D01*
D10*
X-61300000Y103250000D02*
X-56500000Y103250000D01*
D15*
X-65070000Y105350000D02*
X-65070000Y103110000D01*
D16*
X-66200000Y101850000D02*
X-66200000Y103649999D01*
D12*
X-66350000Y101550000D02*
X-63900000Y101550000D01*
D10*
X-66550000Y101350000D02*
X-63520000Y101350000D01*
X-66550000Y105800000D02*
X-66550000Y101350000D01*
D17*
X-66700000Y104300000D02*
X-66700000Y104950000D01*
D10*
X-66800000Y104200000D02*
X-66600000Y104200000D01*
X-66800000Y104950000D02*
X-66800000Y104200000D01*
X-61300000Y103250000D02*
G75*
G03*
X-63516318Y101371471I-65000J-2170000D01*
G01*
D13*
X-61700000Y103650000D02*
G75*
G03*
X-63916318Y101771471I-65000J-2170000D01*
G01*
D10*
X-64700001Y106850000D02*
G75*
G03*
X-66800000Y104949999I-99999J-2000000D01*
G01*
%TO.C,D101*%
X85135000Y146060000D02*
X85135000Y144560000D01*
X85135000Y144560000D02*
X90535000Y144560000D01*
X87335000Y145810000D02*
X87335000Y144810000D01*
X87435000Y145310000D02*
X88335000Y145810000D01*
X88335000Y145810000D02*
X88335000Y144810000D01*
X88335000Y144810000D02*
X87435000Y145310000D01*
X90535000Y146060000D02*
X85135000Y146060000D01*
X90535000Y144560000D02*
X90535000Y146060000D01*
%TO.C,SW6*%
X38750000Y122300000D02*
X38750000Y125900000D01*
X38750000Y125900000D02*
X30549999Y125900000D01*
X38730000Y123300000D02*
X38730000Y125550000D01*
D11*
X38600000Y125700000D02*
X37350000Y125700000D01*
D12*
X38550000Y122550000D02*
X37250000Y122600000D01*
D13*
X38250000Y125300000D02*
X38250000Y122800000D01*
D14*
X36950000Y124100000D02*
X30250000Y124100000D01*
D10*
X33950000Y122300000D02*
X38750000Y122300000D01*
D15*
X30180000Y124400000D02*
X30180000Y122160000D01*
D16*
X29050000Y120900000D02*
X29050000Y122699999D01*
D12*
X28900000Y120600000D02*
X31350000Y120600000D01*
D10*
X28700000Y120400000D02*
X31730000Y120400000D01*
X28700000Y124850000D02*
X28700000Y120400000D01*
D17*
X28550000Y123350000D02*
X28550000Y124000000D01*
D10*
X28450000Y123250000D02*
X28650000Y123250000D01*
X28450000Y124000000D02*
X28450000Y123250000D01*
X33950000Y122300000D02*
G75*
G03*
X31733682Y120421471I-65000J-2170000D01*
G01*
D13*
X33550000Y122700000D02*
G75*
G03*
X31333682Y120821471I-65000J-2170000D01*
G01*
D10*
X30549999Y125900000D02*
G75*
G03*
X28450000Y123999999I-99999J-2000000D01*
G01*
%TO.C,D22*%
X34615000Y140360000D02*
X34615000Y138860000D01*
X34615000Y138860000D02*
X40015000Y138860000D01*
X36815000Y140110000D02*
X36815000Y139110000D01*
X36915000Y139610000D02*
X37815000Y140110000D01*
X37815000Y140110000D02*
X37815000Y139110000D01*
X37815000Y139110000D02*
X36915000Y139610000D01*
X40015000Y140360000D02*
X34615000Y140360000D01*
X40015000Y138860000D02*
X40015000Y140360000D01*
%TO.C,D301*%
X-30045000Y140310000D02*
X-30045000Y138810000D01*
X-30045000Y138810000D02*
X-24645000Y138810000D01*
X-27845000Y140060000D02*
X-27845000Y139060000D01*
X-27745000Y139560000D02*
X-26845000Y140060000D01*
X-26845000Y140060000D02*
X-26845000Y139060000D01*
X-26845000Y139060000D02*
X-27745000Y139560000D01*
X-24645000Y140310000D02*
X-30045000Y140310000D01*
X-24645000Y138810000D02*
X-24645000Y140310000D01*
%TO.C,D27*%
X93090000Y135150000D02*
X93090000Y133650000D01*
X93090000Y133650000D02*
X98490000Y133650000D01*
X95290000Y134900000D02*
X95290000Y133900000D01*
X95390000Y134400000D02*
X96290000Y134900000D01*
X96290000Y134900000D02*
X96290000Y133900000D01*
X96290000Y133900000D02*
X95390000Y134400000D01*
X98490000Y135150000D02*
X93090000Y135150000D01*
X98490000Y133650000D02*
X98490000Y135150000D01*
%TO.C,D12*%
X20175000Y142970000D02*
X20175000Y141470000D01*
X20175000Y141470000D02*
X25575000Y141470000D01*
X22375000Y142720000D02*
X22375000Y141720000D01*
X22475000Y142220000D02*
X23375000Y142720000D01*
X23375000Y142720000D02*
X23375000Y141720000D01*
X23375000Y141720000D02*
X22475000Y142220000D01*
X25575000Y142970000D02*
X20175000Y142970000D01*
X25575000Y141470000D02*
X25575000Y142970000D01*
%TO.C,SW32*%
X-10905000Y37600000D02*
X-10905000Y41200000D01*
X-10755000Y37400000D02*
X-10755000Y41400000D01*
X-10605000Y37300000D02*
X-10605000Y41500000D01*
X-10455000Y37200000D02*
X-10455000Y41600000D01*
X-10305000Y37150000D02*
X-10305000Y41650000D01*
X-10155000Y37100000D02*
X-10155000Y41650000D01*
X-10005000Y37100000D02*
X-10005000Y41700000D01*
X-9855000Y37100000D02*
X-9855000Y41700000D01*
X-9705000Y37100000D02*
X-9705000Y41700000D01*
X-9555000Y37100000D02*
X-9555000Y41700000D01*
X-9405000Y37100000D02*
X-9405000Y41700000D01*
X-9255000Y37100000D02*
X-9255000Y41700000D01*
X-9105000Y37100000D02*
X-9105000Y41700000D01*
X-8955000Y37100000D02*
X-8955000Y41700000D01*
X-8805000Y37100000D02*
X-8805000Y41700000D01*
X-8655000Y37100000D02*
X-8655000Y41700000D01*
X-8505000Y37100000D02*
X-8505000Y41700000D01*
D18*
X-8405000Y37200000D02*
X-8405000Y41700000D01*
D10*
X-8355000Y37100000D02*
X-8355000Y41700000D01*
X-8205000Y37100000D02*
X-8205000Y41700000D01*
X-8055000Y37100000D02*
X-8055000Y41700000D01*
X-8055000Y37075000D02*
X-10030000Y37075000D01*
X-7905000Y37100000D02*
X-7905000Y41650000D01*
X-7755000Y37050000D02*
X-7755000Y41700000D01*
X-7605000Y37050000D02*
X-7605000Y41700000D01*
X-7480000Y41725000D02*
X-10030000Y41725000D01*
X-7480000Y41725000D02*
X-6205000Y40700000D01*
X-7455000Y37050000D02*
X-7455000Y41650000D01*
X-7305000Y37000000D02*
X-7305000Y41550000D01*
X-7155000Y36900000D02*
X-7155000Y41450000D01*
X-7005000Y36850000D02*
X-7005000Y41300000D01*
X-6855000Y36750000D02*
X-6855000Y41200000D01*
X-6705000Y36650000D02*
X-6705000Y41050000D01*
X-6555000Y36550000D02*
X-6555000Y40950000D01*
X-6405000Y36400000D02*
X-6405000Y40850000D01*
X-6255000Y36250000D02*
X-6255000Y40700000D01*
X-6155000Y36050000D02*
X-6155000Y40200000D01*
X-6055000Y35900000D02*
X-6055000Y40050000D01*
X-5955000Y35700000D02*
X-5955000Y39850000D01*
X-5855000Y35550000D02*
X-5855000Y39750000D01*
X-5755000Y35300000D02*
X-5755000Y39700000D01*
X-5655000Y35150000D02*
X-5655000Y39650000D01*
D18*
X-5555000Y39500000D02*
X-8405000Y37200000D01*
X-5555000Y35150000D02*
X-5555000Y39500000D01*
D10*
X-5505000Y35050000D02*
X-5505000Y39600000D01*
X-5355000Y34950000D02*
X-5355000Y39500000D01*
X-5205000Y34900000D02*
X-5205000Y39500000D01*
X-5055000Y34900000D02*
X-5055000Y39500000D01*
X-4905000Y34900000D02*
X-4905000Y39450000D01*
X-4755000Y34900000D02*
X-4755000Y39500000D01*
X-4605000Y34900000D02*
X-4605000Y39500000D01*
X-4455000Y34900000D02*
X-4455000Y39500000D01*
X-4305000Y34900000D02*
X-4305000Y39500000D01*
X-4155000Y34900000D02*
X-4155000Y39500000D01*
X-4005000Y34900000D02*
X-4005000Y39500000D01*
X-3855000Y34900000D02*
X-3855000Y39500000D01*
X-3705000Y34900000D02*
X-3705000Y39500000D01*
X-3555000Y34900000D02*
X-3555000Y39500000D01*
X-3405000Y34900000D02*
X-3405000Y39500000D01*
X-3255000Y34900000D02*
X-3255000Y39500000D01*
X-3105000Y34900000D02*
X-3105000Y39500000D01*
X-2955000Y34900000D02*
X-2955000Y39500000D01*
D18*
X-2855000Y39450000D02*
X-5555000Y35150000D01*
X-2855000Y35000000D02*
X-2855000Y39450000D01*
D10*
X-2805000Y34900000D02*
X-2805000Y39500000D01*
X-2655000Y34900000D02*
X-2655000Y39500000D01*
X-2505000Y34900000D02*
X-2505000Y39500000D01*
X-2455000Y39525000D02*
X-5030000Y39525000D01*
X-2455000Y39525000D02*
X-1430000Y38500000D01*
X-2455000Y34875000D02*
X-5055000Y34875000D01*
X-2455000Y34875000D02*
X-1430000Y35900000D01*
X-2355000Y35000000D02*
X-2355000Y39400000D01*
X-2205000Y35150000D02*
X-2205000Y39250000D01*
X-2055000Y35300000D02*
X-2055000Y39100000D01*
X-1905000Y35450000D02*
X-1905000Y38950000D01*
X-1805000Y35550000D02*
X-1805000Y38850000D01*
X-1705000Y35650000D02*
X-1705000Y38750000D01*
X-1605000Y35750000D02*
X-1605000Y38650000D01*
X-1455000Y38525000D02*
X-1455000Y35875000D01*
X-10030000Y41725000D02*
G75*
G03*
X-11030000Y40725000I-1J-999999D01*
G01*
X-11030000Y38075000D02*
G75*
G03*
X-10030000Y37075000I999999J-1D01*
G01*
X-5917199Y35578096D02*
G75*
G03*
X-8055000Y37075000I-2137802J-778098D01*
G01*
X-5917198Y35578096D02*
G75*
G03*
X-5055995Y34876210I899999J225000D01*
G01*
X-6205000Y40700000D02*
G75*
G03*
X-5030000Y39525000I1175002J2D01*
G01*
%TO.C,SW5*%
X19700000Y122300000D02*
X19700000Y125900000D01*
X19700000Y125900000D02*
X11499999Y125900000D01*
X19680000Y123300000D02*
X19680000Y125550000D01*
D11*
X19550000Y125700000D02*
X18300000Y125700000D01*
D12*
X19500000Y122550000D02*
X18200000Y122600000D01*
D13*
X19200000Y125300000D02*
X19200000Y122800000D01*
D14*
X17900000Y124100000D02*
X11200000Y124100000D01*
D10*
X14900000Y122300000D02*
X19700000Y122300000D01*
D15*
X11130000Y124400000D02*
X11130000Y122160000D01*
D16*
X10000000Y120900000D02*
X10000000Y122699999D01*
D12*
X9850000Y120600000D02*
X12300000Y120600000D01*
D10*
X9650000Y120400000D02*
X12680000Y120400000D01*
X9650000Y124850000D02*
X9650000Y120400000D01*
D17*
X9500000Y123350000D02*
X9500000Y124000000D01*
D10*
X9400000Y123250000D02*
X9600000Y123250000D01*
X9400000Y124000000D02*
X9400000Y123250000D01*
X14900000Y122300000D02*
G75*
G03*
X12683682Y120421471I-65000J-2170000D01*
G01*
D13*
X14500000Y122700000D02*
G75*
G03*
X12283682Y120821471I-65000J-2170000D01*
G01*
D10*
X11499999Y125900000D02*
G75*
G03*
X9400000Y123999999I-99999J-2000000D01*
G01*
%TO.C,D3*%
X-7535000Y145810000D02*
X-7535000Y144310000D01*
X-7535000Y144310000D02*
X-2135000Y144310000D01*
X-5335000Y145560000D02*
X-5335000Y144560000D01*
X-5235000Y145060000D02*
X-4335000Y145560000D01*
X-4335000Y145560000D02*
X-4335000Y144560000D01*
X-4335000Y144560000D02*
X-5235000Y145060000D01*
X-2135000Y145810000D02*
X-7535000Y145810000D01*
X-2135000Y144310000D02*
X-2135000Y145810000D01*
%TO.C,D30*%
X10705000Y137410000D02*
X10705000Y135910000D01*
X10705000Y135910000D02*
X16105000Y135910000D01*
X12905000Y137160000D02*
X12905000Y136160000D01*
X13005000Y136660000D02*
X13905000Y137160000D01*
X13905000Y137160000D02*
X13905000Y136160000D01*
X13905000Y136160000D02*
X13005000Y136660000D01*
X16105000Y137410000D02*
X10705000Y137410000D01*
X16105000Y135910000D02*
X16105000Y137410000D01*
%TO.C,D8*%
X58445000Y145890000D02*
X58445000Y144390000D01*
X58445000Y144390000D02*
X63845000Y144390000D01*
X60645000Y145640000D02*
X60645000Y144640000D01*
X60745000Y145140000D02*
X61645000Y145640000D01*
X61645000Y145640000D02*
X61645000Y144640000D01*
X61645000Y144640000D02*
X60745000Y145140000D01*
X63845000Y145890000D02*
X58445000Y145890000D01*
X63845000Y144390000D02*
X63845000Y145890000D01*
%TO.C,SW24*%
X76850000Y84200000D02*
X76850000Y87800000D01*
X76850000Y87800000D02*
X68649999Y87800000D01*
X76830000Y85200000D02*
X76830000Y87450000D01*
D11*
X76700000Y87600000D02*
X75450000Y87600000D01*
D12*
X76650000Y84450000D02*
X75350000Y84500000D01*
D13*
X76350000Y87200000D02*
X76350000Y84700000D01*
D14*
X75050000Y86000000D02*
X68350000Y86000000D01*
D10*
X72050000Y84200000D02*
X76850000Y84200000D01*
D15*
X68280000Y86300000D02*
X68280000Y84060000D01*
D16*
X67150000Y82800000D02*
X67150000Y84599999D01*
D12*
X67000000Y82500000D02*
X69450000Y82500000D01*
D10*
X66800000Y82300000D02*
X69830000Y82300000D01*
X66800000Y86750000D02*
X66800000Y82300000D01*
D17*
X66650000Y85250000D02*
X66650000Y85900000D01*
D10*
X66550000Y85150000D02*
X66750000Y85150000D01*
X66550000Y85900000D02*
X66550000Y85150000D01*
X72050000Y84200000D02*
G75*
G03*
X69833682Y82321471I-65000J-2170000D01*
G01*
D13*
X71650000Y84600000D02*
G75*
G03*
X69433682Y82721471I-65000J-2170000D01*
G01*
D10*
X68649999Y87800000D02*
G75*
G03*
X66550000Y85899999I-99999J-2000000D01*
G01*
%TO.C,SW16*%
X95900000Y103250000D02*
X95900000Y106850000D01*
X95900000Y106850000D02*
X87699999Y106850000D01*
X95880000Y104250000D02*
X95880000Y106500000D01*
D11*
X95750000Y106650000D02*
X94500000Y106650000D01*
D12*
X95700000Y103500000D02*
X94400000Y103550000D01*
D13*
X95400000Y106250000D02*
X95400000Y103750000D01*
D14*
X94100000Y105050000D02*
X87400000Y105050000D01*
D10*
X91100000Y103250000D02*
X95900000Y103250000D01*
D15*
X87330000Y105350000D02*
X87330000Y103110000D01*
D16*
X86200000Y101850000D02*
X86200000Y103649999D01*
D12*
X86050000Y101550000D02*
X88500000Y101550000D01*
D10*
X85850000Y101350000D02*
X88880000Y101350000D01*
X85850000Y105800000D02*
X85850000Y101350000D01*
D17*
X85700000Y104300000D02*
X85700000Y104950000D01*
D10*
X85600000Y104200000D02*
X85800000Y104200000D01*
X85600000Y104950000D02*
X85600000Y104200000D01*
X91100000Y103250000D02*
G75*
G03*
X88883682Y101371471I-65000J-2170000D01*
G01*
D13*
X90700000Y103650000D02*
G75*
G03*
X88483682Y101771471I-65000J-2170000D01*
G01*
D10*
X87699999Y106850000D02*
G75*
G03*
X85600000Y104949999I-99999J-2000000D01*
G01*
%TO.C,D201*%
X-15120000Y137380000D02*
X-15120000Y135880000D01*
X-15120000Y135880000D02*
X-9720000Y135880000D01*
X-12920000Y137130000D02*
X-12920000Y136130000D01*
X-12820000Y136630000D02*
X-11920000Y137130000D01*
X-11920000Y137130000D02*
X-11920000Y136130000D01*
X-11920000Y136130000D02*
X-12820000Y136630000D01*
X-9720000Y137380000D02*
X-15120000Y137380000D01*
X-9720000Y135880000D02*
X-9720000Y137380000D01*
%TO.C,SW23*%
X57800000Y84200000D02*
X57800000Y87800000D01*
X57800000Y87800000D02*
X49599999Y87800000D01*
X57780000Y85200000D02*
X57780000Y87450000D01*
D11*
X57650000Y87600000D02*
X56400000Y87600000D01*
D12*
X57600000Y84450000D02*
X56300000Y84500000D01*
D13*
X57300000Y87200000D02*
X57300000Y84700000D01*
D14*
X56000000Y86000000D02*
X49300000Y86000000D01*
D10*
X53000000Y84200000D02*
X57800000Y84200000D01*
D15*
X49230000Y86300000D02*
X49230000Y84060000D01*
D16*
X48100000Y82800000D02*
X48100000Y84599999D01*
D12*
X47950000Y82500000D02*
X50400000Y82500000D01*
D10*
X47750000Y82300000D02*
X50780000Y82300000D01*
X47750000Y86750000D02*
X47750000Y82300000D01*
D17*
X47600000Y85250000D02*
X47600000Y85900000D01*
D10*
X47500000Y85150000D02*
X47700000Y85150000D01*
X47500000Y85900000D02*
X47500000Y85150000D01*
X53000000Y84200000D02*
G75*
G03*
X50783682Y82321471I-65000J-2170000D01*
G01*
D13*
X52600000Y84600000D02*
G75*
G03*
X50383682Y82721471I-65000J-2170000D01*
G01*
D10*
X49599999Y87800000D02*
G75*
G03*
X47500000Y85899999I-99999J-2000000D01*
G01*
%TO.C,SW7*%
X57800000Y122300000D02*
X57800000Y125900000D01*
X57800000Y125900000D02*
X49599999Y125900000D01*
X57780000Y123300000D02*
X57780000Y125550000D01*
D11*
X57650000Y125700000D02*
X56400000Y125700000D01*
D12*
X57600000Y122550000D02*
X56300000Y122600000D01*
D13*
X57300000Y125300000D02*
X57300000Y122800000D01*
D14*
X56000000Y124100000D02*
X49300000Y124100000D01*
D10*
X53000000Y122300000D02*
X57800000Y122300000D01*
D15*
X49230000Y124400000D02*
X49230000Y122160000D01*
D16*
X48100000Y120900000D02*
X48100000Y122699999D01*
D12*
X47950000Y120600000D02*
X50400000Y120600000D01*
D10*
X47750000Y120400000D02*
X50780000Y120400000D01*
X47750000Y124850000D02*
X47750000Y120400000D01*
D17*
X47600000Y123350000D02*
X47600000Y124000000D01*
D10*
X47500000Y123250000D02*
X47700000Y123250000D01*
X47500000Y124000000D02*
X47500000Y123250000D01*
X53000000Y122300000D02*
G75*
G03*
X50783682Y120421471I-65000J-2170000D01*
G01*
D13*
X52600000Y122700000D02*
G75*
G03*
X50383682Y120821471I-65000J-2170000D01*
G01*
D10*
X49599999Y125900000D02*
G75*
G03*
X47500000Y123999999I-99999J-2000000D01*
G01*
%TO.C,D34*%
X89150000Y140440000D02*
X89150000Y138940000D01*
X89150000Y138940000D02*
X94550000Y138940000D01*
X91350000Y140190000D02*
X91350000Y139190000D01*
X91450000Y139690000D02*
X92350000Y140190000D01*
X92350000Y140190000D02*
X92350000Y139190000D01*
X92350000Y139190000D02*
X91450000Y139690000D01*
X94550000Y140440000D02*
X89150000Y140440000D01*
X94550000Y138940000D02*
X94550000Y140440000D01*
%TO.C,D4*%
X5210000Y145830000D02*
X5210000Y144330000D01*
X5210000Y144330000D02*
X10610000Y144330000D01*
X7410000Y145580000D02*
X7410000Y144580000D01*
X7510000Y145080000D02*
X8410000Y145580000D01*
X8410000Y145580000D02*
X8410000Y144580000D01*
X8410000Y144580000D02*
X7510000Y145080000D01*
X10610000Y145830000D02*
X5210000Y145830000D01*
X10610000Y144330000D02*
X10610000Y145830000D01*
%TO.C,SW14*%
X57800000Y103250000D02*
X57800000Y106850000D01*
X57800000Y106850000D02*
X49599999Y106850000D01*
X57780000Y104250000D02*
X57780000Y106500000D01*
D11*
X57650000Y106650000D02*
X56400000Y106650000D01*
D12*
X57600000Y103500000D02*
X56300000Y103550000D01*
D13*
X57300000Y106250000D02*
X57300000Y103750000D01*
D14*
X56000000Y105050000D02*
X49300000Y105050000D01*
D10*
X53000000Y103250000D02*
X57800000Y103250000D01*
D15*
X49230000Y105350000D02*
X49230000Y103110000D01*
D16*
X48100000Y101850000D02*
X48100000Y103649999D01*
D12*
X47950000Y101550000D02*
X50400000Y101550000D01*
D10*
X47750000Y101350000D02*
X50780000Y101350000D01*
X47750000Y105800000D02*
X47750000Y101350000D01*
D17*
X47600000Y104300000D02*
X47600000Y104950000D01*
D10*
X47500000Y104200000D02*
X47700000Y104200000D01*
X47500000Y104950000D02*
X47500000Y104200000D01*
X53000000Y103250000D02*
G75*
G03*
X50783682Y101371471I-65000J-2170000D01*
G01*
D13*
X52600000Y103650000D02*
G75*
G03*
X50383682Y101771471I-65000J-2170000D01*
G01*
D10*
X49599999Y106850000D02*
G75*
G03*
X47500000Y104949999I-99999J-2000000D01*
G01*
%TO.C,SW21*%
X19700000Y84200000D02*
X19700000Y87800000D01*
X19700000Y87800000D02*
X11499999Y87800000D01*
X19680000Y85200000D02*
X19680000Y87450000D01*
D11*
X19550000Y87600000D02*
X18300000Y87600000D01*
D12*
X19500000Y84450000D02*
X18200000Y84500000D01*
D13*
X19200000Y87200000D02*
X19200000Y84700000D01*
D14*
X17900000Y86000000D02*
X11200000Y86000000D01*
D10*
X14900000Y84200000D02*
X19700000Y84200000D01*
D15*
X11130000Y86300000D02*
X11130000Y84060000D01*
D16*
X10000000Y82800000D02*
X10000000Y84599999D01*
D12*
X9850000Y82500000D02*
X12300000Y82500000D01*
D10*
X9650000Y82300000D02*
X12680000Y82300000D01*
X9650000Y86750000D02*
X9650000Y82300000D01*
D17*
X9500000Y85250000D02*
X9500000Y85900000D01*
D10*
X9400000Y85150000D02*
X9600000Y85150000D01*
X9400000Y85900000D02*
X9400000Y85150000D01*
X14900000Y84200000D02*
G75*
G03*
X12683682Y82321471I-65000J-2170000D01*
G01*
D13*
X14500000Y84600000D02*
G75*
G03*
X12283682Y82721471I-65000J-2170000D01*
G01*
D10*
X11499999Y87800000D02*
G75*
G03*
X9400000Y85899999I-99999J-2000000D01*
G01*
%TO.C,D6*%
X31000000Y145910000D02*
X31000000Y144410000D01*
X31000000Y144410000D02*
X36400000Y144410000D01*
X33200000Y145660000D02*
X33200000Y144660000D01*
X33300000Y145160000D02*
X34200000Y145660000D01*
X34200000Y145660000D02*
X34200000Y144660000D01*
X34200000Y144660000D02*
X33300000Y145160000D01*
X36400000Y145910000D02*
X31000000Y145910000D01*
X36400000Y144410000D02*
X36400000Y145910000D01*
%TO.C,SW101*%
X114950000Y122300000D02*
X114950000Y125900000D01*
X114950000Y125900000D02*
X106749999Y125900000D01*
X114930000Y123300000D02*
X114930000Y125550000D01*
D11*
X114800000Y125700000D02*
X113550000Y125700000D01*
D12*
X114750000Y122550000D02*
X113450000Y122600000D01*
D13*
X114450000Y125300000D02*
X114450000Y122800000D01*
D14*
X113150000Y124100000D02*
X106450000Y124100000D01*
D10*
X110150000Y122300000D02*
X114950000Y122300000D01*
D15*
X106380000Y124400000D02*
X106380000Y122160000D01*
D16*
X105250000Y120900000D02*
X105250000Y122699999D01*
D12*
X105100000Y120600000D02*
X107550000Y120600000D01*
D10*
X104900000Y120400000D02*
X107930000Y120400000D01*
X104900000Y124850000D02*
X104900000Y120400000D01*
D17*
X104750000Y123350000D02*
X104750000Y124000000D01*
D10*
X104650000Y123250000D02*
X104850000Y123250000D01*
X104650000Y124000000D02*
X104650000Y123250000D01*
X110150000Y122300000D02*
G75*
G03*
X107933682Y120421471I-65000J-2170000D01*
G01*
D13*
X109750000Y122700000D02*
G75*
G03*
X107533682Y120821471I-65000J-2170000D01*
G01*
D10*
X106749999Y125900000D02*
G75*
G03*
X104650000Y123999999I-99999J-2000000D01*
G01*
%TO.C,D25*%
X76060000Y140460000D02*
X76060000Y138960000D01*
X76060000Y138960000D02*
X81460000Y138960000D01*
X78260000Y140210000D02*
X78260000Y139210000D01*
X78360000Y139710000D02*
X79260000Y140210000D01*
X79260000Y140210000D02*
X79260000Y139210000D01*
X79260000Y139210000D02*
X78360000Y139710000D01*
X81460000Y140460000D02*
X76060000Y140460000D01*
X81460000Y138960000D02*
X81460000Y140460000D01*
%TO.C,SW18*%
X-37450000Y84200000D02*
X-37450000Y87800000D01*
X-37450000Y87800000D02*
X-45650001Y87800000D01*
X-37470000Y85200000D02*
X-37470000Y87450000D01*
D11*
X-37600000Y87600000D02*
X-38850000Y87600000D01*
D12*
X-37650000Y84450000D02*
X-38950000Y84500000D01*
D13*
X-37950000Y87200000D02*
X-37950000Y84700000D01*
D14*
X-39250000Y86000000D02*
X-45950000Y86000000D01*
D10*
X-42250000Y84200000D02*
X-37450000Y84200000D01*
D15*
X-46020000Y86300000D02*
X-46020000Y84060000D01*
D16*
X-47150000Y82800000D02*
X-47150000Y84599999D01*
D12*
X-47300000Y82500000D02*
X-44850000Y82500000D01*
D10*
X-47500000Y82300000D02*
X-44470000Y82300000D01*
X-47500000Y86750000D02*
X-47500000Y82300000D01*
D17*
X-47650000Y85250000D02*
X-47650000Y85900000D01*
D10*
X-47750000Y85150000D02*
X-47550000Y85150000D01*
X-47750000Y85900000D02*
X-47750000Y85150000D01*
X-42250000Y84200000D02*
G75*
G03*
X-44466318Y82321471I-65000J-2170000D01*
G01*
D13*
X-42650000Y84600000D02*
G75*
G03*
X-44866318Y82721471I-65000J-2170000D01*
G01*
D10*
X-45650001Y87800000D02*
G75*
G03*
X-47750000Y85899999I-99999J-2000000D01*
G01*
%TO.C,D31*%
X50255000Y137450000D02*
X50255000Y135950000D01*
X50255000Y135950000D02*
X55655000Y135950000D01*
X52455000Y137200000D02*
X52455000Y136200000D01*
X52555000Y136700000D02*
X53455000Y137200000D01*
X53455000Y137200000D02*
X53455000Y136200000D01*
X53455000Y136200000D02*
X52555000Y136700000D01*
X55655000Y137450000D02*
X50255000Y137450000D01*
X55655000Y135950000D02*
X55655000Y137450000D01*
%TO.C,SW302*%
X-18400000Y65150000D02*
X-18400000Y68750000D01*
X-18400000Y68750000D02*
X-26600001Y68750000D01*
X-18420000Y66150000D02*
X-18420000Y68400000D01*
D11*
X-18550000Y68550000D02*
X-19800000Y68550000D01*
D12*
X-18600000Y65400000D02*
X-19900000Y65450000D01*
D13*
X-18900000Y68150000D02*
X-18900000Y65650000D01*
D14*
X-20200000Y66950000D02*
X-26900000Y66950000D01*
D10*
X-23200000Y65150000D02*
X-18400000Y65150000D01*
D15*
X-26970000Y67250000D02*
X-26970000Y65010000D01*
D16*
X-28100000Y63750000D02*
X-28100000Y65549999D01*
D12*
X-28250000Y63450000D02*
X-25800000Y63450000D01*
D10*
X-28450000Y63250000D02*
X-25420000Y63250000D01*
X-28450000Y67700000D02*
X-28450000Y63250000D01*
D17*
X-28600000Y66200000D02*
X-28600000Y66850000D01*
D10*
X-28700000Y66100000D02*
X-28500000Y66100000D01*
X-28700000Y66850000D02*
X-28700000Y66100000D01*
X-23200000Y65150000D02*
G75*
G03*
X-25416318Y63271471I-65000J-2170000D01*
G01*
D13*
X-23600000Y65550000D02*
G75*
G03*
X-25816318Y63671471I-65000J-2170000D01*
G01*
D10*
X-26600001Y68750000D02*
G75*
G03*
X-28700000Y66849999I-99999J-2000000D01*
G01*
%TO.C,D10*%
X-5885000Y143060000D02*
X-5885000Y141560000D01*
X-5885000Y141560000D02*
X-485000Y141560000D01*
X-3685000Y142810000D02*
X-3685000Y141810000D01*
X-3585000Y142310000D02*
X-2685000Y142810000D01*
X-2685000Y142810000D02*
X-2685000Y141810000D01*
X-2685000Y141810000D02*
X-3585000Y142310000D01*
X-485000Y143060000D02*
X-5885000Y143060000D01*
X-485000Y141560000D02*
X-485000Y143060000D01*
%TO.C,D7*%
X44095000Y145930000D02*
X44095000Y144430000D01*
X44095000Y144430000D02*
X49495000Y144430000D01*
X46295000Y145680000D02*
X46295000Y144680000D01*
X46395000Y145180000D02*
X47295000Y145680000D01*
X47295000Y145680000D02*
X47295000Y144680000D01*
X47295000Y144680000D02*
X46395000Y145180000D01*
X49495000Y145930000D02*
X44095000Y145930000D01*
X49495000Y144430000D02*
X49495000Y145930000D01*
%TO.C,D33*%
X91140000Y137630000D02*
X91140000Y136130000D01*
X91140000Y136130000D02*
X96540000Y136130000D01*
X93340000Y137380000D02*
X93340000Y136380000D01*
X93440000Y136880000D02*
X94340000Y137380000D01*
X94340000Y137380000D02*
X94340000Y136380000D01*
X94340000Y136380000D02*
X93440000Y136880000D01*
X96540000Y137630000D02*
X91140000Y137630000D01*
X96540000Y136130000D02*
X96540000Y137630000D01*
%TO.C,SW201*%
X-37450000Y65150000D02*
X-37450000Y68750000D01*
X-37450000Y68750000D02*
X-45650001Y68750000D01*
X-37470000Y66150000D02*
X-37470000Y68400000D01*
D11*
X-37600000Y68550000D02*
X-38850000Y68550000D01*
D12*
X-37650000Y65400000D02*
X-38950000Y65450000D01*
D13*
X-37950000Y68150000D02*
X-37950000Y65650000D01*
D14*
X-39250000Y66950000D02*
X-45950000Y66950000D01*
D10*
X-42250000Y65150000D02*
X-37450000Y65150000D01*
D15*
X-46020000Y67250000D02*
X-46020000Y65010000D01*
D16*
X-47150000Y63750000D02*
X-47150000Y65549999D01*
D12*
X-47300000Y63450000D02*
X-44850000Y63450000D01*
D10*
X-47500000Y63250000D02*
X-44470000Y63250000D01*
X-47500000Y67700000D02*
X-47500000Y63250000D01*
D17*
X-47650000Y66200000D02*
X-47650000Y66850000D01*
D10*
X-47750000Y66100000D02*
X-47550000Y66100000D01*
X-47750000Y66850000D02*
X-47750000Y66100000D01*
X-42250000Y65150000D02*
G75*
G03*
X-44466318Y63271471I-65000J-2170000D01*
G01*
D13*
X-42650000Y65550000D02*
G75*
G03*
X-44866318Y63671471I-65000J-2170000D01*
G01*
D10*
X-45650001Y68750000D02*
G75*
G03*
X-47750000Y66849999I-99999J-2000000D01*
G01*
%TO.C,SW25*%
X95900000Y84200000D02*
X95900000Y87800000D01*
X95900000Y87800000D02*
X87699999Y87800000D01*
X95880000Y85200000D02*
X95880000Y87450000D01*
D11*
X95750000Y87600000D02*
X94500000Y87600000D01*
D12*
X95700000Y84450000D02*
X94400000Y84500000D01*
D13*
X95400000Y87200000D02*
X95400000Y84700000D01*
D14*
X94100000Y86000000D02*
X87400000Y86000000D01*
D10*
X91100000Y84200000D02*
X95900000Y84200000D01*
D15*
X87330000Y86300000D02*
X87330000Y84060000D01*
D16*
X86200000Y82800000D02*
X86200000Y84599999D01*
D12*
X86050000Y82500000D02*
X88500000Y82500000D01*
D10*
X85850000Y82300000D02*
X88880000Y82300000D01*
X85850000Y86750000D02*
X85850000Y82300000D01*
D17*
X85700000Y85250000D02*
X85700000Y85900000D01*
D10*
X85600000Y85150000D02*
X85800000Y85150000D01*
X85600000Y85900000D02*
X85600000Y85150000D01*
X91100000Y84200000D02*
G75*
G03*
X88883682Y82321471I-65000J-2170000D01*
G01*
D13*
X90700000Y84600000D02*
G75*
G03*
X88483682Y82721471I-65000J-2170000D01*
G01*
D10*
X87699999Y87800000D02*
G75*
G03*
X85600000Y85899999I-99999J-2000000D01*
G01*
%TO.C,D202*%
X77915000Y137460000D02*
X77915000Y135960000D01*
X77915000Y135960000D02*
X83315000Y135960000D01*
X80115000Y137210000D02*
X80115000Y136210000D01*
X80215000Y136710000D02*
X81115000Y137210000D01*
X81115000Y137210000D02*
X81115000Y136210000D01*
X81115000Y136210000D02*
X80215000Y136710000D01*
X83315000Y137460000D02*
X77915000Y137460000D01*
X83315000Y135960000D02*
X83315000Y137460000D01*
%TO.C,D2*%
X-20555000Y145860000D02*
X-20555000Y144360000D01*
X-20555000Y144360000D02*
X-15155000Y144360000D01*
X-18355000Y145610000D02*
X-18355000Y144610000D01*
X-18255000Y145110000D02*
X-17355000Y145610000D01*
X-17355000Y145610000D02*
X-17355000Y144610000D01*
X-17355000Y144610000D02*
X-18255000Y145110000D01*
X-15155000Y145860000D02*
X-20555000Y145860000D01*
X-15155000Y144360000D02*
X-15155000Y145860000D01*
%TO.C,SW303*%
X46250000Y37600000D02*
X46250000Y41200000D01*
X46400000Y37400000D02*
X46400000Y41400000D01*
X46550000Y37300000D02*
X46550000Y41500000D01*
X46700000Y37200000D02*
X46700000Y41600000D01*
X46850000Y37150000D02*
X46850000Y41650000D01*
X47000000Y37100000D02*
X47000000Y41650000D01*
X47150000Y37100000D02*
X47150000Y41700000D01*
X47300000Y37100000D02*
X47300000Y41700000D01*
X47450000Y37100000D02*
X47450000Y41700000D01*
X47600000Y37100000D02*
X47600000Y41700000D01*
X47750000Y37100000D02*
X47750000Y41700000D01*
X47900000Y37100000D02*
X47900000Y41700000D01*
X48050000Y37100000D02*
X48050000Y41700000D01*
X48200000Y37100000D02*
X48200000Y41700000D01*
X48350000Y37100000D02*
X48350000Y41700000D01*
X48500000Y37100000D02*
X48500000Y41700000D01*
X48650000Y37100000D02*
X48650000Y41700000D01*
D18*
X48750000Y37200000D02*
X48750000Y41700000D01*
D10*
X48800000Y37100000D02*
X48800000Y41700000D01*
X48950000Y37100000D02*
X48950000Y41700000D01*
X49100000Y37100000D02*
X49100000Y41700000D01*
X49100000Y37075000D02*
X47125000Y37075000D01*
X49250000Y37100000D02*
X49250000Y41650000D01*
X49400000Y37050000D02*
X49400000Y41700000D01*
X49550000Y37050000D02*
X49550000Y41700000D01*
X49675000Y41725000D02*
X47125000Y41725000D01*
X49675000Y41725000D02*
X50950000Y40700000D01*
X49700000Y37050000D02*
X49700000Y41650000D01*
X49850000Y37000000D02*
X49850000Y41550000D01*
X50000000Y36900000D02*
X50000000Y41450000D01*
X50150000Y36850000D02*
X50150000Y41300000D01*
X50300000Y36750000D02*
X50300000Y41200000D01*
X50450000Y36650000D02*
X50450000Y41050000D01*
X50600000Y36550000D02*
X50600000Y40950000D01*
X50750000Y36400000D02*
X50750000Y40850000D01*
X50900000Y36250000D02*
X50900000Y40700000D01*
X51000000Y36050000D02*
X51000000Y40200000D01*
X51100000Y35900000D02*
X51100000Y40050000D01*
X51200000Y35700000D02*
X51200000Y39850000D01*
X51300000Y35550000D02*
X51300000Y39750000D01*
X51400000Y35300000D02*
X51400000Y39700000D01*
X51500000Y35150000D02*
X51500000Y39650000D01*
D18*
X51600000Y39500000D02*
X48750000Y37200000D01*
X51600000Y35150000D02*
X51600000Y39500000D01*
D10*
X51650000Y35050000D02*
X51650000Y39600000D01*
X51800000Y34950000D02*
X51800000Y39500000D01*
X51950000Y34900000D02*
X51950000Y39500000D01*
X52100000Y34900000D02*
X52100000Y39500000D01*
X52250000Y34900000D02*
X52250000Y39450000D01*
X52400000Y34900000D02*
X52400000Y39500000D01*
X52550000Y34900000D02*
X52550000Y39500000D01*
X52700000Y34900000D02*
X52700000Y39500000D01*
X52850000Y34900000D02*
X52850000Y39500000D01*
X53000000Y34900000D02*
X53000000Y39500000D01*
X53150000Y34900000D02*
X53150000Y39500000D01*
X53300000Y34900000D02*
X53300000Y39500000D01*
X53450000Y34900000D02*
X53450000Y39500000D01*
X53600000Y34900000D02*
X53600000Y39500000D01*
X53750000Y34900000D02*
X53750000Y39500000D01*
X53900000Y34900000D02*
X53900000Y39500000D01*
X54050000Y34900000D02*
X54050000Y39500000D01*
X54200000Y34900000D02*
X54200000Y39500000D01*
D18*
X54300000Y39450000D02*
X51600000Y35150000D01*
X54300000Y35000000D02*
X54300000Y39450000D01*
D10*
X54350000Y34900000D02*
X54350000Y39500000D01*
X54500000Y34900000D02*
X54500000Y39500000D01*
X54650000Y34900000D02*
X54650000Y39500000D01*
X54700000Y39525000D02*
X52125000Y39525000D01*
X54700000Y39525000D02*
X55725000Y38500000D01*
X54700000Y34875000D02*
X52100000Y34875000D01*
X54700000Y34875000D02*
X55725000Y35900000D01*
X54800000Y35000000D02*
X54800000Y39400000D01*
X54950000Y35150000D02*
X54950000Y39250000D01*
X55100000Y35300000D02*
X55100000Y39100000D01*
X55250000Y35450000D02*
X55250000Y38950000D01*
X55350000Y35550000D02*
X55350000Y38850000D01*
X55450000Y35650000D02*
X55450000Y38750000D01*
X55550000Y35750000D02*
X55550000Y38650000D01*
X55700000Y38525000D02*
X55700000Y35875000D01*
X47125000Y41725000D02*
G75*
G03*
X46125000Y40725000I-1J-999999D01*
G01*
X46125000Y38075000D02*
G75*
G03*
X47125000Y37075000I999999J-1D01*
G01*
X51237801Y35578096D02*
G75*
G03*
X49100000Y37075000I-2137802J-778098D01*
G01*
X51237802Y35578096D02*
G75*
G03*
X52099005Y34876210I899999J225000D01*
G01*
X50950000Y40700000D02*
G75*
G03*
X52125000Y39525000I1175002J2D01*
G01*
%TO.C,SW2*%
X-37450000Y122300000D02*
X-37450000Y125900000D01*
X-37450000Y125900000D02*
X-45650001Y125900000D01*
X-37470000Y123300000D02*
X-37470000Y125550000D01*
D11*
X-37600000Y125700000D02*
X-38850000Y125700000D01*
D12*
X-37650000Y122550000D02*
X-38950000Y122600000D01*
D13*
X-37950000Y125300000D02*
X-37950000Y122800000D01*
D14*
X-39250000Y124100000D02*
X-45950000Y124100000D01*
D10*
X-42250000Y122300000D02*
X-37450000Y122300000D01*
D15*
X-46020000Y124400000D02*
X-46020000Y122160000D01*
D16*
X-47150000Y120900000D02*
X-47150000Y122699999D01*
D12*
X-47300000Y120600000D02*
X-44850000Y120600000D01*
D10*
X-47500000Y120400000D02*
X-44470000Y120400000D01*
X-47500000Y124850000D02*
X-47500000Y120400000D01*
D17*
X-47650000Y123350000D02*
X-47650000Y124000000D01*
D10*
X-47750000Y123250000D02*
X-47550000Y123250000D01*
X-47750000Y124000000D02*
X-47750000Y123250000D01*
X-42250000Y122300000D02*
G75*
G03*
X-44466318Y120421471I-65000J-2170000D01*
G01*
D13*
X-42650000Y122700000D02*
G75*
G03*
X-44866318Y120821471I-65000J-2170000D01*
G01*
D10*
X-45650001Y125900000D02*
G75*
G03*
X-47750000Y123999999I-99999J-2000000D01*
G01*
%TO.C,D11*%
X7150000Y143010000D02*
X7150000Y141510000D01*
X7150000Y141510000D02*
X12550000Y141510000D01*
X9350000Y142760000D02*
X9350000Y141760000D01*
X9450000Y142260000D02*
X10350000Y142760000D01*
X10350000Y142760000D02*
X10350000Y141760000D01*
X10350000Y141760000D02*
X9450000Y142260000D01*
X12550000Y143010000D02*
X7150000Y143010000D01*
X12550000Y141510000D02*
X12550000Y143010000D01*
%TO.C,D17*%
X87110000Y143090000D02*
X87110000Y141590000D01*
X87110000Y141590000D02*
X92510000Y141590000D01*
X89310000Y142840000D02*
X89310000Y141840000D01*
X89410000Y142340000D02*
X90310000Y142840000D01*
X90310000Y142840000D02*
X90310000Y141840000D01*
X90310000Y141840000D02*
X89410000Y142340000D01*
X92510000Y143090000D02*
X87110000Y143090000D01*
X92510000Y141590000D02*
X92510000Y143090000D01*
%TO.C,SW8*%
X76850000Y122300000D02*
X76850000Y125900000D01*
X76850000Y125900000D02*
X68649999Y125900000D01*
X76830000Y123300000D02*
X76830000Y125550000D01*
D11*
X76700000Y125700000D02*
X75450000Y125700000D01*
D12*
X76650000Y122550000D02*
X75350000Y122600000D01*
D13*
X76350000Y125300000D02*
X76350000Y122800000D01*
D14*
X75050000Y124100000D02*
X68350000Y124100000D01*
D10*
X72050000Y122300000D02*
X76850000Y122300000D01*
D15*
X68280000Y124400000D02*
X68280000Y122160000D01*
D16*
X67150000Y120900000D02*
X67150000Y122699999D01*
D12*
X67000000Y120600000D02*
X69450000Y120600000D01*
D10*
X66800000Y120400000D02*
X69830000Y120400000D01*
X66800000Y124850000D02*
X66800000Y120400000D01*
D17*
X66650000Y123350000D02*
X66650000Y124000000D01*
D10*
X66550000Y123250000D02*
X66750000Y123250000D01*
X66550000Y124000000D02*
X66550000Y123250000D01*
X72050000Y122300000D02*
G75*
G03*
X69833682Y120421471I-65000J-2170000D01*
G01*
D13*
X71650000Y122700000D02*
G75*
G03*
X69433682Y120821471I-65000J-2170000D01*
G01*
D10*
X68649999Y125900000D02*
G75*
G03*
X66550000Y123999999I-99999J-2000000D01*
G01*
%TO.C,SW20*%
X650000Y84200000D02*
X650000Y87800000D01*
X650000Y87800000D02*
X-7550001Y87800000D01*
X630000Y85200000D02*
X630000Y87450000D01*
D11*
X500000Y87600000D02*
X-750000Y87600000D01*
D12*
X450000Y84450000D02*
X-850000Y84500000D01*
D13*
X150000Y87200000D02*
X150000Y84700000D01*
D14*
X-1150000Y86000000D02*
X-7850000Y86000000D01*
D10*
X-4150000Y84200000D02*
X650000Y84200000D01*
D15*
X-7920000Y86300000D02*
X-7920000Y84060000D01*
D16*
X-9050000Y82800000D02*
X-9050000Y84599999D01*
D12*
X-9200000Y82500000D02*
X-6750000Y82500000D01*
D10*
X-9400000Y82300000D02*
X-6370000Y82300000D01*
X-9400000Y86750000D02*
X-9400000Y82300000D01*
D17*
X-9550000Y85250000D02*
X-9550000Y85900000D01*
D10*
X-9650000Y85150000D02*
X-9450000Y85150000D01*
X-9650000Y85900000D02*
X-9650000Y85150000D01*
X-4150000Y84200000D02*
G75*
G03*
X-6366318Y82321471I-65000J-2170000D01*
G01*
D13*
X-4550000Y84600000D02*
G75*
G03*
X-6766318Y82721471I-65000J-2170000D01*
G01*
D10*
X-7550001Y87800000D02*
G75*
G03*
X-9650000Y85899999I-99999J-2000000D01*
G01*
%TO.C,D32*%
X23890000Y137400000D02*
X23890000Y135900000D01*
X23890000Y135900000D02*
X29290000Y135900000D01*
X26090000Y137150000D02*
X26090000Y136150000D01*
X26190000Y136650000D02*
X27090000Y137150000D01*
X27090000Y137150000D02*
X27090000Y136150000D01*
X27090000Y136150000D02*
X26190000Y136650000D01*
X29290000Y137400000D02*
X23890000Y137400000D01*
X29290000Y135900000D02*
X29290000Y137400000D01*
%TO.C,D18*%
X-17055000Y140250000D02*
X-17055000Y138750000D01*
X-17055000Y138750000D02*
X-11655000Y138750000D01*
X-14855000Y140000000D02*
X-14855000Y139000000D01*
X-14755000Y139500000D02*
X-13855000Y140000000D01*
X-13855000Y140000000D02*
X-13855000Y139000000D01*
X-13855000Y139000000D02*
X-14755000Y139500000D01*
X-11655000Y140250000D02*
X-17055000Y140250000D01*
X-11655000Y138750000D02*
X-11655000Y140250000D01*
%TO.C,SW34*%
X114950000Y65150000D02*
X114950000Y68750000D01*
X114950000Y68750000D02*
X106749999Y68750000D01*
X114930000Y66150000D02*
X114930000Y68400000D01*
D11*
X114800000Y68550000D02*
X113550000Y68550000D01*
D12*
X114750000Y65400000D02*
X113450000Y65450000D01*
D13*
X114450000Y68150000D02*
X114450000Y65650000D01*
D14*
X113150000Y66950000D02*
X106450000Y66950000D01*
D10*
X110150000Y65150000D02*
X114950000Y65150000D01*
D15*
X106380000Y67250000D02*
X106380000Y65010000D01*
D16*
X105250000Y63750000D02*
X105250000Y65549999D01*
D12*
X105100000Y63450000D02*
X107550000Y63450000D01*
D10*
X104900000Y63250000D02*
X107930000Y63250000D01*
X104900000Y67700000D02*
X104900000Y63250000D01*
D17*
X104750000Y66200000D02*
X104750000Y66850000D01*
D10*
X104650000Y66100000D02*
X104850000Y66100000D01*
X104650000Y66850000D02*
X104650000Y66100000D01*
X110150000Y65150000D02*
G75*
G03*
X107933682Y63271471I-65000J-2170000D01*
G01*
D13*
X109750000Y65550000D02*
G75*
G03*
X107533682Y63671471I-65000J-2170000D01*
G01*
D10*
X106749999Y68750000D02*
G75*
G03*
X104650000Y66849999I-99999J-2000000D01*
G01*
%TO.C,SW11*%
X650000Y103250000D02*
X650000Y106850000D01*
X650000Y106850000D02*
X-7550001Y106850000D01*
X630000Y104250000D02*
X630000Y106500000D01*
D11*
X500000Y106650000D02*
X-750000Y106650000D01*
D12*
X450000Y103500000D02*
X-850000Y103550000D01*
D13*
X150000Y106250000D02*
X150000Y103750000D01*
D14*
X-1150000Y105050000D02*
X-7850000Y105050000D01*
D10*
X-4150000Y103250000D02*
X650000Y103250000D01*
D15*
X-7920000Y105350000D02*
X-7920000Y103110000D01*
D16*
X-9050000Y101850000D02*
X-9050000Y103649999D01*
D12*
X-9200000Y101550000D02*
X-6750000Y101550000D01*
D10*
X-9400000Y101350000D02*
X-6370000Y101350000D01*
X-9400000Y105800000D02*
X-9400000Y101350000D01*
D17*
X-9550000Y104300000D02*
X-9550000Y104950000D01*
D10*
X-9650000Y104200000D02*
X-9450000Y104200000D01*
X-9650000Y104950000D02*
X-9650000Y104200000D01*
X-4150000Y103250000D02*
G75*
G03*
X-6366318Y101371471I-65000J-2170000D01*
G01*
D13*
X-4550000Y103650000D02*
G75*
G03*
X-6766318Y101771471I-65000J-2170000D01*
G01*
D10*
X-7550001Y106850000D02*
G75*
G03*
X-9650000Y104949999I-99999J-2000000D01*
G01*
%TO.C,SW26*%
X-56500000Y65150000D02*
X-56500000Y68750000D01*
X-56500000Y68750000D02*
X-64700001Y68750000D01*
X-56520000Y66150000D02*
X-56520000Y68400000D01*
D11*
X-56650000Y68550000D02*
X-57900000Y68550000D01*
D12*
X-56700000Y65400000D02*
X-58000000Y65450000D01*
D13*
X-57000000Y68150000D02*
X-57000000Y65650000D01*
D14*
X-58300000Y66950000D02*
X-65000000Y66950000D01*
D10*
X-61300000Y65150000D02*
X-56500000Y65150000D01*
D15*
X-65070000Y67250000D02*
X-65070000Y65010000D01*
D16*
X-66200000Y63750000D02*
X-66200000Y65549999D01*
D12*
X-66350000Y63450000D02*
X-63900000Y63450000D01*
D10*
X-66550000Y63250000D02*
X-63520000Y63250000D01*
X-66550000Y67700000D02*
X-66550000Y63250000D01*
D17*
X-66700000Y66200000D02*
X-66700000Y66850000D01*
D10*
X-66800000Y66100000D02*
X-66600000Y66100000D01*
X-66800000Y66850000D02*
X-66800000Y66100000D01*
X-61300000Y65150000D02*
G75*
G03*
X-63516318Y63271471I-65000J-2170000D01*
G01*
D13*
X-61700000Y65550000D02*
G75*
G03*
X-63916318Y63671471I-65000J-2170000D01*
G01*
D10*
X-64700001Y68750000D02*
G75*
G03*
X-66800000Y66849999I-99999J-2000000D01*
G01*
%TO.C,SW4*%
X650000Y122300000D02*
X650000Y125900000D01*
X650000Y125900000D02*
X-7550001Y125900000D01*
X630000Y123300000D02*
X630000Y125550000D01*
D11*
X500000Y125700000D02*
X-750000Y125700000D01*
D12*
X450000Y122550000D02*
X-850000Y122600000D01*
D13*
X150000Y125300000D02*
X150000Y122800000D01*
D14*
X-1150000Y124100000D02*
X-7850000Y124100000D01*
D10*
X-4150000Y122300000D02*
X650000Y122300000D01*
D15*
X-7920000Y124400000D02*
X-7920000Y122160000D01*
D16*
X-9050000Y120900000D02*
X-9050000Y122699999D01*
D12*
X-9200000Y120600000D02*
X-6750000Y120600000D01*
D10*
X-9400000Y120400000D02*
X-6370000Y120400000D01*
X-9400000Y124850000D02*
X-9400000Y120400000D01*
D17*
X-9550000Y123350000D02*
X-9550000Y124000000D01*
D10*
X-9650000Y123250000D02*
X-9450000Y123250000D01*
X-9650000Y124000000D02*
X-9650000Y123250000D01*
X-4150000Y122300000D02*
G75*
G03*
X-6366318Y120421471I-65000J-2170000D01*
G01*
D13*
X-4550000Y122700000D02*
G75*
G03*
X-6766318Y120821471I-65000J-2170000D01*
G01*
D10*
X-7550001Y125900000D02*
G75*
G03*
X-9650000Y123999999I-99999J-2000000D01*
G01*
%TO.C,U1*%
X-45657500Y146880000D02*
X-69157500Y146880000D01*
X-69157500Y146880000D02*
X-69157500Y142210000D01*
X-69157500Y146880000D02*
X-69157500Y128880000D01*
X-69157500Y142210000D02*
X-71037500Y142210000D01*
X-71037500Y142210000D02*
X-71037500Y133550000D01*
X-69157500Y133550000D02*
X-71037500Y133550000D01*
X-45657500Y128880000D02*
X-45657500Y146880000D01*
X-69157500Y128880000D02*
X-69157500Y133550000D01*
X-69157500Y128880000D02*
X-45657500Y128880000D01*
%TD*%
M02*
